<?xml version="1.0" encoding="UTF-8"?>
<svg id="Camada_2" data-name="Camada 2" xmlns="http://www.w3.org/2000/svg" viewBox="0 0 3640.32 3632.23">
  <defs>
    <style>
      .cls-1 {
        fill: #000;
        stroke-width: 0px;
      }
    </style>
  </defs>
  <g id="Layer_1" data-name="Layer 1">
    <g id="Layer_1-2" data-name="Layer_1">
      <g id="_279459656" data-name=" 279459656">
        <path id="_279460904" data-name=" 279460904" class="cls-1" d="M2387.49,1925.19c-248.73,0-450.77,202.03-450.77,450.77s202.03,450.77,450.77,450.77,450.77-202.03,450.77-450.77-202.03-450.77-450.77-450.77h0ZM2387.49,2875.45c-275.64,0-499.5-223.86-499.5-499.5s223.86-499.5,499.5-499.5,499.5,223.86,499.5,499.5-223.86,499.5-499.5,499.5Z"/>
        <path id="_279460736" data-name=" 279460736" class="cls-1" d="M2387.49,2074.94c-13.71,0-24.37-10.66-24.37-24.37v-53.3c0-13.2,10.66-24.37,24.37-24.37s24.37,11.17,24.37,24.37v53.3c0,13.71-10.66,24.37-24.37,24.37ZM2225.05,2118.59c-8.63,0-16.75-4.57-21.32-12.18l-26.4-46.19c-6.6-11.68-2.54-26.4,9.14-33.5,11.67-6.6,26.4-2.54,33.5,9.14l26.4,46.19c6.6,11.68,2.54,26.4-9.14,33.5-4.06,2.03-8.12,3.05-12.18,3.05h0ZM2550.43,2118.59c-4.06,0-8.12-1.02-12.18-3.05-11.68-6.6-15.74-21.83-9.14-33.5l26.4-46.19c6.6-11.68,21.83-15.74,33.5-9.14,11.68,6.6,15.74,21.83,9.14,33.5l-26.4,46.19c-5.08,8.12-13.2,12.18-21.32,12.18h0ZM2669.22,2237.89c-8.63,0-16.75-4.57-21.32-12.18-6.6-11.68-2.54-26.4,9.14-33.5l46.19-26.4c11.68-6.6,26.4-2.54,33.5,9.14,6.6,11.68,2.54,26.4-9.14,33.5l-46.19,26.4c-3.55,2.03-8.12,3.05-12.18,3.05h0ZM2105.76,2237.89c-4.06,0-8.12-1.02-12.18-3.05l-46.19-26.4c-11.68-6.6-15.74-21.83-9.14-33.5,6.6-11.68,21.83-15.74,33-9.14l46.19,26.4c11.68,6.6,15.74,21.83,9.14,33.5-4.06,7.61-12.18,12.18-20.81,12.18h0ZM2062.1,2400.32h-53.3c-13.71,0-24.37-10.66-24.37-24.37s10.66-24.37,24.37-24.37h53.3c13.2,0,24.37,10.66,24.37,24.37s-10.66,24.37-24.37,24.37h0ZM2766.17,2400.32h-53.3c-13.71,0-24.37-10.66-24.37-24.37s10.66-24.37,24.37-24.37h53.3c13.71,0,24.37,10.66,24.37,24.37s-11.17,24.37-24.37,24.37ZM2060.07,2589.67c-8.63,0-16.75-4.57-21.32-12.18-6.6-11.68-2.54-26.4,9.14-33.5l46.19-26.4c11.68-6.6,26.4-2.54,33.5,9.14,6.6,11.68,2.54,26.4-9.14,33.5l-46.19,26.4c-4.06,2.03-8.12,3.05-12.18,3.05h0ZM2715.41,2589.67c-4.06,0-8.12-1.02-12.18-3.05l-46.19-26.4c-11.68-6.6-15.74-21.83-9.14-33.5,6.6-11.68,21.83-15.74,33.5-9.14l46.19,26.4c11.68,6.6,15.74,21.83,9.14,33.5-4.57,7.61-13.2,12.18-21.32,12.18h0ZM2198.15,2728.25c-4.06,0-8.12-1.02-12.18-3.05-11.68-6.6-15.74-21.83-9.14-33.5l26.4-46.19c6.6-11.68,21.83-15.74,33-9.14,11.68,6.6,15.74,21.83,9.14,33.5l-26.4,46.19c-4.06,7.61-12.18,12.18-20.81,12.18h0ZM2576.83,2728.25c-8.12,0-16.75-4.57-21.32-12.18l-26.4-46.19c-6.6-11.68-2.54-26.4,8.63-33.5,11.68-6.6,26.4-2.54,33.5,9.14l26.4,46.19c6.6,11.68,2.54,26.4-9.14,33.5-3.05,2.03-7.61,3.05-11.68,3.05h0ZM2387.49,2779.01c-13.71,0-24.37-11.17-24.37-24.37v-53.3c0-13.71,10.66-24.37,24.37-24.37s24.37,10.66,24.37,24.37v53.3c0,13.2-10.66,24.37-24.37,24.37Z"/>
        <path id="_279460928" data-name=" 279460928" class="cls-1" d="M2249.42,2480.02c-8.63,0-16.75-4.57-21.32-12.18-6.6-11.68-2.54-26.4,9.14-33.5l125.89-72.59v-205.59c0-13.71,10.66-24.37,24.37-24.37s24.37,11.17,24.37,24.37v219.8c0,8.63-4.57,16.75-12.18,21.32l-138.07,79.7c-4.06,2.03-8.12,3.55-12.18,3.05h0Z"/>
        <path id="_279460712" data-name=" 279460712" class="cls-1" d="M2387.49,1776.46c-330.46,0-599.5,269.04-599.5,599.5s269.04,599.5,599.5,599.5,599.5-269.04,599.5-599.5-269.04-599.5-599.5-599.5h0ZM2387.49,3024.19c-357.36,0-648.23-290.87-648.23-648.23s290.87-648.23,648.23-648.23,648.23,290.87,648.23,648.23-290.87,648.23-648.23,648.23h0Z"/>
        <path id="_279461168" data-name=" 279461168" class="cls-1" d="M1403.72,1013.51h-177.67c-13.71,0-24.37-10.66-24.37-24.37s11.17-24.37,24.37-24.37h177.67c13.71,0,24.37,10.66,24.37,24.37s-10.66,24.37-24.37,24.37ZM1731.14,1013.51h-177.16c-13.71,0-24.37-10.66-24.37-24.37s11.17-24.37,24.37-24.37h177.67c13.71,0,24.37,10.66,24.37,24.37-.51,13.71-11.17,24.37-24.87,24.37ZM2059.06,1013.51h-177.16c-13.2,0-24.37-10.66-24.37-24.37s11.17-24.37,24.37-24.37h177.67c13.71,0,24.37,10.66,24.37,24.37-.51,13.71-11.68,24.37-24.87,24.37ZM2386.47,1013.51h-177.67c-13.2,0-24.37-10.66-24.37-24.37s11.17-24.37,24.37-24.37h177.67c13.71,0,24.37,10.66,24.37,24.37s-11.17,24.37-24.37,24.37ZM2784.45,1919.1c-13.71,0-24.37-10.66-24.37-24.37v-792.39c0-48.73-39.59-88.83-88.83-88.83h-135.03c-13.71,0-24.37-10.66-24.37-24.37s10.66-24.37,24.37-24.37h135.03c75.64,0,137.06,61.42,137.06,137.56v792.39c.51,13.71-10.15,24.37-23.86,24.37ZM1844.34,2706.93h-903.05c-75.64,0-137.56-61.42-137.56-137.56v-1467.53c0-75.64,61.42-137.56,137.06-137.56h135.03c13.71,0,24.37,10.66,24.37,24.37s-11.17,24.37-24.37,24.37h-135.03c-48.73,0-88.83,39.59-88.83,88.83v1467.53c0,48.73,39.59,88.83,88.33,88.83h903.05c13.71,0,24.37,10.66,24.37,24.37,1.02,13.71-9.64,24.37-23.35,24.37h0Z"/>
        <path id="_279460208" data-name=" 279460208" class="cls-1" d="M2784.45,1339.91H828.08c-13.71,0-24.37-10.66-24.37-24.37s10.66-24.37,24.37-24.37h1956.36c13.71,0,24.37,11.17,24.37,24.37s-10.66,24.37-24.37,24.37h0Z"/>
        <path id="_279460160" data-name=" 279460160" class="cls-1" d="M2461.6,840.92c-27.92,0-50.76,22.84-50.76,50.76v195.43c0,27.92,22.84,50.76,50.76,50.76s50.76-22.84,50.76-50.76v-195.43c-.51-27.92-22.84-50.76-50.76-50.76-.51,0,0,0,0,0ZM2461.6,1186.61c-54.82,0-99.49-44.67-99.49-99.49v-195.43c0-54.82,44.67-99.49,99.49-99.49s99.49,44.67,99.49,99.49v195.43c-.51,54.82-45.18,99.49-99.49,99.49h0Z"/>
        <path id="_279460040" data-name=" 279460040" class="cls-1" d="M2133.68,840.92c-27.92,0-50.76,22.84-50.76,50.76v195.43c0,27.92,22.84,50.76,50.76,50.76s50.76-22.84,50.76-50.76v-195.43c0-27.92-22.84-50.76-50.76-50.76h0ZM2133.68,1186.61c-54.82,0-99.49-44.67-99.49-99.49v-195.43c0-54.82,44.67-99.49,99.49-99.49s99.49,44.67,99.49,99.49v195.43c0,54.82-44.67,99.49-99.49,99.49h0Z"/>
        <path id="_279460448" data-name=" 279460448" class="cls-1" d="M1806.26,840.92c-27.92,0-50.76,22.84-50.76,50.76v195.43c0,27.92,22.84,50.76,50.76,50.76s50.76-22.84,50.76-50.76v-195.43c0-27.92-22.84-50.76-50.76-50.76ZM1806.26,1186.61c-54.82,0-99.49-44.67-99.49-99.49v-195.43c0-54.82,44.67-99.49,99.49-99.49s99.49,44.67,99.49,99.49v195.43c0,54.82-44.67,99.49-99.49,99.49h0Z"/>
        <path id="_279460280" data-name=" 279460280" class="cls-1" d="M1478.85,840.92c-27.92,0-50.76,22.84-50.76,50.76v195.43c0,27.92,22.84,50.76,50.76,50.76s50.76-22.84,50.76-50.76v-195.43c0-27.92-22.84-50.76-50.76-50.76ZM1478.85,1186.61c-54.82,0-99.49-44.67-99.49-99.49v-195.43c0-54.82,44.67-99.49,99.49-99.49s99.49,44.67,99.49,99.49v195.43c0,54.82-44.67,99.49-99.49,99.49Z"/>
        <path id="_279460256" data-name=" 279460256" class="cls-1" d="M1151.44,840.92c-27.92,0-50.76,22.84-50.76,50.76v195.43c0,27.92,22.84,50.76,50.76,50.76s50.76-22.84,50.76-50.76v-195.43c0-27.92-22.84-50.76-50.76-50.76ZM1151.44,1186.61c-54.82,0-99.49-44.67-99.49-99.49v-195.43c0-54.82,44.67-99.49,99.49-99.49s99.49,44.67,99.49,99.49v195.43c0,54.82-44.67,99.49-99.49,99.49h0Z"/>
        <path id="_279460544" data-name=" 279460544" class="cls-1" d="M1771.75,2499.82h-661.43c-54.82,0-98.99-44.67-98.99-98.99v-803.05c0-54.82,44.67-98.99,98.99-98.99h1391.89c54.82,0,98.99,44.67,98.99,98.99v184.27c0,13.2-11.17,24.37-24.37,24.37s-24.37-10.66-24.37-24.37v-184.27c0-27.92-22.84-50.25-50.25-50.25h-1391.89c-27.92,0-50.25,22.84-50.25,50.25v803.05c0,27.92,22.84,50.25,50.25,50.25h661.43c13.71,0,24.37,10.66,24.37,24.37s-11.17,24.37-24.37,24.37h0Z"/>
        <path id="_279459896" data-name=" 279459896" class="cls-1" d="M1420.98,2499.82c-13.71,0-24.37-10.66-24.37-24.37v-952.29c0-13.71,10.66-24.37,24.37-24.37s24.37,10.66,24.37,24.37v952.29c0,13.2-11.17,24.37-24.37,24.37Z"/>
        <path id="_279459920" data-name=" 279459920" class="cls-1" d="M1806.26,2173.93c-13.71,0-24.37-10.66-24.37-24.37v-626.91c0-13.71,10.66-24.37,24.37-24.37s24.37,10.66,24.37,24.37v626.4c0,13.71-10.66,24.87-24.37,24.87h0Z"/>
        <path id="_279459872" data-name=" 279459872" class="cls-1" d="M2191.55,1807.93c-13.71,0-24.37-10.66-24.37-24.37v-260.92c0-13.71,10.66-24.37,24.37-24.37s24.37,10.66,24.37,24.37v260.92c0,13.71-10.66,24.37-24.37,24.37h0Z"/>
        <path id="_279459680" data-name=" 279459680" class="cls-1" d="M2068.2,1864.79h-1032.5c-13.71,0-24.37-10.66-24.37-24.37s10.66-24.37,24.37-24.37h1032.5c13.71,0,24.37,10.66,24.37,24.37s-11.17,24.37-24.37,24.37Z"/>
        <path id="_279459488" data-name=" 279459488" class="cls-1" d="M1803.22,2182.05h-767.52c-13.71,0-24.37-10.66-24.37-24.37s10.66-24.37,24.37-24.37h767.52c13.71,0,24.37,10.66,24.37,24.37s-11.17,24.37-24.37,24.37Z"/>
        <path id="_279459440" data-name=" 279459440" class="cls-1" d="M1193.06,1761.74c-6.09,0-12.69-2.54-17.26-7.11l-41.12-41.12c-9.64-9.64-9.64-24.87,0-34.52,9.64-9.64,24.87-9.64,34.52,0l23.86,23.86,94.92-94.92c9.64-9.64,24.87-9.64,34.52,0s9.64,24.87,0,34.52l-112.18,112.18c-5.08,5.08-11.17,7.11-17.26,7.11h0Z"/>
        <path id="_279459248" data-name=" 279459248" class="cls-1" d="M1578.34,1761.74h0c-6.6,0-12.69-2.54-17.26-7.11l-41.12-41.12c-9.64-9.64-9.64-24.87,0-34.52,9.64-9.64,24.87-9.64,34.52,0l23.86,23.86,94.92-94.92c9.64-9.64,24.87-9.64,34.52,0,9.64,9.64,9.64,24.87,0,34.52l-112.18,112.18c-4.57,4.57-10.66,7.11-17.26,7.11h0Z"/>
        <path id="_279459200" data-name=" 279459200" class="cls-1" d="M1963.63,1761.74c-6.09,0-12.69-2.54-17.26-7.11l-41.12-41.12c-9.64-9.64-9.64-24.87,0-34.52,9.64-9.64,24.87-9.64,34.52,0l23.86,23.86,94.92-94.92c9.64-9.64,24.87-9.64,34.52,0,9.64,9.64,9.64,24.87,0,34.52l-112.18,112.18c-4.57,5.08-11.17,7.11-17.26,7.11h0Z"/>
        <path id="_279459056" data-name=" 279459056" class="cls-1" d="M1578.34,2079.51h0c-6.6,0-12.69-2.54-17.26-7.11l-41.12-41.12c-9.64-9.64-9.64-24.87,0-34.52,9.64-9.64,24.87-9.64,34.52,0l23.86,23.86,94.92-94.92c9.64-9.64,24.87-9.64,34.52,0,9.64,9.64,9.64,24.87,0,34.52l-112.18,112.18c-4.57,4.57-10.66,7.11-17.26,7.11h0Z"/>
        <path id="_279459224" data-name=" 279459224" class="cls-1" d="M1193.06,2079.51h0c-6.6,0-12.69-2.54-17.26-7.11l-41.12-41.12c-9.64-9.64-9.64-24.87,0-34.52,9.64-9.64,24.87-9.64,34.52,0l23.86,23.86,94.92-94.92c9.64-9.64,24.87-9.64,34.52,0,9.64,9.64,9.64,24.87,0,34.52l-112.18,112.18c-4.57,4.57-11.17,7.11-17.26,7.11Z"/>
        <path id="_279459104" data-name=" 279459104" class="cls-1" d="M1578.34,2396.77h0c-6.6,0-12.69-2.54-17.26-7.11l-41.12-41.12c-9.64-9.64-9.64-24.87,0-34.52,9.64-9.64,24.87-9.64,34.52,0l23.86,23.86,94.92-94.92c9.64-9.64,24.87-9.64,34.52,0,9.64,9.64,9.64,24.87,0,34.52l-112.18,112.18c-4.57,4.57-10.66,7.11-17.26,7.11h0Z"/>
        <path id="_279459752" data-name=" 279459752" class="cls-1" d="M1193.06,2396.77h0c-6.6,0-12.69-2.54-17.26-7.11l-41.12-41.12c-9.64-9.64-9.64-24.87,0-34.52,9.64-9.64,24.87-9.64,34.52,0l23.86,23.86,94.92-94.92c9.64-9.64,24.87-9.64,34.52,0,9.64,9.64,9.64,24.87,0,34.52l-112.18,112.18c-4.57,4.57-11.17,7.11-17.26,7.11h0Z"/>
      </g>
    </g>
    <path class="cls-1" d="M1734.65.85l165-.85c558.54,25.59,1095.75,328.73,1414.16,786.07,228.49,328.22,349.68,740.14,322.83,1139.26-6.52,96.46-34.06,291.84-74.2,376.26-37.28,78.47-140.38,99.95-205.71,40.8-60.2-54.54-43.31-119.55-25.66-189.18l20.24-91.07c96.34-527.48-119.31-1070.63-520.29-1421.62-370.41-324.22-869.82-441.14-1346.73-339.38C711.3,466.07,217.28,1169.1,271.18,1942.02c5.17,204.88,103.37,479.25,203.65,652.3,316.34,545.88,956.72,851.17,1577.45,756.15l94.65-16.5c47.12-9.18,97.19-20.92,140.87,6.54,62.16,39.09,86.33,122.68,43.95,185.3-31.59,46.68-84.48,60.79-136.72,71.09l-106.2,17.65c-128.88,16.02-264.05,22.63-393.95,13.6-709.58-49.34-1355.84-534.06-1590.38-1207.18-56.24-161.38-87.73-331.69-100.15-501.95C-53.39,1127.43,468.83,359.71,1215.04,101.95,1382.57,44.08,1558.18,13.3,1734.65.85h0Z"/>
  </g>
</svg>