<?xml version="1.0" encoding="UTF-8"?>
<svg id="Camada_2" data-name="Camada 2" xmlns="http://www.w3.org/2000/svg" viewBox="0 0 3640.32 3632.23">
  <defs>
    <style>
      .cls-1 {
        fill: #000;
      }

      .cls-1, .cls-2 {
        stroke-width: 0px;
      }

      .cls-2 {
        fill: #fff;
      }
    </style>
  </defs>
  <g id="illustration">
    <g id="_1" data-name="1">
      <g>
        <g id="_14" data-name="14">
          <path class="cls-1" d="M2423.91,1505.01H863.84c-53.22,0-96.34,43.12-96.34,96.34v1197.39c0,53.22,43.12,96.34,96.34,96.34h1560.07c137.49,0,248.92-111.44,248.92-248.88v-892.3c0-137.45-111.44-248.88-248.92-248.88ZM1631,1819.04h-414.35,414.35Z"/>
          <g>
            <path class="cls-1" d="M2223.08,1944.08h479.92c5.86,0,10.63,4.76,10.63,10.63v459.32c0,5.86-4.76,10.63-10.63,10.63h-479.92c-85.04,0-154.08-69.04-154.08-154.08v-172.41c0-85.04,69.04-154.08,154.08-154.08Z"/>
            <path class="cls-2" d="M2705.26,2447.55h-514.92c-79.53,0-144.23-64.7-144.23-144.23v-237.9c0-79.53,64.7-144.23,144.23-144.23h514.92c17.24,0,31.26,14.02,31.26,31.26v463.84c0,17.24-14.02,31.26-31.26,31.26ZM2190.34,1966.98c-54.28,0-98.44,44.16-98.44,98.44v237.9c0,54.28,44.16,98.44,98.44,98.44h500.4v-434.78h-500.4Z"/>
          </g>
          <circle class="cls-2" cx="2346.44" cy="2177.26" r="106.08"/>
        </g>
        <path class="cls-1" d="M2747.48,756.95l52.25,105.87c5.18,10.49,15.18,17.76,26.75,19.44l116.83,16.98c29.14,4.23,40.78,40.05,19.69,60.61l-84.54,82.41c-8.37,8.16-12.2,19.92-10.22,31.45l19.96,116.36c4.98,29.03-25.49,51.16-51.56,37.46l-104.5-54.94c-10.35-5.44-22.72-5.44-33.07,0l-104.5,54.94c-26.07,13.7-56.53-8.43-51.56-37.46l19.96-116.36c1.98-11.53-1.84-23.29-10.22-31.45l-84.54-82.41c-21.09-20.56-9.45-56.37,19.69-60.61l116.83-16.98c11.57-1.68,21.58-8.95,26.75-19.44l52.25-105.87c13.03-26.41,50.69-26.41,63.73,0Z"/>
        <path class="cls-1" d="M2106.98,908.43l60.29,122.16c5.97,12.1,17.52,20.49,30.87,22.43l134.81,19.59c33.63,4.89,47.06,46.21,22.72,69.93l-97.55,95.09c-9.66,9.42-14.07,22.99-11.79,36.29l23.03,134.26c5.74,33.49-29.41,59.03-59.49,43.22l-120.58-63.39c-11.94-6.28-26.21-6.28-38.16,0l-120.58,63.39c-30.08,15.81-65.23-9.73-59.49-43.22l23.03-134.26c2.28-13.3-2.13-26.87-11.79-36.29l-97.55-95.09c-24.33-23.72-10.91-65.04,22.72-69.93l134.81-19.59c13.35-1.94,24.9-10.33,30.87-22.43l60.29-122.16c15.04-30.47,58.49-30.47,73.53,0Z"/>
        <g>
          <path class="cls-2" d="M1739.11,1600.19l-107.76,105.01c-10.68,10.41-15.56,25.39-13,40.06l12.66,73.77h-414.35l12.66-73.77c2.52-14.67-2.36-29.65-13.04-40.06l-107.72-105.01c-26.9-26.2-12.04-71.84,25.08-77.26l123.32-17.92,25.59-3.72c14.75-2.13,27.48-11.42,34.1-24.77l66.58-134.93c16.6-33.64,64.6-33.64,81.21,0l66.61,134.93c6.58,13.35,19.31,22.64,34.06,24.77l25.58,3.72,123.32,17.92c37.16,5.42,51.98,51.05,25.12,77.26Z"/>
          <path class="cls-1" d="M1631,1841.94h-414.35c-6.75,0-13.15-2.98-17.5-8.14-4.35-5.16-6.2-11.98-5.06-18.63l12.66-73.77c1.24-7.24-1.17-14.64-6.46-19.79l-107.72-105.01c-18.71-18.23-25.34-45-17.27-69.85,8.07-24.88,29.15-42.68,55.03-46.45l148.92-21.64c7.28-1.05,13.59-5.64,16.88-12.28l66.56-134.89c11.57-23.44,34.99-37.99,61.13-37.99,26.14,0,49.57,14.56,61.13,37.99l66.61,134.93c3.27,6.63,9.54,11.2,16.8,12.25l148.93,21.64c25.89,3.78,46.98,21.56,55.05,46.43,8.07,24.85,1.47,51.63-17.24,69.88,0,0,0,0,0,0l-107.76,105.01c-5.28,5.15-7.68,12.53-6.43,19.74l12.67,73.83c1.14,6.65-.71,13.47-5.06,18.63-4.35,5.16-10.76,8.14-17.5,8.14ZM1243.81,1796.15h360.04l-8.07-47.01c-3.84-22.05,3.48-44.63,19.59-60.33l107.76-105.01c6.23-6.08,8.34-14.66,5.65-22.95-2.69-8.3-9.46-14-18.1-15.26l-148.89-21.63c-22.19-3.2-41.38-17.15-51.31-37.31l-66.61-134.92c-3.85-7.81-11.36-12.47-20.07-12.47s-16.22,4.66-20.07,12.47l-66.57,134.93c-10,20.17-29.19,34.1-51.36,37.3l-148.88,21.63c-8.62,1.26-15.38,6.97-18.07,15.27-2.69,8.28-.57,16.85,5.67,22.93l107.73,105.02c16.08,15.67,23.42,38.22,19.63,60.33l-8.07,47.01Z"/>
        </g>
      </g>
      <rect class="cls-2" x="911.68" y="1796.15" width="1544.4" height="45.79"/>
    </g>
    <path class="cls-1" d="M1734.65.85l165-.85c558.54,25.59,1095.75,328.73,1414.16,786.07,228.49,328.22,349.68,740.14,322.83,1139.26-6.52,96.46-34.06,291.84-74.2,376.26-37.28,78.47-140.38,99.95-205.71,40.8-60.2-54.54-43.31-119.55-25.66-189.18l20.24-91.07c96.34-527.48-119.31-1070.63-520.29-1421.62-370.41-324.22-869.82-441.14-1346.73-339.38C711.3,466.07,217.28,1169.1,271.18,1942.02c5.17,204.88,103.37,479.25,203.65,652.3,316.34,545.88,956.72,851.17,1577.45,756.15l94.65-16.5c47.12-9.18,97.19-20.92,140.87,6.54,62.16,39.09,86.32,122.68,43.95,185.3-31.59,46.68-84.48,60.79-136.72,71.09l-106.2,17.65c-128.88,16.02-264.05,22.63-393.95,13.6-709.58-49.34-1355.84-534.06-1590.38-1207.18-56.24-161.38-87.73-331.69-100.15-501.95C-53.39,1127.43,468.83,359.71,1215.04,101.95,1382.57,44.08,1558.18,13.3,1734.65.85h0Z"/>
  </g>
</svg>