<?xml version="1.0" encoding="UTF-8"?>
<svg id="Camada_2" data-name="Camada 2" xmlns="http://www.w3.org/2000/svg" viewBox="0 0 3640.32 3632.23">
  <defs>
    <style>
      .cls-1 {
        fill: #5b8ae6;
      }

      .cls-1, .cls-2, .cls-3 {
        stroke-width: 0px;
      }

      .cls-1, .cls-3 {
        fill-rule: evenodd;
      }

      .cls-2, .cls-3 {
        fill: #000;
      }
    </style>
  </defs>
  <g id="Layer_1" data-name="Layer 1">
    <g id="Layer_1-2" data-name="Layer_1">
      <g id="_526436976" data-name=" 526436976">
        <path id="_520891352" data-name=" 520891352" class="cls-1" d="M2678.48,1022.5c0,25.97,21.13,47.1,47.1,47.1s47.1-21.13,47.1-47.1-21.13-47.1-47.1-47.1c-25.97.07-47.1,21.2-47.1,47.1h0Z"/>
        <path id="_520890992" data-name=" 520890992" class="cls-1" d="M2358.73,1022.5c0,25.97,21.13,47.1,47.1,47.1s47.1-21.13,47.1-47.1-21.13-47.1-47.1-47.1c-26.04.07-47.1,21.2-47.1,47.1Z"/>
        <path id="_520890896" data-name=" 520890896" class="cls-1" d="M2038.92,1022.5c0,25.97,21.13,47.1,47.1,47.1s47.1-21.13,47.1-47.1-21.13-47.1-47.1-47.1c-25.97.07-47.1,21.2-47.1,47.1h0Z"/>
        <path id="_526437552" data-name=" 526437552" class="cls-3" d="M718.84,955.62v220.36h2231.95v-220.36c0-47.71-38.82-86.46-86.46-86.46H805.37c-47.64,0-86.53,38.76-86.53,86.46h0ZM1985.36,1022.5c0-55.44,45.15-100.66,100.66-100.66s100.66,45.15,100.66,100.66-45.15,100.66-100.66,100.66-100.66-45.15-100.66-100.66ZM2305.17,1022.5c0-55.44,45.15-100.66,100.66-100.66s100.66,45.15,100.66,100.66-45.15,100.66-100.66,100.66c-55.51.07-100.66-45.15-100.66-100.66h0ZM2624.92,1022.5c0-55.44,45.15-100.66,100.66-100.66s100.73,45.15,100.73,100.66-45.15,100.66-100.66,100.66c-55.51.07-100.73-45.15-100.73-100.66h0Z"/>
        <path id="_526437528" data-name=" 526437528" class="cls-1" d="M1269.04,1448.22v202.13l195.2-52.35c-31.83-80.54-106.18-139.75-195.2-149.78h0Z"/>
        <path id="_526437384" data-name=" 526437384" class="cls-1" d="M1003.79,1685.2c0,131.48,106.98,238.46,238.46,238.46s238.46-106.98,238.46-238.46c0-12.04-.87-23.89-2.62-35.46l-228.91,61.36c-2.29.61-4.64.87-6.93.87-5.79,0-11.57-1.88-16.28-5.52-6.59-5.11-10.5-12.92-10.5-21.26v-236.91c-118.96,13.26-211.68,114.52-211.68,236.91h0Z"/>
        <polygon id="_526437408" data-name=" 526437408" class="cls-1" points="2057.16 1586.23 2057.16 1879.93 2354.7 1879.93 2354.7 1586.23 2057.16 1586.23"/>
        <polygon id="_526436592" data-name=" 526436592" class="cls-1" points="1706.66 2230.56 1706.66 2580.11 1820.71 2580.11 1820.71 2230.56 1706.66 2230.56"/>
        <polygon id="_526437168" data-name=" 526437168" class="cls-1" points="1355.23 2099.01 1355.23 2580.11 1469.21 2580.11 1469.21 2099.01 1355.23 2099.01"/>
        <polygon id="_526437144" data-name=" 526437144" class="cls-1" points="1003.79 2230.56 1003.79 2580.11 1117.84 2580.11 1117.84 2230.56 1003.79 2230.56"/>
        <path id="_526436904" data-name=" 526436904" class="cls-3" d="M718.84,1229.47v1481.3c0,47.64,38.82,86.46,86.46,86.46h2058.96c47.64,0,86.46-38.82,86.46-86.46v-1481.3H718.84ZM1301.6,2606.89v-534.66c0-14.8,11.98-26.78,26.78-26.78h167.61c14.8,0,26.78,11.98,26.78,26.78v534.66c0,14.8-11.98,26.78-26.78,26.78h-167.61c-14.74,0-26.78-11.98-26.78-26.78h0ZM1653.04,2606.89v-403.11c0-14.87,11.98-26.78,26.78-26.78h167.68c14.8,0,26.78,11.91,26.78,26.78v403.11c0,14.8-11.98,26.78-26.78,26.78h-167.61c-14.8,0-26.85-11.98-26.85-26.78h0ZM2022.37,2516.25h670.3c14.8,0,26.78,11.98,26.78,26.78s-11.98,26.78-26.78,26.78h-670.3c-14.8,0-26.78-11.98-26.78-26.78s11.98-26.78,26.78-26.78h0ZM2022.37,2312.78h670.3c14.8,0,26.78,11.98,26.78,26.78s-11.98,26.78-26.78,26.78h-670.3c-14.8,0-26.78-11.98-26.78-26.78s11.98-26.78,26.78-26.78h0ZM1995.59,2136.09c0-14.8,11.98-26.78,26.78-26.78h670.3c14.8,0,26.78,11.98,26.78,26.78s-11.98,26.78-26.78,26.78h-670.3c-14.8,0-26.78-11.98-26.78-26.78h0ZM976.95,2176.93h167.68c14.8,0,26.78,11.91,26.78,26.78v403.11c0,14.8-12.04,26.78-26.78,26.78h-167.61c-14.8,0-26.85-11.98-26.85-26.78v-403.11c.07-14.8,12.04-26.71,26.78-26.78h0ZM2381.48,1933.56h-351.17c-14.8,0-26.78-11.98-26.78-26.78v-347.33c0-14.8,11.98-26.78,26.78-26.78h351.17c14.8,0,26.78,11.98,26.78,26.78v347.33c0,14.74-11.98,26.78-26.78,26.78h0ZM2692.74,1889.42h-207.51c-14.8,0-26.78-11.91-26.78-26.78s11.98-26.78,26.78-26.78h207.51c14.8,0,26.78,11.98,26.78,26.78s-12.04,26.78-26.78,26.78ZM2692.74,1688.03h-207.51c-14.8,0-26.78-11.98-26.78-26.78s11.98-26.78,26.78-26.78h207.51c14.8,0,26.78,11.98,26.78,26.78s-12.04,26.78-26.78,26.78h0ZM1242.26,1977.23c-161.02,0-292.02-130.94-292.02-292.02s131.01-292.02,292.02-292.02,292.02,131.01,292.02,292.02-131.01,292.02-292.02,292.02ZM2692.74,1446.74h-698.09c-14.87,0-26.78-11.91-26.78-26.78s11.91-26.78,26.78-26.78h698.09c14.8,0,26.78,11.98,26.78,26.78s-12.04,26.78-26.78,26.78h0Z"/>
      </g>
    </g>
    <path class="cls-2" d="M1734.65.85l165-.85c558.54,25.59,1095.75,328.73,1414.16,786.07,228.49,328.22,349.68,740.14,322.83,1139.26-6.52,96.46-34.06,291.84-74.2,376.26-37.28,78.47-140.38,99.95-205.71,40.8-60.2-54.54-43.31-119.55-25.66-189.18l20.24-91.07c96.34-527.48-119.31-1070.63-520.29-1421.62-370.41-324.22-869.82-441.14-1346.73-339.38C711.3,466.07,217.28,1169.1,271.18,1942.02c5.17,204.88,103.37,479.25,203.65,652.3,316.34,545.88,956.72,851.17,1577.45,756.15l94.65-16.5c47.12-9.18,97.19-20.92,140.87,6.54,62.16,39.09,86.32,122.68,43.95,185.3-31.59,46.68-84.48,60.79-136.72,71.09l-106.2,17.65c-128.88,16.02-264.05,22.63-393.95,13.6-709.58-49.34-1355.84-534.06-1590.38-1207.18-56.24-161.38-87.73-331.69-100.15-501.95C-53.39,1127.43,468.83,359.71,1215.04,101.95,1382.57,44.08,1558.18,13.3,1734.65.85h0Z"/>
  </g>
</svg>