<?xml version="1.0" encoding="UTF-8"?>
<svg id="Camada_2" data-name="Camada 2" xmlns="http://www.w3.org/2000/svg" viewBox="0 0 3640.32 3632.23">
  <defs>
    <style>
      .cls-1 {
        fill: #000;
        stroke-width: 0px;
      }
    </style>
  </defs>
  <g id="Layer_1" data-name="Layer 1">
    <g>
      <path class="cls-1" d="M2013.19,2944.26l44.15-228.87c92.45-22,179.64-57.49,259.33-104.52l190.21,134.42c26.01,21.53,64.04,19.92,88.08-3.75l172.97-169.44c24.15-23.67,26.51-61.66,5.62-88.1l-130.6-193.07c48.61-78.96,85.95-165.53,109.68-257.75l229.26-38.92c33.64-3.19,59.48-31.25,59.82-65.08l2.41-241.86c.34-33.83-24.83-62.4-58.4-66.15l-228.54-43.82c-22.1-92.78-57.81-180.3-104.95-260.33l134.64-189.77c21.53-26.01,20.03-64.15-3.64-88.3l-169.34-172.75c-23.67-24.15-61.77-26.51-88.21-5.4l-192.63,130.72c-79.07-48.72-165.86-86.17-258.29-110.01l-38.92-229.26c-3.08-33.64-31.25-59.48-64.97-59.82l-241.97-2.41c-33.72-.34-62.29,24.94-66.15,58.4l-43.82,228.65c-92.78,21.99-180.3,57.71-260.33,104.84l-189.77-134.64c-26.01-21.53-64.04-19.92-88.19,3.75l-172.86,169.33c-24.04,23.67-26.4,61.66-5.4,88.1l130.72,192.63c-48.61,78.96-85.95,165.64-109.79,257.75l-229.59,39.36c-33.53,3.19-59.37,31.25-59.71,64.97l-2.42,242.19c-.34,33.72,24.83,62.29,58.29,66.15l228.87,44.26c22,92.45,57.6,179.64,104.52,259.33l-134.42,190.1c-21.53,26.01-19.92,64.04,3.75,88.19l169.55,172.97c23.56,24.04,61.55,26.51,87.99,5.5l193.07-130.49c78.74,48.5,165.31,85.73,257.2,109.56l39.36,229.48c3.3,33.64,31.25,59.37,65.08,59.71l242.19,2.42c33.71.34,62.18-24.83,66.15-58.29ZM1439.78,2186.6c-215.64-219.88-212.11-572.97,7.86-788.5,219.88-215.53,572.86-212.01,788.39,7.86,215.53,219.87,212.01,572.96-7.86,788.5-219.87,215.53-572.86,212.01-788.39-7.86Z"/>
      <path class="cls-1" d="M1734.65.85l165-.85c558.54,25.59,1095.75,328.73,1414.16,786.07,228.49,328.22,349.68,740.14,322.83,1139.26-6.52,96.46-34.06,291.84-74.2,376.26-37.28,78.47-140.38,99.95-205.71,40.8-60.2-54.54-43.31-119.55-25.66-189.18l20.24-91.07c96.34-527.48-119.31-1070.63-520.29-1421.62-370.41-324.22-869.82-441.14-1346.73-339.38C711.3,466.07,217.28,1169.1,271.18,1942.02c5.17,204.88,103.37,479.25,203.65,652.3,316.34,545.88,956.72,851.17,1577.45,756.15l94.65-16.5c47.12-9.18,97.19-20.92,140.87,6.54,62.16,39.09,86.33,122.68,43.95,185.3-31.59,46.68-84.48,60.79-136.72,71.09l-106.2,17.65c-128.88,16.02-264.05,22.63-393.95,13.6-709.58-49.34-1355.84-534.06-1590.38-1207.18-56.24-161.38-87.73-331.69-100.15-501.95C-53.39,1127.43,468.83,359.71,1215.04,101.95,1382.57,44.08,1558.18,13.3,1734.65.85h0Z"/>
    </g>
  </g>
</svg>