<?xml version="1.0" encoding="UTF-8"?>
<svg id="Camada_2" data-name="Camada 2" xmlns="http://www.w3.org/2000/svg" viewBox="0 0 3640.32 3632.23">
  <defs>
    <style>
      .cls-1 {
        fill: #5b8ae6;
      }

      .cls-1, .cls-2, .cls-3 {
        stroke-width: 0px;
      }

      .cls-1, .cls-3 {
        fill-rule: evenodd;
      }

      .cls-2 {
        fill: #000;
      }

      .cls-3 {
        fill: #2b2b2b;
      }
    </style>
  </defs>
  <g id="Layer_1" data-name="Layer 1">
    <g id="Layer_1-2" data-name="Layer_1">
      <g id="_488711720" data-name=" 488711720">
        <path id="_488712656" data-name=" 488712656" class="cls-1" d="M1798.98,2169.47v283.66c0,24.56-20.11,44.67-44.67,44.67h-43.78l151.44,163.78,151.44-163.78h-43.78c-24.56,0-43.78-20.11-43.78-44.67v-284.55h-127v.89h.11Z"/>
        <path id="_488713160" data-name=" 488713160" class="cls-3" d="M2014.31,2151.14v258.33h100.67c17.56,0,33.22,10.56,40.22,26.22,7,15.78,3.56,35-7.89,48.11l-253,273.22c-8.78,8.78-20.11,14-32.44,14h0c-12.22,0-24.56-5.22-32.44-14l-252-273.22c-12.22-13.11-14.89-31.56-7.89-48.11,7-15.78,22.78-26.22,40.22-26.22h100.67v-258.33c0-38.55,31.56-70,70-70h162.89c39.44-.11,71,31.44,71,70h0ZM2722.64,1982.14H1003.11l742.43,901.76c6.11,7.89,10.56,17.56,10.56,28v275.77h213.55v-275.77c0-10.56,3.56-20.11,9.67-28l743.32-901.76h0Z"/>
        <path id="_488712704" data-name=" 488712704" class="cls-3" d="M2816.3,1758.03H908.55c-36.78,0-67.44,30.67-67.44,67.44s29.78,67.44,66.55,67.44h1907.86c36.78,0,66.55-30.67,66.55-67.44,1.67-36.78-29-67.44-65.78-67.44Z"/>
        <path id="_488713208" data-name=" 488713208" class="cls-3" d="M2380.31,809.82c0,88.44,71.78,160.22,160.22,160.22s160.22-71.78,160.22-160.22-71.78-160.22-160.22-160.22c-88.44.89-160.22,72.67-160.22,160.22Z"/>
        <path id="_488713136" data-name=" 488713136" class="cls-1" d="M1709.65,909.6c0,88.44,71.78,160.22,160.22,160.22h0c88.44,0,160.22-71.78,160.22-160.22s-71.78-160.22-160.22-160.22c-88.44,0-160.22,71.78-160.22,160.22Z"/>
        <path id="_488712728" data-name=" 488712728" class="cls-3" d="M1025,809.82c0,88.44,71.78,160.22,160.22,160.22s160.22-71.78,160.22-160.22-71.78-160.22-160.22-160.22c-88.44.89-160.22,72.67-160.22,160.22Z"/>
        <path id="_488712536" data-name=" 488712536" class="cls-3" d="M1063.44,1058.49c-122.55,0-222.44,99.78-222.44,222.44v74.44h596.21c.89-67.44,25.44-128.66,64.78-177.78-37.67-71.78-113.78-118.22-197-118.22l-241.55-.89h0Z"/>
        <path id="_488712176" data-name=" 488712176" class="cls-1" d="M1728.87,1157.37c-112.11,0-203.11,91.11-203.11,203.11v93.67h687.32v-93.67c0-112.11-91.11-203.11-203.11-203.11h-281.11Z"/>
        <path id="_488712104" data-name=" 488712104" class="cls-3" d="M2418.86,1058.49c-78.78,0-151.44,42-190.89,108.55,44.67,49.89,72.67,115.55,73.55,188.22h582.21v-74.44c0-122.55-99.78-222.44-222.33-222.44h-242.55v.11Z"/>
      </g>
    </g>
    <path class="cls-2" d="M1734.65.85l165-.85c558.54,25.59,1095.75,328.73,1414.16,786.07,228.49,328.22,349.68,740.14,322.83,1139.26-6.52,96.46-34.06,291.84-74.2,376.26-37.28,78.47-140.38,99.95-205.71,40.8-60.2-54.54-43.31-119.55-25.66-189.18l20.24-91.07c96.34-527.48-119.31-1070.63-520.29-1421.62-370.41-324.22-869.82-441.14-1346.73-339.38C711.3,466.07,217.28,1169.1,271.18,1942.02c5.17,204.88,103.37,479.25,203.65,652.3,316.34,545.88,956.72,851.17,1577.45,756.15l94.65-16.5c47.12-9.18,97.19-20.92,140.87,6.54,62.16,39.09,86.32,122.68,43.95,185.3-31.59,46.68-84.48,60.79-136.72,71.09l-106.2,17.65c-128.88,16.02-264.05,22.63-393.95,13.6-709.58-49.34-1355.84-534.06-1590.38-1207.18-56.24-161.38-87.73-331.69-100.15-501.95C-53.39,1127.43,468.83,359.71,1215.04,101.95,1382.57,44.08,1558.18,13.3,1734.65.85h0Z"/>
  </g>
</svg>