<?xml version="1.0" encoding="UTF-8"?>
<svg id="Camada_2" data-name="Camada 2" xmlns="http://www.w3.org/2000/svg" viewBox="0 0 1596.83 1593.28">
  <defs>
    <style>
      .cls-1, .cls-2, .cls-3 {
        stroke-width: 0px;
      }

      .cls-1, .cls-3 {
        fill: #000;
      }

      .cls-2 {
        fill: #67cdfd;
      }

      .cls-2, .cls-3 {
        fill-rule: evenodd;
      }
    </style>
  </defs>
  <g id="_46" data-name="46">
    <g>
      <path class="cls-3" d="M591.39,528.08h0c-7.38,0-13.34-5.9-13.34-17.7,0-8.85,5.96-16.23,13.34-16.23h676.22c7.38,0,13.27,7.38,13.27,16.23,0,11.8-5.9,17.7-13.27,17.7h-676.22Z"/>
      <path class="cls-3" d="M332.99,721.52h146.2c5.9,0,17.69,7.37,17.69,17.7v146.22c0,5.88-11.8,13.21-17.69,13.21h-146.2c-5.9,0-17.69-7.33-17.69-13.21v-146.22c0-10.33,11.8-17.7,17.69-17.7h0Z"/>
      <path class="cls-3" d="M591.39,827.83h0c-7.38,0-13.34-7.4-13.34-17.73,0-5.93,5.96-13.3,13.34-13.3h676.22c7.38,0,13.27,7.37,13.27,13.3,0,10.33-5.9,17.73-13.27,17.73h-676.22Z"/>
      <path class="cls-3" d="M332.99,1024.2h146.2c5.9,0,17.69,7.38,17.69,13.27v147.68c0,8.84-11.8,16.22-17.69,16.22h-146.2c-5.9,0-17.69-7.38-17.69-16.22v-147.68c0-5.9,11.8-13.27,17.69-13.27h0Z"/>
      <path class="cls-3" d="M591.39,1126.04h0c-7.38,0-13.34-5.9-13.34-13.23,0-10.38,5.96-17.74,13.34-17.74h676.22c7.38,0,13.27,7.36,13.27,17.74,0,7.33-5.9,13.23-13.27,13.23h-676.22Z"/>
      <path class="cls-3" d="M332.99,423.27h146.2c5.9,0,17.69,5.89,17.69,16.25v143.19c0,10.36-11.8,16.28-17.69,16.28h-146.2c-5.9,0-17.69-5.93-17.69-16.28v-143.19c0-10.36,11.8-16.25,17.69-16.25h0Z"/>
      <polygon class="cls-2" points="461.42 452.8 461.42 452.8 350.68 452.8 350.68 569.42 461.42 569.42 461.42 452.8"/>
      <polygon class="cls-2" points="461.42 752.52 461.42 752.52 350.68 752.52 350.68 867.68 461.42 867.68 461.42 752.52"/>
      <polygon class="cls-2" points="461.42 1055.23 461.42 1055.23 350.68 1055.23 350.68 1167.45 461.42 1167.45 461.42 1055.23"/>
    </g>
  </g>
  <g id="Layer_1" data-name="Layer 1">
    <path class="cls-1" d="M760.91.37l72.38-.37c245.01,11.22,480.65,144.2,620.32,344.81,100.23,143.97,153.39,324.66,141.61,499.74-2.86,42.31-14.94,128.02-32.55,165.05-16.35,34.42-61.58,43.84-90.24,17.9-26.41-23.92-19-52.44-11.26-82.99l8.88-39.95c42.26-231.38-52.34-469.63-228.23-623.6-162.48-142.22-381.55-193.51-590.74-148.87C312.01,204.44,95.31,512.83,118.95,851.87c2.27,89.87,45.34,210.22,89.33,286.13,138.76,239.45,419.66,373.37,691.95,331.69l41.52-7.24c20.67-4.03,42.63-9.18,61.79,2.87,27.27,17.15,37.87,53.81,19.28,81.28-13.86,20.48-37.06,26.67-59.97,31.19l-46.59,7.74c-56.53,7.03-115.82,9.93-172.81,5.96-311.26-21.64-594.74-234.26-697.62-529.53C21.17,991.18,7.36,916.47,1.91,841.78-23.42,494.55,205.65,157.79,532.98,44.72,606.47,19.34,683.5,5.83,760.91.37h0Z"/>
  </g>
</svg>