<?xml version="1.0" encoding="UTF-8"?>
<svg id="Camada_2" data-name="Camada 2" xmlns="http://www.w3.org/2000/svg" viewBox="0 0 2385.58 2240">
  <defs>
    <style>
      .cls-1 {
        fill: #282e5b;
        stroke-width: 0px;
      }
    </style>
  </defs>
  <g id="_Layer_" data-name="&amp;lt;Layer&amp;gt;">
    <g>
      <path class="cls-1" d="M2283.35,377.15c0-125.74-101.93-227.68-227.67-227.68h-132.09v-47.13c0-56.43-45.91-102.35-102.35-102.35s-102.34,45.91-102.34,102.35v47.13h-185.39v-47.13c0-56.43-45.91-102.35-102.35-102.35s-102.35,45.91-102.35,102.35v47.13h-374.28v-47.13c0-56.43-45.91-102.35-102.35-102.35s-102.34,45.91-102.34,102.35v47.13h-185.39v-47.13c0-56.43-45.91-102.35-102.35-102.35s-102.34,45.91-102.34,102.35v47.13h-132.09C101.93,149.47,0,251.41,0,377.15v1568.46c0,125.74,101.93,227.65,227.67,227.65h1886.41l-36.83-54.75h.08l-40.22-59.84H227.67c-62.34,0-113.06-50.73-113.06-113.06V377.15c0-62.36,50.73-113.06,113.06-113.06h132.09v45.24c0,56.43,45.91,102.35,102.34,102.35s102.35-45.91,102.35-102.35v-45.24h185.39v45.24c0,56.43,45.91,102.35,102.35,102.35s102.35-45.91,102.35-102.35v-45.24h374.28v45.24c0,56.43,45.91,102.35,102.35,102.35s102.35-45.91,102.35-102.35v-45.24h185.39v45.24c0,56.43,45.91,102.35,102.35,102.35s102.35-45.91,102.35-102.35v-45.24h132.09c62.36,0,113.06,50.7,113.06,113.06v347.84h114.61s0-347.84,0-347.84Z"/>
      <path class="cls-1" d="M445.47,620.72h243.8c33.43,0,60.57,27.14,60.57,60.57v193.63c0,33.43-27.14,60.57-60.57,60.57h-243.8c-33.43,0-60.57-27.14-60.57-60.57v-193.63c0-33.43,27.14-60.57,60.57-60.57Z"/>
      <path class="cls-1" d="M1019.78,620.72h243.8c33.43,0,60.57,27.14,60.57,60.57v193.63c0,33.43-27.14,60.57-60.57,60.57h-243.8c-33.43,0-60.57-27.14-60.57-60.57v-193.63c0-33.43,27.14-60.57,60.57-60.57Z"/>
      <path class="cls-1" d="M1594.08,620.72h243.8c33.43,0,60.57,27.14,60.57,60.57v193.63c0,33.43-27.14,60.57-60.57,60.57h-243.8c-33.43,0-60.57-27.14-60.57-60.57v-193.63c0-33.43,27.14-60.57,60.57-60.57Z"/>
      <path class="cls-1" d="M445.47,1076.55h243.8c33.43,0,60.57,27.14,60.57,60.57v193.63c0,33.43-27.14,60.57-60.57,60.57h-243.8c-33.43,0-60.57-27.14-60.57-60.57v-193.63c0-33.43,27.14-60.57,60.57-60.57Z"/>
      <path class="cls-1" d="M1141.61,1005.68c-125.96,0-228.19,102.23-228.19,228.19s102.23,228.33,228.19,228.33,228.32-102.24,228.32-228.33-102.23-228.19-228.32-228.19ZM1120.53,1343.98l-106.79-106.79,45.34-45.36,61.44,61.45,112.34-112.56,45.6,45.61-157.93,157.64Z"/>
      <path class="cls-1" d="M1594.08,1076.55h243.8c33.43,0,60.57,27.14,60.57,60.57v193.63c0,33.43-27.14,60.57-60.57,60.57h-243.8c-33.43,0-60.57-27.14-60.57-60.57v-193.63c0-33.43,27.14-60.57,60.57-60.57Z"/>
      <path class="cls-1" d="M445.47,1532.39h243.8c33.43,0,60.57,27.14,60.57,60.57v193.63c0,33.43-27.14,60.57-60.57,60.57h-243.8c-33.43,0-60.57-27.14-60.57-60.57v-193.63c0-33.43,27.14-60.57,60.57-60.57Z"/>
      <path class="cls-1" d="M1019.78,1532.39h243.8c33.43,0,60.57,27.14,60.57,60.57v193.63c0,33.43-27.14,60.57-60.57,60.57h-243.8c-33.43,0-60.57-27.14-60.57-60.57v-193.63c0-33.43,27.14-60.57,60.57-60.57Z"/>
      <path class="cls-1" d="M1594.08,1532.39h243.8c33.43,0,60.57,27.14,60.57,60.57v193.63c0,33.43-27.14,60.57-60.57,60.57h-243.8c-33.43,0-60.57-27.14-60.57-60.57v-193.63c0-33.43,27.14-60.57,60.57-60.57Z"/>
      <polygon class="cls-1" points="2066.52 1109.41 2066.52 1893.06 2066.52 1970.66 2385.58 1970.66 2385.58 1893.06 2385.58 1109.41 2066.52 1109.41"/>
      <polygon class="cls-1" points="2164.63 2148.58 2287.47 2148.58 2365.5 2032.48 2385.58 2002.61 2066.52 2002.61 2086.59 2032.48 2164.63 2148.58"/>
      <polygon class="cls-1" points="2226.07 2240 2270.29 2174.19 2181.81 2174.19 2226.07 2240"/>
      <path class="cls-1" d="M2316.63,875.3v-55.1c0-21.83-17.7-39.53-39.53-39.53h-102.11c-21.83,0-39.53,17.7-39.53,39.53v55.1h181.16Z"/>
      <path class="cls-1" d="M2336.2,906.93h-220.29c-27.28,0-49.39,22.11-49.39,49.39v121.47h319.06v-121.47c0-27.27-22.11-49.39-49.38-49.39Z"/>
    </g>
  </g>
</svg>