<?xml version="1.0" encoding="UTF-8"?>
<svg id="Camada_2" data-name="Camada 2" xmlns="http://www.w3.org/2000/svg" viewBox="0 0 3640.32 3632.23">
  <defs>
    <style>
      .cls-1, .cls-2 {
        fill: #000;
        stroke-width: 0px;
      }

      .cls-2 {
        fill-rule: evenodd;
      }
    </style>
  </defs>
  <g id="Layer_1" data-name="Layer 1">
    <g id="Layer_1-2" data-name="Layer_1">
      <g id="_492035472" data-name=" 492035472">
        <path id="_492409616" data-name=" 492409616" class="cls-2" d="M1574.38,965.03h-227.44c-21.63,0-39.2-17.55-39.2-39.19s17.55-39.19,39.19-39.19h227.45c21.63,0,39.16,17.55,39.16,39.19.01,21.64-17.55,39.19-39.16,39.19ZM1986.21,965.03h-227.37c-21.63,0-39.21-17.55-39.21-39.19,0-21.64,17.55-39.19,39.19-39.19h227.39c21.63,0,39.18,17.55,39.18,39.19.02,21.64-17.55,39.19-39.18,39.19h0ZM2398.07,965.03h-227.4c-21.63,0-39.19-17.55-39.19-39.19.02-21.64,17.55-39.19,39.19-39.19h227.4c21.68,0,39.17,17.55,39.17,39.19,0,21.64-17.5,39.19-39.17,39.19ZM1233.13,2643.03h-303.04c-58.9,0-106.82-47.91-106.82-106.8l.02-1542.78c0-58.89,47.9-106.8,106.78-106.8h232.4c21.63,0,39.17,17.55,39.17,39.19s-17.55,39.19-39.19,39.19h-232.36c-15.66,0-28.44,12.76-28.44,28.42v1542.78c.01,15.67,12.76,28.42,28.42,28.42h303.05c21.65,0,39.19,17.55,39.19,39.19,0,21.64-17.55,39.19-39.19,39.19h0ZM2814.91,2643.03h-303.02c-21.68,0-39.19-17.55-39.19-39.19.02-21.64,17.5-39.19,39.19-39.19h303.02c15.7,0,28.46-12.76,28.46-28.42V993.45c.01-15.67-12.76-28.42-28.47-28.42h-232.33c-21.63,0-39.2-17.55-39.2-39.19s17.55-39.19,39.19-39.19h232.35c58.94,0,106.84,47.92,106.84,106.8v1542.78c0,58.89-47.92,106.8-106.84,106.8h0Z"/>
        <path id="_492409544" data-name=" 492409544" class="cls-2" d="M1254.71,797.96c-29.28,0-53.07,23.83-53.07,53.07v288.26c0,29.29,23.78,53.07,53.07,53.07s53.02-23.78,53.02-53.07v-288.26c0-29.24-23.78-53.07-53.02-53.07h0ZM1254.71,1270.74c-72.45,0-131.45-58.94-131.45-131.45v-288.26c.01-72.46,58.94-131.45,131.45-131.45,72.47,0,131.4,58.99,131.4,131.45l.02,288.26c0,72.51-58.96,131.45-131.41,131.45h0Z"/>
        <path id="_492409472" data-name=" 492409472" class="cls-2" d="M1666.57,797.96c-29.23,0-53.03,23.83-53.03,53.07v288.26c.01,29.29,23.78,53.07,53.02,53.07s53.07-23.78,53.07-53.07v-288.26c0-29.24-23.83-53.07-53.06-53.07h0ZM1666.57,1270.74c-72.47,0-131.41-58.94-131.41-131.45v-288.26c.01-72.46,58.93-131.45,131.4-131.45,72.48,0,131.45,58.99,131.45,131.45v288.26c0,72.51-58.99,131.45-131.44,131.45h0Z"/>
        <path id="_492409400" data-name=" 492409400" class="cls-2" d="M2078.47,797.96c-29.3,0-53.08,23.83-53.08,53.07l.02,288.26c0,29.29,23.76,53.07,53.05,53.07s53.02-23.78,53.02-53.07l.02-288.26c0-29.24-23.8-53.07-53.04-53.07h.01s0,0,0,0ZM2078.47,1270.74c-72.51,0-131.47-58.94-131.47-131.45v-288.26c0-72.46,58.94-131.45,131.45-131.45,72.46,0,131.4,58.99,131.4,131.45v288.26c0,72.51-58.94,131.45-131.38,131.45h0Z"/>
        <path id="_492409328" data-name=" 492409328" class="cls-2" d="M2490.31,797.96c-29.23,0-53.07,23.83-53.07,53.07v288.26c0,29.29,23.83,53.07,53.07,53.07s53.06-23.78,53.06-53.07v-288.26c0-29.24-23.83-53.07-53.06-53.07h0ZM2490.31,1270.74c-72.45,0-131.45-58.94-131.45-131.45v-288.26c.01-72.46,58.99-131.45,131.45-131.45,72.47,0,131.45,58.99,131.45,131.45v288.26c.01,72.51-58.99,131.45-131.45,131.45h0Z"/>
        <path id="_492409256" data-name=" 492409256" class="cls-2" d="M1162.47,1178.48h-300.01c-21.63,0-39.19-17.5-39.19-39.19.02-21.64,17.55-39.19,39.19-39.19h300.01c21.63,0,39.17,17.55,39.17,39.19s-17.55,39.19-39.17,39.19ZM1574.38,1178.48h-227.44c-21.63,0-39.2-17.5-39.2-39.19s17.55-39.19,39.19-39.19h227.45c21.63,0,39.16,17.55,39.16,39.19.01,21.69-17.55,39.19-39.16,39.19ZM1986.21,1178.48h-227.37c-21.63,0-39.21-17.5-39.21-39.19,0-21.64,17.55-39.19,39.19-39.19h227.39c21.63,0,39.18,17.55,39.18,39.19.02,21.69-17.55,39.19-39.18,39.19h0ZM2398.07,1178.48h-227.4c-21.63,0-39.19-17.5-39.19-39.19.02-21.64,17.55-39.19,39.19-39.19h227.4c21.68,0,39.17,17.55,39.17,39.19,0,21.69-17.5,39.19-39.17,39.19ZM2882.58,1178.48h-300.01c-21.63,0-39.2-17.5-39.2-39.19s17.55-39.19,39.19-39.19h300.02c21.63,0,39.17,17.55,39.17,39.19s-17.55,39.19-39.17,39.19h0Z"/>
        <path id="_492409184" data-name=" 492409184" class="cls-2" d="M1233.13,2460.61h-188.23c-21.7,0-39.21-17.5-39.21-39.14v-1282.18c.01-21.63,17.5-39.19,39.19-39.19s39.14,17.55,39.14,39.19v1242.99h149.1c21.65,0,39.19,17.5,39.19,39.19,0,21.64-17.55,39.14-39.19,39.14h0ZM2700.14,2460.61h-188.25c-21.68,0-39.19-17.5-39.19-39.14.02-21.69,17.5-39.19,39.19-39.19h149.07v-1242.99c0-21.63,17.53-39.19,39.17-39.19s39.19,17.55,39.19,39.19v1282.18c.01,21.64-17.55,39.14-39.18,39.14h0Z"/>
        <path id="_492409112" data-name=" 492409112" class="cls-2" d="M1272.32,2914.3h1200.39v-1481.03h-1200.39s0,1481.03,0,1481.03ZM2511.89,2992.67h-1278.76c-21.63,0-39.19-17.5-39.19-39.19l.02-1559.41c0-21.64,17.54-39.19,39.17-39.19h1278.76c21.66,0,39.14,17.55,39.14,39.19l.02,1559.41c0,21.69-17.52,39.19-39.15,39.19h0Z"/>
        <path id="_492409040" data-name=" 492409040" class="cls-2" d="M1459.82,1778.51h160.83v-160.84h-160.83v160.84ZM1659.84,1856.84h-239.23c-21.63,0-39.2-17.5-39.2-39.19v-239.17c0-21.69,17.55-39.19,39.19-39.19h239.24c21.63,0,39.17,17.5,39.17,39.19v239.17c0,21.69-17.55,39.19-39.17,39.19h0Z"/>
        <path id="_492036072" data-name=" 492036072" class="cls-2" d="M2324.42,1655.59h-523.7c-21.63,0-39.19-17.55-39.19-39.19.02-21.64,17.55-39.19,39.19-39.19h523.71c21.63,0,39.18,17.55,39.18,39.19.02,21.63-17.55,39.19-39.18,39.19h0Z"/>
        <path id="_492036000" data-name=" 492036000" class="cls-2" d="M2324.42,1818.93h-523.7c-21.63,0-39.19-17.55-39.19-39.19.02-21.64,17.55-39.19,39.19-39.19h523.71c21.63,0,39.18,17.55,39.18,39.19.02,21.63-17.55,39.19-39.18,39.19h0Z"/>
        <path id="_492035928" data-name=" 492035928" class="cls-2" d="M1459.82,2254.2h160.83v-160.84h-160.83v160.84ZM1659.84,2332.58h-239.23c-21.63,0-39.2-17.55-39.2-39.19v-239.22c0-21.64,17.55-39.19,39.19-39.19h239.24c21.63,0,39.17,17.55,39.17,39.19v239.22c0,21.64-17.55,39.19-39.17,39.19h0Z"/>
        <path id="_492035856" data-name=" 492035856" class="cls-2" d="M2324.42,2131.32h-523.7c-21.63,0-39.19-17.55-39.19-39.19.02-21.64,17.55-39.19,39.19-39.19h523.71c21.63,0,39.18,17.55,39.18,39.19.02,21.64-17.55,39.19-39.18,39.19h0Z"/>
        <path id="_492035784" data-name=" 492035784" class="cls-2" d="M2324.42,2294.66h-523.7c-21.63,0-39.19-17.55-39.19-39.19.02-21.63,17.55-39.19,39.19-39.19h523.71c21.63,0,39.18,17.55,39.18,39.19.02,21.64-17.55,39.19-39.18,39.19h0Z"/>
        <path id="_492035712" data-name=" 492035712" class="cls-2" d="M1459.82,2729.93h160.83v-160.84h-160.83v160.84ZM1659.84,2808.31h-239.23c-21.63,0-39.2-17.55-39.2-39.19v-239.22c0-21.64,17.55-39.19,39.19-39.19h239.24c21.63,0,39.17,17.55,39.17,39.19v239.22c0,21.64-17.55,39.19-39.17,39.19h0Z"/>
        <path id="_492035640" data-name=" 492035640" class="cls-2" d="M2324.42,2607.06h-523.7c-21.63,0-39.19-17.55-39.19-39.19.02-21.64,17.55-39.19,39.19-39.19h523.71c21.63,0,39.18,17.55,39.18,39.19.02,21.64-17.55,39.19-39.18,39.19h0Z"/>
        <path id="_492035568" data-name=" 492035568" class="cls-2" d="M2324.42,2770.4h-523.7c-21.63,0-39.19-17.55-39.19-39.19.02-21.64,17.55-39.19,39.19-39.19h523.71c21.63,0,39.18,17.55,39.18,39.19.02,21.64-17.55,39.19-39.18,39.19h0Z"/>
        <path id="_492035520" data-name=" 492035520" class="cls-2" d="M1659.84,2808.31c-10.06,0-20.07-3.83-27.73-11.48l-239.22-239.22c-15.29-15.31-15.32-40.11,0-55.42,15.32-15.31,40.1-15.31,55.41,0l239.22,239.22c15.31,15.31,15.31,40.11,0,55.42-7.64,7.65-17.7,11.48-27.69,11.48h0Z"/>
      </g>
    </g>
    <path class="cls-1" d="M1734.65.85l165-.85c558.54,25.59,1095.75,328.73,1414.16,786.07,228.49,328.22,349.68,740.14,322.83,1139.26-6.52,96.46-34.06,291.84-74.2,376.26-37.28,78.47-140.38,99.95-205.71,40.8-60.2-54.54-43.31-119.55-25.66-189.18l20.24-91.07c96.34-527.48-119.31-1070.63-520.29-1421.62-370.41-324.22-869.82-441.14-1346.73-339.38C711.3,466.07,217.28,1169.1,271.18,1942.02c5.17,204.88,103.37,479.25,203.65,652.3,316.34,545.88,956.72,851.17,1577.45,756.15l94.65-16.5c47.12-9.18,97.19-20.92,140.87,6.54,62.16,39.09,86.33,122.68,43.95,185.3-31.59,46.68-84.48,60.79-136.72,71.09l-106.2,17.65c-128.88,16.02-264.05,22.63-393.95,13.6-709.58-49.34-1355.84-534.06-1590.38-1207.18-56.24-161.38-87.73-331.69-100.15-501.95C-53.39,1127.43,468.83,359.71,1215.04,101.95,1382.57,44.08,1558.18,13.3,1734.65.85h0Z"/>
  </g>
</svg>