<?xml version="1.0" encoding="UTF-8"?>
<svg id="Camada_2" data-name="Camada 2" xmlns="http://www.w3.org/2000/svg" viewBox="0 0 1715.74 635.23">
  <defs>
    <style>
      .cls-1, .cls-2, .cls-3 {
        fill: #df8303;
      }

      .cls-1, .cls-4, .cls-5, .cls-3 {
        stroke-width: 0px;
      }

      .cls-2 {
        stroke: #df8303;
        stroke-miterlimit: 10;
        stroke-width: 3px;
      }

      .cls-4 {
        fill: none;
      }

      .cls-5 {
        fill: #0c163f;
      }

      .cls-3 {
        fill-rule: evenodd;
      }
    </style>
  </defs>
  <g id="Camada_1-2" data-name="Camada 1">
    <g>
      <g>
        <rect class="cls-4" width="1715.74" height="635.23"/>
        <g>
          <path class="cls-5" d="M376.93,318.95c-11.58,20.26-35.84,38.87-65.75,38.87-48.11,0-86.29-45.9-86.29-99.94s38.32-100.76,88.91-100.76c13.23,0,37.49,3.58,54.86,11.3l-8.41,24.53c-12.68-10.2-42.87-31.43-50.73-32.67-38.18,2.48-56.1,33.36-56.1,83.53,0,62.72,31.29,105.31,71.95,105.31,23.29,0,37.91-13.92,47.55-32.67l4,2.48Z"/>
          <path class="cls-5" d="M389.33,290.42c0-38.32,31.01-66.3,62.99-66.3s62.99,27.98,62.99,66.3-31.01,66.3-62.99,66.3-62.99-27.85-62.99-66.3ZM455.08,353.55c19.71-3.03,32.81-23.02,32.81-57.2,0-37.49-15.16-64.79-39.56-69.06-19.99,2.89-31.57,23.43-31.57,58.03,0,36.67,12.27,64.51,38.32,68.23Z"/>
          <path class="cls-5" d="M914.01,290.13c0-39.13,31.67-67.7,64.32-67.7s64.32,28.57,64.32,67.7-31.67,67.7-64.32,67.7-64.32-28.43-64.32-67.7ZM981.14,354.59c20.13-3.1,33.5-23.5,33.5-58.41,0-38.28-15.48-66.15-40.39-70.51-20.41,2.96-32.23,23.92-32.23,59.25,0,37.44,12.53,65.87,39.13,69.67Z"/>
          <path class="cls-5" d="M538.89,226.87l19.85-1.93,6.2,24.4c9.51-13.51,24.95-23.3,44.94-25.23l-3.86,26.05c-5.24-.28-10.2-.55-14.75-.55-10.48,0-19.16.96-26.05,2.76v101.59h-26.33v-127.09Z"/>
          <path class="cls-5" d="M628.21,226.87l19.85-1.93,6.2,24.4c9.51-13.51,24.95-23.3,44.94-25.23l-3.86,26.05c-5.24-.28-10.2-.55-14.75-.55-10.48,0-19.16.96-26.05,2.76v101.59h-26.33v-127.09Z"/>
          <path class="cls-5" d="M817.46,329.43c-9.79,17.23-30.74,27.29-50.73,27.29-34.05,0-62.58-29.64-62.58-66.3s29.08-66.3,63.96-66.3c37.91,0,47.55,31.7,47.55,51.83,0,1.65,0,3.17-.14,4.55h-84.08v.69c0,35.84,16.54,68.78,46.73,68.78,11.99,0,26.6-5.1,35.29-23.02l4,2.48ZM787.69,277.33c.97-21.92-8.27-46.04-24.81-50.04-16.95,0-30.33,19.71-31.43,50.04h56.24Z"/>
          <path class="cls-5" d="M903.61,231.42c-5.79-.28-23.71-.97-34.87-1.24v105.86c0,8.96,3.17,15.99,13.92,15.99,7.44,0,13.78-3.58,19.57-9.1l2.48,4c-8.68,5.51-19.16,9.79-31.15,9.79-24.12,0-31.01-16.4-31.01-33.63v-93.04h-15.03v-3.17h15.03v-18.61l26.19-23.29v41.9h34.87v4.55Z"/>
          <path class="cls-5" d="M1059.24,226.87l19.85-1.93,6.2,24.4c9.51-13.51,24.95-23.3,44.94-25.23l-3.86,26.05c-5.24-.28-10.2-.55-14.75-.55-10.48,0-19.16.96-26.05,2.76v101.59h-26.33v-127.09Z"/>
          <path class="cls-1" d="M1163.11,160.99h36.53v189.81h22.88c11.3,0,51.55-1.38,55.14-1.52v4.69h-114.55v-192.98Z"/>
          <path class="cls-1" d="M1358.16,344.18c-8.82,6.2-20.26,12.54-34.05,12.54-22.74,0-39.56-17.23-39.56-38.6,0-26.19,24.81-34.74,43.56-34.74,11.58,0,21.78,3.45,29.36,6.75v-25.22c0-10.2,0-34.74-32.67-34.74-11.03,0-20.12,2.76-31.15,10.47l-2.48-4c12.68-6.89,32.81-12.54,52.65-12.54,47.42,0,47.42,32.12,47.42,49.07v80.77h-29.64l-3.45-9.79ZM1357.47,293.45c-5.1-2.21-12.13-4.41-21.37-4.41-11.44,2.62-18.2,11.3-18.2,28.12,0,17.92,7.58,29.91,22.61,29.91,6.89,0,11.72-2.34,16.95-6.34v-47.28Z"/>
          <path class="cls-1" d="M1419.77,160.99l33.49-2.76v80.36c8.27-8.27,19.44-14.47,36.25-14.47,34.46,0,55,25.23,55,61.75,0,45.07-31.43,70.85-58.45,70.85-13.09,0-24.53-6.07-33.36-12.27l-3.59,9.51h-29.36v-192.98ZM1453.27,341.14c5.24,2.89,11.72,5.24,17.64,5.79,19.3-2.62,38.04-20.26,38.04-60.65,0-30.74-11.03-51.83-35.01-51.83-7.72,0-14.75,2.21-20.68,8.13v98.56Z"/>
        </g>
        <g>
          <path class="cls-1" d="M218.16,479.84c-5.52,3.96-14.54,7.87-23.61,7.87-19.07,0-33.4-17.35-33.4-37.62s14.49-38.25,33.45-38.25c5.21,0,14.33,1.36,20.9,4.27l-3.18,9.27c-4.79-3.86-16.21-11.93-19.18-12.35-14.43.89-21.21,12.71-21.21,31.37,0,23.81,11.1,40.65,27.72,40.65,2.92,0,6.67-.52,7.82-1.2v-27.67h10.68v23.66Z"/>
          <path class="cls-1" d="M268.91,476.98c-3.7,6.51-11.62,10.32-19.18,10.32-12.87,0-23.66-11.21-23.66-25.06s11-25.07,24.18-25.07c14.33,0,17.98,11.99,17.98,19.59,0,.62,0,1.2-.05,1.72h-31.79v.26c0,13.55,6.25,26,17.67,26,4.53,0,10.06-1.93,13.34-8.7l1.51.94ZM257.66,457.28c.36-8.29-3.13-17.41-9.38-18.92-6.41,0-11.46,7.45-11.88,18.92h21.26Z"/>
          <path class="cls-1" d="M299.71,442.69c-3.65-3.07-7.3-4.32-10.42-4.32-5,0-7.76,2.97-7.76,6.72s2.45,6.72,10.06,12.19c8.13,5.78,11.26,9.43,11.26,15.58,0,9.8-8.23,14.43-15.84,14.43-5,0-9.33-2.09-12.82-4.74l.94-1.46c2.55,2.35,6.41,4.95,11.1,4.95,5.16,0,8.91-3.13,8.91-8.29,0-3.91-1.82-6.41-9.8-12.45-7.97-6.05-10.42-10.01-10.42-15.11,0-7.71,6.15-13.03,13.65-13.03,4.48,0,8.96,1.93,12.14,4.01l-.99,1.51Z"/>
          <path class="cls-1" d="M335.51,439.93c-2.19-.1-8.96-.36-13.18-.47v40.02c0,3.39,1.2,6.04,5.26,6.04,2.81,0,5.21-1.35,7.4-3.44l.94,1.51c-3.28,2.09-7.24,3.7-11.78,3.7-9.12,0-11.73-6.2-11.73-12.72v-35.18h-5.68v-1.2h5.68v-7.03l9.9-8.81v15.84h13.18v1.72Z"/>
          <path class="cls-1" d="M367.45,482.34c-3.02,2.08-8.02,4.95-13.39,4.95-7.87,0-14.9-6.1-14.9-14.43,0-8.96,8.18-13.34,16.15-13.34,3.96,0,7.76,1.09,11.93,2.81v-9.02c0-4.64,0-14.23-12.14-14.23-4.74,0-8.23,1.51-12.25,4.27l-.94-1.46c4.01-2.29,10.53-4.74,18.39-4.74,16.88,0,16.88,11.26,16.88,16.68v32.41h-8.49l-1.25-3.91ZM344.37,428.83c1.25-6.46,5.06-10.47,9.07-11.25,2.6,0,15.27,4.38,17.98,5.37.62-.62,1.82-2.5,2.5-5.11l1.15.21c-1.3,6.36-4.64,10.63-8.7,11.36-2.87,0-15.27-4.48-18.13-5.52-.89.68-2.14,2.71-2.76,5.16l-1.09-.21ZM367.24,463.48c-2.5-.94-6.46-1.93-10.01-1.93-4.48.89-8.23,4.22-8.23,11.1s3.39,11.52,9.85,11.52c3.54,0,6.15-1.46,8.39-3.13v-17.56Z"/>
          <path class="cls-1" d="M385.48,462.23c0-14.49,11.72-25.07,23.81-25.07s23.81,10.58,23.81,25.07-11.72,25.06-23.81,25.06-23.81-10.53-23.81-25.06ZM410.33,486.1c7.45-1.15,12.4-8.7,12.4-21.62,0-14.17-5.73-24.49-14.96-26.11-7.56,1.09-11.93,8.86-11.93,21.94,0,13.86,4.64,24.39,14.49,25.79Z"/>
          <path class="cls-5" d="M467.18,413.3h13.81v72.95h-13.81v-72.95Z"/>
          <path class="cls-5" d="M493.5,438.21l10.06-1.04,2.4,6.83c5.11-4.43,10.79-6.83,17.04-6.83,13.03,0,13.03,10.42,13.03,14.33v34.76h-12.77v-35.43c0-2.71-.05-9.59-7.82-9.59-3.39,0-6.3,1.25-9.22,4.07v40.96h-12.72v-48.05Z"/>
          <path class="cls-5" d="M573.33,439.98c-1.62-.1-8.96-.42-13.34-.52v39.81c0,3.23,1.41,5.89,5.63,5.89,2.76,0,5-1.25,7.14-3.13l.89,1.62c-4.12,2.29-8.65,3.65-13.13,3.65-10.06,0-13.29-6.46-13.29-13.97v-33.92h-5.26v-1.2h5.26v-5.84l12.77-11.52v17.35h13.34v1.77Z"/>
          <path class="cls-5" d="M620.65,476.56c-3.91,6.67-12.56,10.74-20.58,10.74-12.82,0-25.22-10.42-25.22-25.22s11.99-24.91,25.95-24.91c16.62,0,19.49,14.85,19.02,21.83h-31.68c.05,13.5,5.84,25.38,17.2,25.38,5.05,0,10.79-2.29,13.81-8.86l1.51,1.04ZM606.52,457.8c.31-7.19-1.82-18.03-8.13-19.44-5.68,0-10.01,8.03-10.27,19.44h18.4Z"/>
          <path class="cls-5" d="M629.29,413.3l12.61-1.04v74h-12.61v-72.95Z"/>
          <path class="cls-5" d="M658.55,415.15c3.86,0,6.83,2.87,6.83,6.77s-2.97,6.83-6.83,6.83-6.77-2.87-6.77-6.83,2.92-6.77,6.77-6.77ZM652.2,437.14l12.77-1.04v49.09h-12.77v-48.05Z"/>
          <path class="cls-5" d="M705.24,478.41c7.24,0,13.55,3.02,13.55,11.83,0,10.94-9.54,19.86-26.16,19.86-11.99,0-20.69-4.74-20.69-12.19,0-4.01,2.5-6.05,7.82-7.35-2.97-3.91-5.31-8.03-5.84-10.11,0-1.51,2.92-7.61,6.88-13.29-3.65-3.18-6.05-7.61-6.05-12.87,0-10.84,10.06-18.19,20.79-18.19,2.87,0,5.73.52,8.34,1.51,1.36-3.23,4.33-8.96,6.05-12.25l7.66,8.7c-2.61,1.04-10.01,3.44-12.66,4.01,6.57,2.87,11.36,8.7,11.36,16.21,0,10.84-10.01,18.13-20.79,18.13-5.06,0-10.01-1.62-13.76-4.48-.83,1.67-1.51,4.32-1.72,5.94.26,3.13,2.19,4.53,6.36,4.53h18.86ZM681.17,490.81c-.42,1.15-.99,3.07-1.3,4.69,0,7.61,3.39,13.18,14.54,13.18,8.6,0,14.59-3.34,17.2-5.78.16-.99.31-4.17.31-5.37,0-6.67-3.44-6.72-6.36-6.72h-24.39ZM696.59,471.27c4.22-.62,7.29-5.99,7.29-15.22,0-8.6-2.76-17.98-9.43-18.76-4.12.62-7.19,6.41-7.19,15.53,0,8.6,2.76,17.66,9.33,18.45Z"/>
          <path class="cls-5" d="M768.92,475.49c-3.91,6.67-12.56,10.74-20.58,10.74-12.82,0-25.22-10.42-25.22-25.22s11.99-24.91,25.95-24.91c16.62,0,19.49,14.85,19.02,21.83h-31.68c.05,13.5,5.84,25.38,17.2,25.38,5.05,0,10.79-2.29,13.81-8.86l1.51,1.04ZM754.8,456.73c.31-7.19-1.82-18.03-8.13-19.44-5.68,0-10.01,8.03-10.27,19.44h18.4Z"/>
          <path class="cls-5" d="M777.57,437.14l10.06-1.04,2.4,6.83c5.11-4.43,10.79-6.83,17.04-6.83,13.03,0,13.03,10.42,13.03,14.33v34.76h-12.77v-35.43c0-2.71-.05-9.59-7.82-9.59-3.39,0-6.3,1.25-9.22,4.07v40.96h-12.72v-48.05Z"/>
          <path class="cls-5" d="M857.4,438.91c-1.62-.1-8.96-.42-13.34-.52v39.81c0,3.23,1.41,5.89,5.63,5.89,2.76,0,5-1.25,7.14-3.13l.89,1.62c-4.12,2.29-8.65,3.65-13.13,3.65-10.06,0-13.29-6.46-13.29-13.97v-33.92h-5.26v-1.2h5.26v-5.84l12.77-11.52v17.35h13.34v1.77Z"/>
          <path class="cls-5" d="M904.71,475.49c-3.91,6.67-12.56,10.74-20.58,10.74-12.82,0-25.22-10.42-25.22-25.22s11.99-24.91,25.95-24.91c16.62,0,19.49,14.85,19.02,21.83h-31.68c.05,13.5,5.84,25.38,17.2,25.38,5.05,0,10.79-2.29,13.81-8.86l1.51,1.04ZM890.59,456.73c.31-7.19-1.82-18.03-8.13-19.44-5.68,0-10.01,8.03-10.27,19.44h18.4Z"/>
        </g>
      </g>
      <path class="cls-3" d="M192.16,292.78l-22.31.5,4.3,28.94,12.54-.3,5.46-29.15ZM192.6,288.22l-2.44-120.99c-.06-2.25-1.51-3.73-3.43-4.4-.94-.34-2-.48-3.09-.46-1.06.02-2.14.22-3.07.59-1.95.76-3.48,2.32-3.61,4.59l-7.32,121.2,22.97-.52ZM180.03,341.73c2.86-.06,5.13,2.2,5.06,5.05-.04,2.04-1.24,3.84-2.99,4.72l-.45,22.91,12.19-28.11-6.9-19.8-13.21.28-7.73,20.13,11.08,27.6.46-22.92c-1.69-.8-2.84-2.53-2.8-4.57.07-2.85,2.42-5.23,5.27-5.28ZM194.69,166.97l2.48,123.57-6.26,33.38,7.52,21.56.29.83-.36.8-17.15,39.52-2.2,5.05-1.98-4.98-15.57-38.75-.31-.8.32-.84,8.39-21.93-4.92-33.1,7.48-123.82c.26-4.39,3.07-7.28,6.64-8.7,1.49-.59,3.1-.9,4.69-.94,1.57-.02,3.17.22,4.63.73,3.51,1.26,6.21,4.03,6.3,8.43Z"/>
      <line class="cls-2" x1="179.19" y1="390.03" x2="904.71" y2="390.03"/>
    </g>
  </g>
</svg>