<?xml version="1.0" encoding="UTF-8"?>
<svg id="Camada_2" data-name="Camada 2" xmlns="http://www.w3.org/2000/svg" viewBox="0 0 1266.67 776">
  <defs>
    <style>
      .cls-1 {
        fill: #07233f;
      }

      .cls-1, .cls-2, .cls-3, .cls-4 {
        stroke-width: 0px;
      }

      .cls-2, .cls-5, .cls-4 {
        fill: #df8303;
      }

      .cls-5 {
        stroke: #df8303;
        stroke-miterlimit: 10;
        stroke-width: 7px;
      }

      .cls-3 {
        fill: none;
      }

      .cls-4 {
        fill-rule: evenodd;
      }
    </style>
  </defs>
  <g id="Camada_1-2" data-name="Camada 1">
    <g>
      <rect class="cls-3" x="0" width="1266.67" height="776"/>
      <g>
        <g>
          <g>
            <path class="cls-1" d="M415.77,244.98c-11.58,20.26-35.84,38.87-65.75,38.87-48.11,0-86.29-45.9-86.29-99.94s38.32-100.76,88.91-100.76c13.23,0,37.49,3.58,54.86,11.3l-8.41,24.53c-12.68-10.2-42.87-31.43-50.73-32.67-38.18,2.48-56.1,33.36-56.1,83.53,0,62.72,31.29,105.31,71.95,105.31,23.29,0,37.91-13.92,47.55-32.67l4,2.48Z"/>
            <path class="cls-1" d="M428.18,216.45c0-38.32,31.01-66.3,62.99-66.3s62.99,27.98,62.99,66.3-31.01,66.3-62.99,66.3-62.99-27.85-62.99-66.3ZM493.93,279.58c19.71-3.03,32.81-23.02,32.81-57.2,0-37.49-15.16-64.79-39.56-69.06-19.99,2.89-31.57,23.43-31.57,58.03,0,36.67,12.27,64.51,38.32,68.23Z"/>
            <path class="cls-1" d="M952.85,216.16c0-39.13,31.67-67.7,64.32-67.7s64.32,28.57,64.32,67.7-31.67,67.7-64.32,67.7-64.32-28.43-64.32-67.7ZM1019.99,280.61c20.13-3.1,33.5-23.5,33.5-58.41,0-38.28-15.48-66.15-40.39-70.51-20.41,2.96-32.23,23.92-32.23,59.25,0,37.44,12.53,65.87,39.13,69.67Z"/>
            <path class="cls-1" d="M577.73,152.9l19.85-1.93,6.2,24.4c9.51-13.51,24.95-23.3,44.94-25.23l-3.86,26.05c-5.24-.28-10.2-.55-14.75-.55-10.48,0-19.16.96-26.05,2.76v101.59h-26.33v-127.09Z"/>
            <path class="cls-1" d="M667.05,152.9l19.85-1.93,6.2,24.4c9.51-13.51,24.95-23.3,44.94-25.23l-3.86,26.05c-5.24-.28-10.2-.55-14.75-.55-10.48,0-19.16.96-26.05,2.76v101.59h-26.33v-127.09Z"/>
            <path class="cls-1" d="M856.31,255.46c-9.79,17.23-30.74,27.29-50.73,27.29-34.05,0-62.58-29.64-62.58-66.3s29.08-66.3,63.96-66.3c37.91,0,47.55,31.7,47.55,51.83,0,1.65,0,3.17-.14,4.55h-84.08v.69c0,35.84,16.54,68.78,46.73,68.78,11.99,0,26.6-5.1,35.29-23.02l4,2.48ZM826.53,203.35c.97-21.92-8.27-46.04-24.81-50.04-16.95,0-30.33,19.71-31.43,50.04h56.24Z"/>
            <path class="cls-1" d="M942.46,157.45c-5.79-.28-23.71-.97-34.87-1.24v105.86c0,8.96,3.17,15.99,13.92,15.99,7.44,0,13.78-3.58,19.57-9.1l2.48,4c-8.68,5.51-19.16,9.79-31.15,9.79-24.12,0-31.01-16.4-31.01-33.63v-93.04h-15.03v-3.17h15.03v-18.61l26.19-23.29v41.9h34.87v4.55Z"/>
            <path class="cls-1" d="M1098.08,152.9l19.85-1.93,6.2,24.4c9.51-13.51,24.95-23.3,44.94-25.23l-3.86,26.05c-5.24-.28-10.2-.55-14.75-.55-10.48,0-19.16.96-26.05,2.76v101.59h-26.33v-127.09Z"/>
            <g>
              <path class="cls-2" d="M260.76,326.57h36.53v189.81h22.88c11.3,0,51.55-1.38,55.14-1.52v4.69h-114.55v-192.98Z"/>
              <path class="cls-2" d="M455.8,509.76c-8.82,6.2-20.26,12.54-34.05,12.54-22.74,0-39.56-17.23-39.56-38.6,0-26.19,24.81-34.74,43.56-34.74,11.58,0,21.78,3.45,29.36,6.75v-25.22c0-10.2,0-34.74-32.67-34.74-11.03,0-20.12,2.76-31.15,10.47l-2.48-4c12.68-6.89,32.81-12.54,52.65-12.54,47.42,0,47.42,32.12,47.42,49.07v80.77h-29.64l-3.45-9.79ZM455.11,459.04c-5.1-2.21-12.13-4.41-21.37-4.41-11.44,2.62-18.2,11.3-18.2,28.12,0,17.92,7.58,29.91,22.61,29.91,6.89,0,11.72-2.34,16.95-6.34v-47.28Z"/>
              <path class="cls-2" d="M517.42,326.57l33.49-2.76v80.36c8.27-8.27,19.44-14.47,36.25-14.47,34.46,0,55,25.23,55,61.75,0,45.07-31.43,70.85-58.45,70.85-13.09,0-24.53-6.07-33.36-12.27l-3.59,9.51h-29.36v-192.98ZM550.91,506.73c5.24,2.89,11.72,5.24,17.64,5.79,19.3-2.62,38.04-20.26,38.04-60.65,0-30.74-11.03-51.83-35.01-51.83-7.72,0-14.75,2.21-20.68,8.13v98.56Z"/>
            </g>
          </g>
          <g>
            <path class="cls-2" d="M318.3,660.37c-5.58,4-14.68,7.94-23.83,7.94-19.25,0-33.72-17.51-33.72-37.97s14.62-38.61,33.77-38.61c5.26,0,14.46,1.37,21.09,4.31l-3.21,9.36c-4.84-3.89-16.36-12.05-19.36-12.46-14.57.89-21.41,12.83-21.41,31.66,0,24.04,11.2,41.03,27.98,41.03,2.95,0,6.73-.53,7.89-1.21v-27.93h10.78v23.88Z"/>
            <path class="cls-2" d="M369.53,657.48c-3.73,6.57-11.73,10.41-19.36,10.41-12.99,0-23.88-11.31-23.88-25.3s11.1-25.3,24.41-25.3c14.46,0,18.15,12.1,18.15,19.78,0,.63,0,1.21-.05,1.74h-32.08v.26c0,13.68,6.31,26.25,17.83,26.25,4.58,0,10.15-1.95,13.47-8.79l1.53.95ZM358.17,637.6c.37-8.36-3.16-17.57-9.47-19.09-6.47,0-11.57,7.52-11.99,19.09h21.46Z"/>
            <path class="cls-2" d="M400.61,622.87c-3.68-3.1-7.36-4.36-10.52-4.36-5.05,0-7.84,3-7.84,6.78s2.47,6.78,10.15,12.31c8.21,5.84,11.36,9.52,11.36,15.73,0,9.89-8.31,14.57-15.99,14.57-5.05,0-9.41-2.1-12.94-4.79l.95-1.47c2.58,2.37,6.47,5,11.2,5,5.21,0,9-3.16,9-8.36,0-3.94-1.84-6.47-9.89-12.57-8.05-6.1-10.52-10.1-10.52-15.25,0-7.78,6.21-13.15,13.78-13.15,4.52,0,9.05,1.95,12.26,4.05l-1,1.52Z"/>
            <path class="cls-2" d="M436.74,620.08c-2.21-.1-9.05-.37-13.31-.47v40.4c0,3.42,1.21,6.1,5.31,6.1,2.84,0,5.26-1.37,7.47-3.47l.95,1.52c-3.31,2.1-7.31,3.74-11.89,3.74-9.2,0-11.84-6.26-11.84-12.83v-35.5h-5.73v-1.21h5.73v-7.1l9.99-8.89v15.99h13.31v1.74Z"/>
            <path class="cls-2" d="M468.99,662.9c-3.05,2.1-8.1,5-13.52,5-7.94,0-15.04-6.15-15.04-14.57,0-9.05,8.26-13.47,16.31-13.47,4,0,7.84,1.1,12.05,2.84v-9.1c0-4.68,0-14.36-12.25-14.36-4.79,0-8.31,1.53-12.36,4.31l-.95-1.47c4.05-2.31,10.62-4.79,18.57-4.79,17.04,0,17.04,11.36,17.04,16.83v32.72h-8.57l-1.26-3.94ZM445.68,608.88c1.26-6.52,5.1-10.57,9.15-11.36,2.63,0,15.41,4.42,18.15,5.42.63-.63,1.84-2.52,2.52-5.15l1.16.21c-1.31,6.42-4.68,10.73-8.78,11.46-2.89,0-15.41-4.52-18.3-5.57-.89.68-2.16,2.73-2.79,5.21l-1.1-.21ZM468.78,643.86c-2.52-.95-6.52-1.95-10.1-1.95-4.52.89-8.31,4.26-8.31,11.2s3.42,11.63,9.94,11.63c3.58,0,6.21-1.47,8.47-3.16v-17.73Z"/>
            <path class="cls-2" d="M487.18,642.6c0-14.62,11.83-25.3,24.04-25.3s24.04,10.68,24.04,25.3-11.83,25.3-24.04,25.3-24.04-10.63-24.04-25.3ZM512.27,666.68c7.52-1.16,12.52-8.78,12.52-21.83,0-14.31-5.79-24.72-15.1-26.35-7.63,1.1-12.05,8.94-12.05,22.14,0,13.99,4.68,24.61,14.62,26.03Z"/>
            <path class="cls-1" d="M569.65,593.2h13.94v73.64h-13.94v-73.64Z"/>
            <path class="cls-1" d="M596.21,618.35l10.15-1.05,2.42,6.89c5.15-4.47,10.89-6.89,17.2-6.89,13.15,0,13.15,10.52,13.15,14.47v35.08h-12.89v-35.77c0-2.74-.05-9.68-7.89-9.68-3.42,0-6.36,1.26-9.31,4.1v41.34h-12.83v-48.5Z"/>
            <path class="cls-1" d="M676.79,620.13c-1.63-.1-9.05-.42-13.47-.52v40.18c0,3.26,1.42,5.94,5.68,5.94,2.79,0,5.05-1.26,7.21-3.16l.89,1.63c-4.16,2.31-8.73,3.68-13.26,3.68-10.15,0-13.41-6.52-13.41-14.1v-34.24h-5.31v-1.21h5.31v-5.89l12.89-11.62v17.51h13.47v1.79Z"/>
            <path class="cls-1" d="M724.55,657.06c-3.94,6.73-12.68,10.84-20.78,10.84-12.94,0-25.46-10.52-25.46-25.46s12.1-25.14,26.19-25.14c16.78,0,19.67,14.99,19.2,22.04h-31.98c.05,13.62,5.89,25.61,17.36,25.61,5.1,0,10.89-2.31,13.94-8.94l1.53,1.05ZM710.3,638.12c.32-7.26-1.84-18.2-8.21-19.62-5.73,0-10.1,8.1-10.36,19.62h18.57Z"/>
            <path class="cls-1" d="M733.28,593.2l12.73-1.05v74.69h-12.73v-73.64Z"/>
            <path class="cls-1" d="M762.81,595.07c3.89,0,6.89,2.89,6.89,6.84s-3,6.89-6.89,6.89-6.84-2.89-6.84-6.89,2.95-6.84,6.84-6.84ZM756.4,617.27l12.89-1.05v49.55h-12.89v-48.5Z"/>
            <path class="cls-1" d="M809.94,658.93c7.31,0,13.67,3.05,13.67,11.94,0,11.05-9.62,20.04-26.4,20.04-12.1,0-20.88-4.79-20.88-12.31,0-4.05,2.52-6.1,7.89-7.42-3-3.94-5.36-8.1-5.89-10.2,0-1.53,2.95-7.68,6.94-13.41-3.68-3.21-6.1-7.68-6.1-12.99,0-10.94,10.15-18.36,20.99-18.36,2.89,0,5.79.53,8.42,1.53,1.37-3.26,4.37-9.05,6.1-12.36l7.73,8.78c-2.63,1.05-10.1,3.47-12.78,4.05,6.63,2.89,11.47,8.78,11.47,16.36,0,10.94-10.1,18.3-20.99,18.3-5.1,0-10.1-1.63-13.89-4.52-.84,1.68-1.53,4.36-1.74,6,.26,3.16,2.21,4.58,6.42,4.58h19.04ZM785.64,671.44c-.42,1.16-1,3.1-1.31,4.73,0,7.68,3.42,13.31,14.68,13.31,8.68,0,14.73-3.37,17.36-5.84.16-1,.32-4.21.32-5.42,0-6.73-3.47-6.78-6.42-6.78h-24.62ZM801.21,651.72c4.26-.63,7.36-6.05,7.36-15.36,0-8.68-2.79-18.14-9.52-18.93-4.16.63-7.26,6.47-7.26,15.67,0,8.68,2.79,17.83,9.42,18.62Z"/>
            <path class="cls-1" d="M874.21,655.98c-3.94,6.73-12.68,10.84-20.78,10.84-12.94,0-25.46-10.52-25.46-25.46s12.1-25.14,26.19-25.14c16.78,0,19.67,14.99,19.2,22.04h-31.98c.05,13.62,5.89,25.61,17.36,25.61,5.1,0,10.89-2.31,13.94-8.94l1.53,1.05ZM859.96,637.05c.32-7.26-1.84-18.2-8.21-19.62-5.73,0-10.1,8.1-10.36,19.62h18.57Z"/>
            <path class="cls-1" d="M882.94,617.27l10.15-1.05,2.42,6.89c5.15-4.47,10.89-6.89,17.2-6.89,13.15,0,13.15,10.52,13.15,14.47v35.08h-12.89v-35.77c0-2.74-.05-9.68-7.89-9.68-3.42,0-6.36,1.26-9.31,4.1v41.34h-12.83v-48.5Z"/>
            <path class="cls-1" d="M963.52,619.05c-1.63-.1-9.05-.42-13.47-.52v40.18c0,3.26,1.42,5.94,5.68,5.94,2.79,0,5.05-1.26,7.21-3.16l.89,1.63c-4.16,2.31-8.73,3.68-13.26,3.68-10.15,0-13.41-6.52-13.41-14.1v-34.24h-5.31v-1.21h5.31v-5.89l12.89-11.62v17.51h13.47v1.79Z"/>
            <path class="cls-1" d="M1011.28,655.98c-3.94,6.73-12.68,10.84-20.78,10.84-12.94,0-25.46-10.52-25.46-25.46s12.1-25.14,26.19-25.14c16.78,0,19.67,14.99,19.2,22.04h-31.98c.05,13.62,5.89,25.61,17.36,25.61,5.1,0,10.89-2.31,13.94-8.94l1.53,1.05ZM997.03,637.05c.32-7.26-1.84-18.2-8.21-19.62-5.73,0-10.1,8.1-10.36,19.62h18.57Z"/>
          </g>
        </g>
        <g>
          <path class="cls-4" d="M206.27,355.04l-44.66,1.01,8.61,57.94,25.11-.59,10.94-58.36ZM207.15,345.9l-4.89-242.23c-.12-4.5-3.03-7.46-6.87-8.8-1.87-.67-4.01-.97-6.19-.92-2.12.05-4.28.45-6.15,1.17-3.9,1.52-6.96,4.64-7.24,9.18l-14.66,242.63,45.99-1.03ZM181.97,453.04c5.73-.12,10.28,4.41,10.14,10.11-.08,4.09-2.49,7.7-6,9.44l-.9,45.86,24.41-56.28-13.81-39.64-26.44.57-15.47,40.3,22.18,55.25.93-45.88c-3.39-1.6-5.68-5.07-5.6-9.15.14-5.7,4.85-10.47,10.55-10.58ZM211.34,103.15l4.97,247.39-12.54,66.82,15.06,43.17.58,1.66-.72,1.61-34.34,79.12-4.4,10.11-3.96-9.96-31.17-77.58-.63-1.6.65-1.69,16.79-43.91-9.85-66.27,14.98-247.9c.52-8.78,6.15-14.58,13.29-17.42,2.99-1.18,6.21-1.81,9.39-1.88,3.15-.05,6.35.44,9.28,1.46,7.02,2.52,12.43,8.07,12.62,16.87Z"/>
          <line class="cls-5" x1="180.14" y1="549.47" x2="1011.28" y2="549.47"/>
        </g>
      </g>
    </g>
  </g>
</svg>