<?xml version="1.0" encoding="UTF-8"?>
<svg id="Camada_2" data-name="Camada 2" xmlns="http://www.w3.org/2000/svg" viewBox="0 0 1589.57 595.8">
  <defs>
    <style>
      .cls-1, .cls-2, .cls-3 {
        stroke-width: 0px;
      }

      .cls-1, .cls-4, .cls-5 {
        fill: none;
      }

      .cls-6 {
        fill: #df8303;
        fill-rule: evenodd;
        stroke-width: .25px;
      }

      .cls-6, .cls-4, .cls-5 {
        stroke: #df8303;
        stroke-miterlimit: 10;
      }

      .cls-2 {
        fill: #fff;
      }

      .cls-4 {
        stroke-width: 5px;
      }

      .cls-5 {
        stroke-width: 3px;
      }

      .cls-3 {
        fill: #5f94c9;
      }
    </style>
  </defs>
  <g id="Camada_1-2" data-name="Camada 1">
    <g>
      <rect class="cls-1" width="1589.57" height="569.39"/>
      <g>
        <path class="cls-6" d="M883.05,224.22l-12.99.02,2.87,16.92,7.31-.02,2.82-16.92ZM883.25,221.57l-2.93-70.54c-.06-1.31-.93-2.19-2.06-2.61-.55-.21-1.17-.31-1.81-.31-.62,0-1.24.1-1.78.3-1.13.42-2,1.31-2.05,2.63l-2.76,70.53h13.38ZM876.59,252.59c1.67,0,3.02,1.35,3.01,3.01,0,1.19-.68,2.22-1.69,2.71l.02,13.34,6.76-16.23-4.27-11.62h-7.69s-4.25,11.63-4.25,11.63l6.8,16.22-.02-13.35c-1-.49-1.68-1.51-1.69-2.7,0-1.66,1.35-3.02,3.01-3.01ZM882.96,150.94l2.98,72.04-3.23,19.37,4.65,12.66.18.49-.2.46-9.5,22.82-1.22,2.92-1.21-2.92-9.56-22.77-.19-.47.18-.49,4.61-12.68-3.28-19.35,2.82-72.06c.1-2.55,1.7-4.21,3.76-4.99.86-.33,1.8-.49,2.72-.49.92,0,1.85.17,2.71.48,2.06.78,3.67,2.43,3.78,4.99Z"/>
        <line class="cls-5" x1="876.6" y1="280.42" x2="952.49" y2="280.42"/>
        <path class="cls-3" d="M892.92,119.29c-53.3,0-96.5,43.2-96.5,96.5s43.2,96.5,96.5,96.5,96.5-43.2,96.5-96.5-43.22-96.5-96.5-96.5ZM892.92,295.6c-44.33,0-80.26-35.93-80.26-80.24s35.93-80.26,80.26-80.26,80.24,35.93,80.24,80.26-35.93,80.24-80.24,80.24Z"/>
      </g>
      <g>
        <g>
          <path class="cls-3" d="M348.38,551.33c-7.84,5.62-20.65,11.17-33.52,11.17-27.08,0-47.44-24.64-47.44-53.43s20.57-54.32,47.51-54.32c7.4,0,20.35,1.92,29.68,6.07l-4.51,13.17c-6.81-5.48-23.01-16.95-27.23-17.54-20.5,1.26-30.12,18.05-30.12,44.55,0,33.82,15.76,57.72,39.37,57.72,4.14,0,9.47-.74,11.1-1.7v-39.29h15.17v33.6Z"/>
          <path class="cls-3" d="M420.46,547.26c-5.25,9.25-16.5,14.65-27.23,14.65-18.28,0-33.6-15.91-33.6-35.59s15.61-35.6,34.34-35.6c20.35,0,25.53,17.02,25.53,27.83,0,.89,0,1.7-.07,2.44h-45.14v.37c0,19.24,8.88,36.93,25.09,36.93,6.44,0,14.28-2.74,18.94-12.36l2.15,1.33ZM404.47,519.29c.52-11.77-4.44-24.72-13.32-26.86-9.1,0-16.28,10.58-16.87,26.86h30.19Z"/>
          <path class="cls-3" d="M464.19,498.56c-5.18-4.37-10.36-6.14-14.8-6.14-7.1,0-11.03,4.22-11.03,9.55s3.48,9.55,14.28,17.32c11.54,8.21,15.98,13.39,15.98,22.13,0,13.91-11.69,20.5-22.5,20.5-7.1,0-13.25-2.96-18.2-6.73l1.33-2.07c3.63,3.33,9.1,7.03,15.76,7.03,7.33,0,12.66-4.44,12.66-11.77,0-5.55-2.59-9.1-13.91-17.68-11.32-8.58-14.8-14.21-14.8-21.46,0-10.95,8.73-18.5,19.39-18.5,6.37,0,12.73,2.74,17.24,5.7l-1.41,2.14Z"/>
          <path class="cls-3" d="M515.03,494.64c-3.11-.15-12.73-.52-18.72-.66v56.83c0,4.81,1.7,8.58,7.47,8.58,4,0,7.4-1.92,10.51-4.88l1.33,2.14c-4.66,2.96-10.29,5.26-16.72,5.26-12.95,0-16.65-8.81-16.65-18.06v-49.95h-8.07v-1.7h8.07v-9.99l14.06-12.51v22.5h18.72v2.44Z"/>
          <path class="cls-3" d="M560.39,554.88c-4.29,2.96-11.4,7.03-19.02,7.03-11.17,0-21.16-8.66-21.16-20.5,0-12.73,11.62-18.94,22.94-18.94,5.62,0,11.03,1.55,16.95,4v-12.8c0-6.58,0-20.2-17.24-20.2-6.74,0-11.69,2.15-17.39,6.07l-1.33-2.07c5.7-3.26,14.95-6.73,26.12-6.73,23.98,0,23.98,15.99,23.98,23.68v46.03h-12.06l-1.78-5.55ZM527.6,478.88c1.78-9.18,7.18-14.87,12.88-15.98,3.7,0,21.68,6.22,25.53,7.62.89-.89,2.59-3.55,3.55-7.25l1.63.3c-1.85,9.03-6.59,15.1-12.36,16.13-4.07,0-21.68-6.36-25.75-7.84-1.26.96-3.03,3.85-3.92,7.32l-1.55-.3ZM560.09,528.09c-3.55-1.33-9.18-2.74-14.21-2.74-6.36,1.26-11.69,5.99-11.69,15.76s4.81,16.36,13.98,16.36c5.03,0,8.73-2.07,11.92-4.44v-24.94Z"/>
          <path class="cls-3" d="M585.99,526.32c0-20.57,16.65-35.6,33.82-35.6s33.82,15.02,33.82,35.6-16.65,35.59-33.82,35.59-33.82-14.95-33.82-35.59ZM621.29,560.21c10.58-1.63,17.61-12.36,17.61-30.71,0-20.13-8.14-34.78-21.24-37.07-10.73,1.55-16.95,12.58-16.95,31.15,0,19.68,6.59,34.63,20.57,36.63Z"/>
          <path class="cls-2" d="M702.02,456.83h19.61v103.6h-19.61v-103.6Z"/>
          <path class="cls-2" d="M739.39,492.2l14.28-1.48,3.4,9.7c7.25-6.29,15.32-9.7,24.2-9.7,18.5,0,18.5,14.8,18.5,20.35v49.36h-18.13v-50.32c0-3.85-.07-13.62-11.1-13.62-4.81,0-8.95,1.78-13.1,5.77v58.16h-18.06v-68.23Z"/>
          <path class="cls-2" d="M852.76,494.72c-2.29-.15-12.73-.59-18.94-.74v56.54c0,4.59,2,8.36,7.99,8.36,3.92,0,7.1-1.77,10.14-4.44l1.26,2.29c-5.85,3.26-12.28,5.18-18.65,5.18-14.28,0-18.87-9.18-18.87-19.83v-48.17h-7.47v-1.7h7.47v-8.29l18.13-16.35v24.64h18.94v2.51Z"/>
          <path class="cls-2" d="M919.95,546.67c-5.55,9.47-17.83,15.25-29.23,15.25-18.2,0-35.82-14.8-35.82-35.82s17.02-35.37,36.85-35.37c23.61,0,27.68,21.09,27.01,31.01h-44.99c.07,19.17,8.29,36.04,24.42,36.04,7.18,0,15.32-3.26,19.61-12.58l2.15,1.48ZM899.89,520.03c.44-10.21-2.59-25.6-11.54-27.6-8.07,0-14.21,11.4-14.58,27.6h26.12Z"/>
          <path class="cls-2" d="M932.23,456.83l17.91-1.48v105.08h-17.91v-103.6Z"/>
          <path class="cls-2" d="M975.3,460.97c5.48,0,9.69,4.07,9.69,9.62s-4.22,9.7-9.69,9.7-9.62-4.07-9.62-9.7,4.14-9.62,9.62-9.62ZM966.27,492.2l18.13-1.48v69.71h-18.13v-68.23Z"/>
          <path class="cls-2" d="M1041.6,550.81c10.29,0,19.24,4.29,19.24,16.8,0,15.54-13.54,28.2-37.15,28.2-17.02,0-29.38-6.73-29.38-17.32,0-5.7,3.55-8.58,11.1-10.44-4.22-5.55-7.55-11.4-8.29-14.36,0-2.15,4.14-10.8,9.77-18.87-5.18-4.51-8.58-10.8-8.58-18.28,0-15.39,14.28-25.83,29.53-25.83,4.07,0,8.14.74,11.84,2.15,1.92-4.59,6.14-12.73,8.58-17.39l10.88,12.36c-3.7,1.48-14.21,4.88-17.98,5.7,9.32,4.07,16.13,12.36,16.13,23.01,0,15.39-14.21,25.75-29.53,25.75-7.18,0-14.21-2.29-19.54-6.36-1.18,2.37-2.15,6.14-2.44,8.44.37,4.44,3.11,6.44,9.03,6.44h26.79ZM1007.41,568.42c-.59,1.63-1.41,4.37-1.85,6.66,0,10.81,4.81,18.72,20.65,18.72,12.21,0,20.72-4.74,24.42-8.21.22-1.41.44-5.92.44-7.62,0-9.47-4.88-9.55-9.03-9.55h-34.63ZM1029.32,540.67c5.99-.89,10.36-8.51,10.36-21.61,0-12.21-3.92-25.53-13.39-26.64-5.85.89-10.21,9.1-10.21,22.05,0,12.21,3.92,25.08,13.25,26.2Z"/>
          <path class="cls-2" d="M1132.03,546.67c-5.55,9.47-17.83,15.25-29.23,15.25-18.2,0-35.82-14.8-35.82-35.82s17.02-35.37,36.85-35.37c23.61,0,27.68,21.09,27.01,31.01h-44.99c.07,19.17,8.29,36.04,24.42,36.04,7.18,0,15.32-3.26,19.61-12.58l2.15,1.48ZM1111.98,520.03c.44-10.21-2.59-25.6-11.54-27.6-8.07,0-14.21,11.4-14.58,27.6h26.12Z"/>
          <path class="cls-2" d="M1144.31,492.2l14.28-1.48,3.4,9.7c7.25-6.29,15.32-9.7,24.2-9.7,18.5,0,18.5,14.8,18.5,20.35v49.36h-18.13v-50.32c0-3.85-.07-13.62-11.1-13.62-4.81,0-8.95,1.78-13.1,5.77v58.16h-18.06v-68.23Z"/>
          <path class="cls-2" d="M1257.68,494.72c-2.29-.15-12.73-.59-18.94-.74v56.54c0,4.59,2,8.36,7.99,8.36,3.92,0,7.1-1.77,10.14-4.44l1.26,2.29c-5.85,3.26-12.28,5.18-18.65,5.18-14.28,0-18.87-9.18-18.87-19.83v-48.17h-7.47v-1.7h7.47v-8.29l18.13-16.35v24.64h18.94v2.51Z"/>
          <path class="cls-2" d="M1324.87,546.67c-5.55,9.47-17.83,15.25-29.23,15.25-18.2,0-35.82-14.8-35.82-35.82s17.02-35.37,36.85-35.37c23.61,0,27.68,21.09,27.01,31.01h-44.99c.07,19.17,8.29,36.04,24.42,36.04,7.18,0,15.32-3.26,19.61-12.58l2.15,1.48ZM1304.82,520.03c.44-10.21-2.59-25.6-11.54-27.6-8.07,0-14.21,11.4-14.58,27.6h26.12Z"/>
        </g>
        <path class="cls-2" d="M224.63,266.37c-12.21,21.37-37.79,40.99-69.33,40.99-50.72,0-90.98-48.4-90.98-105.37s40.4-106.25,93.75-106.25c13.95,0,39.53,3.78,57.85,11.92l-8.87,25.87c-13.37-10.75-45.2-33.14-53.49-34.45-40.26,2.62-59.15,35.17-59.15,88.08,0,66.13,32.99,111.04,75.87,111.04,24.56,0,39.97-14.68,50.14-34.45l4.22,2.62Z"/>
        <path class="cls-2" d="M237.71,236.28c0-40.4,32.7-69.91,66.42-69.91s66.42,29.51,66.42,69.91-32.7,69.91-66.42,69.91-66.42-29.36-66.42-69.91ZM307.04,302.85c20.78-3.2,34.59-24.27,34.59-60.32,0-39.53-15.99-68.31-41.71-72.82-21.07,3.05-33.28,24.71-33.28,61.19,0,38.66,12.94,68.02,40.4,71.94Z"/>
        <path class="cls-2" d="M395.41,169.28l20.93-2.03,6.54,25.72c10.03-14.24,26.31-24.56,47.38-26.6l-4.07,27.47c-5.52-.29-10.76-.58-15.55-.58-11.05,0-20.2,1.02-27.47,2.91v107.12h-27.76v-134.01Z"/>
        <path class="cls-2" d="M489.59,169.28l20.93-2.03,6.54,25.72c10.03-14.24,26.31-24.56,47.38-26.6l-4.07,27.47c-5.52-.29-10.76-.58-15.55-.58-11.05,0-20.2,1.02-27.47,2.91v107.12h-27.76v-134.01Z"/>
        <path class="cls-2" d="M689.14,277.41c-10.32,18.17-32.41,28.78-53.49,28.78-35.9,0-65.98-31.25-65.98-69.91s30.67-69.91,67.44-69.91c39.97,0,50.14,33.43,50.14,54.65,0,1.74,0,3.34-.14,4.8h-88.66v.73c0,37.79,17.44,72.53,49.27,72.53,12.64,0,28.05-5.38,37.21-24.27l4.22,2.62ZM657.75,222.47c1.02-23.11-8.72-48.55-26.16-52.76-17.88,0-31.98,20.78-33.14,52.76h59.3Z"/>
        <path class="cls-2" d="M779.98,174.07c-6.1-.29-25-1.02-36.77-1.31v111.62c0,9.45,3.34,16.86,14.68,16.86,7.85,0,14.53-3.78,20.64-9.59l2.62,4.22c-9.16,5.81-20.2,10.32-32.85,10.32-25.43,0-32.7-17.3-32.7-35.46v-98.11h-15.84v-3.34h15.84v-19.62l27.61-24.56v44.18h36.77v4.8Z"/>
        <path class="cls-2" d="M1007.34,169.28l20.93-2.03,6.54,25.72c10.03-14.24,26.31-24.56,47.38-26.6l-4.07,27.47c-5.52-.29-10.75-.58-15.55-.58-11.05,0-20.2,1.02-27.47,2.91v107.12h-27.76v-134.01Z"/>
        <path class="cls-3" d="M1126.36,99.8h38.52v200.14h24.13c11.92,0,54.36-1.45,58.14-1.6v4.94h-120.78V99.8Z"/>
        <path class="cls-3" d="M1332.02,292.96c-9.3,6.54-21.37,13.23-35.9,13.23-23.98,0-41.71-18.17-41.71-40.7,0-27.61,26.16-36.63,45.93-36.63,12.21,0,22.96,3.63,30.96,7.12v-26.6c0-10.76,0-36.63-34.45-36.63-11.63,0-21.22,2.91-32.85,11.04l-2.62-4.21c13.37-7.27,34.59-13.23,55.52-13.23,50,0,50,33.87,50,51.74v85.17h-31.25l-3.63-10.32ZM1331.29,239.48c-5.38-2.33-12.79-4.65-22.53-4.65-12.06,2.76-19.19,11.92-19.19,29.65,0,18.9,7.99,31.54,23.84,31.54,7.27,0,12.35-2.47,17.88-6.68v-49.85Z"/>
        <path class="cls-3" d="M1396.99,99.8l35.32-2.91v84.74c8.72-8.72,20.5-15.26,38.23-15.26,36.34,0,57.99,26.6,57.99,65.11,0,47.53-33.14,74.71-61.63,74.71-13.81,0-25.87-6.4-35.17-12.94l-3.78,10.03h-30.96V99.8ZM1432.3,289.77c5.52,3.05,12.35,5.52,18.6,6.1,20.35-2.76,40.12-21.36,40.12-63.95,0-32.41-11.63-54.65-36.92-54.65-8.14,0-15.55,2.33-21.8,8.58v103.92Z"/>
        <line class="cls-4" x1="225.44" y1="398.27" x2="1398.77" y2="392.93"/>
      </g>
    </g>
  </g>
</svg>