<?xml version="1.0" encoding="UTF-8"?>
<svg id="Camada_2" data-name="Camada 2" xmlns="http://www.w3.org/2000/svg" viewBox="0 0 1426.46 518.33">
  <defs>
    <style>
      .cls-1 {
        fill: #07233f;
      }

      .cls-1, .cls-2, .cls-3, .cls-4 {
        stroke-width: 0px;
      }

      .cls-2, .cls-4 {
        fill: #df8303;
      }

      .cls-5 {
        fill: #fff;
        stroke: #ff9408;
      }

      .cls-5, .cls-6, .cls-7 {
        stroke-miterlimit: 10;
      }

      .cls-6 {
        fill: none;
      }

      .cls-6, .cls-7 {
        stroke: #df8303;
      }

      .cls-3 {
        fill: #344559;
      }

      .cls-7 {
        fill: #153351;
        stroke-width: 3px;
      }

      .cls-4 {
        fill-rule: evenodd;
      }
    </style>
  </defs>
  <g id="Camada_1-2" data-name="Camada 1">
    <g>
      <rect class="cls-5" x=".5" y=".5" width="1425.46" height="517.33"/>
      <g>
        <g>
          <path class="cls-4" d="M813.25,215.38h-8.32s1.84,10.85,1.84,10.85h4.68s1.81-10.85,1.81-10.85ZM813.37,213.68l-1.88-45.19c-.04-.84-.59-1.4-1.32-1.67-.35-.13-.75-.2-1.16-.2-.4,0-.8.07-1.14.19-.72.27-1.28.84-1.31,1.68l-1.77,45.19h8.57ZM809.11,233.55c1.07,0,1.93.86,1.93,1.93,0,.76-.43,1.43-1.08,1.74v8.55s4.34-10.4,4.34-10.4l-2.73-7.45h-4.93s-2.72,7.45-2.72,7.45l4.36,10.39v-8.55c-.65-.31-1.09-.97-1.09-1.73,0-1.06.86-1.93,1.93-1.93ZM813.19,168.43l1.91,46.15-2.07,12.41,2.98,8.11.12.31-.13.3-6.09,14.62-.78,1.87-.78-1.87-6.12-14.59-.12-.3.11-.31,2.96-8.12-2.1-12.4,1.81-46.16c.06-1.64,1.09-2.69,2.41-3.2.55-.21,1.15-.31,1.74-.31.59,0,1.19.11,1.74.31,1.32.5,2.35,1.55,2.42,3.2Z"/>
          <line class="cls-6" x1="809.11" y1="251.61" x2="859.18" y2="251.61"/>
          <path class="cls-7" d="M819.91,147.85c-36.28,0-65.69,29.41-65.69,65.69s29.41,65.69,65.69,65.69,65.69-29.41,65.69-65.69-29.42-65.69-65.69-65.69ZM819.91,267.86c-30.17,0-54.63-24.45-54.63-54.62s24.45-54.63,54.63-54.63,54.62,24.45,54.62,54.63-24.45,54.62-54.62,54.62Z"/>
        </g>
        <g>
          <g>
            <path class="cls-2" d="M116.87,402.23c-4.89,3.51-12.87,6.97-20.9,6.97-16.89,0-29.58-15.36-29.58-33.31s12.83-33.87,29.62-33.87c4.61,0,12.69,1.2,18.5,3.78l-2.81,8.21c-4.25-3.41-14.35-10.57-16.98-10.93-12.78.78-18.78,11.26-18.78,27.77,0,21.09,9.83,35.99,24.55,35.99,2.58,0,5.91-.46,6.92-1.06v-24.5h9.46v20.95Z"/>
            <path class="cls-2" d="M161.8,399.69c-3.28,5.77-10.29,9.14-16.98,9.14-11.4,0-20.95-9.92-20.95-22.19s9.74-22.19,21.41-22.19c12.69,0,15.92,10.61,15.92,17.35,0,.55,0,1.06-.05,1.52h-28.15v.23c0,12,5.54,23.02,15.64,23.02,4.01,0,8.9-1.71,11.81-7.71l1.34.83ZM151.84,382.25c.32-7.34-2.77-15.41-8.31-16.75-5.68,0-10.15,6.6-10.52,16.75h18.83Z"/>
            <path class="cls-2" d="M189.07,369.33c-3.23-2.72-6.46-3.83-9.23-3.83-4.43,0-6.87,2.63-6.87,5.95s2.17,5.95,8.9,10.8c7.2,5.12,9.97,8.35,9.97,13.8,0,8.67-7.29,12.78-14.03,12.78-4.43,0-8.26-1.85-11.35-4.2l.83-1.29c2.26,2.08,5.68,4.38,9.83,4.38,4.57,0,7.89-2.77,7.89-7.34,0-3.46-1.61-5.68-8.67-11.03-7.06-5.35-9.23-8.86-9.23-13.38,0-6.83,5.44-11.54,12.09-11.54,3.97,0,7.94,1.71,10.75,3.55l-.88,1.34Z"/>
            <path class="cls-2" d="M220.77,366.89c-1.94-.09-7.94-.32-11.67-.41v35.44c0,3,1.06,5.35,4.66,5.35,2.49,0,4.61-1.2,6.55-3.04l.83,1.34c-2.91,1.85-6.41,3.28-10.43,3.28-8.07,0-10.38-5.49-10.38-11.26v-31.15h-5.03v-1.06h5.03v-6.23l8.77-7.8v14.03h11.67v1.52Z"/>
            <path class="cls-2" d="M249.05,404.44c-2.68,1.84-7.1,4.38-11.86,4.38-6.97,0-13.2-5.4-13.2-12.78,0-7.94,7.24-11.81,14.3-11.81,3.51,0,6.87.97,10.57,2.49v-7.98c0-4.11,0-12.6-10.75-12.6-4.2,0-7.29,1.34-10.84,3.78l-.83-1.29c3.55-2.03,9.32-4.2,16.29-4.2,14.95,0,14.95,9.97,14.95,14.76v28.7h-7.52l-1.11-3.46ZM228.61,357.06c1.11-5.72,4.48-9.27,8.03-9.97,2.31,0,13.52,3.88,15.92,4.75.55-.55,1.61-2.21,2.21-4.52l1.01.18c-1.15,5.63-4.11,9.41-7.71,10.06-2.54,0-13.52-3.97-16.06-4.89-.78.6-1.89,2.4-2.45,4.57l-.97-.18ZM248.87,387.74c-2.21-.83-5.72-1.71-8.86-1.71-3.97.78-7.29,3.74-7.29,9.83s3,10.2,8.72,10.2c3.14,0,5.45-1.29,7.43-2.77v-15.55Z"/>
            <path class="cls-2" d="M265.01,386.63c0-12.83,10.38-22.19,21.09-22.19s21.09,9.37,21.09,22.19-10.38,22.19-21.09,22.19-21.09-9.32-21.09-22.19ZM287.02,407.76c6.6-1.01,10.98-7.7,10.98-19.15,0-12.55-5.08-21.69-13.24-23.12-6.69.97-10.57,7.84-10.57,19.42,0,12.27,4.11,21.59,12.83,22.84Z"/>
            <path class="cls-3" d="M337.36,343.31h12.23v64.6h-12.23v-64.6Z"/>
            <path class="cls-3" d="M360.66,365.36l8.91-.92,2.12,6.05c4.52-3.92,9.55-6.05,15.09-6.05,11.53,0,11.53,9.23,11.53,12.69v30.78h-11.3v-31.37c0-2.4-.05-8.49-6.92-8.49-3,0-5.58,1.11-8.17,3.6v36.27h-11.26v-42.54Z"/>
            <path class="cls-3" d="M431.34,366.93c-1.43-.09-7.94-.37-11.81-.46v35.25c0,2.86,1.25,5.21,4.98,5.21,2.45,0,4.43-1.11,6.32-2.77l.78,1.43c-3.65,2.03-7.66,3.23-11.63,3.23-8.9,0-11.77-5.72-11.77-12.37v-30.04h-4.66v-1.06h4.66v-5.17l11.3-10.2v15.36h11.81v1.57Z"/>
            <path class="cls-3" d="M473.24,399.32c-3.46,5.91-11.12,9.51-18.23,9.51-11.35,0-22.33-9.23-22.33-22.33s10.61-22.06,22.98-22.06c14.72,0,17.26,13.15,16.84,19.33h-28.05c.05,11.95,5.17,22.47,15.23,22.47,4.48,0,9.55-2.03,12.23-7.84l1.34.92ZM460.73,382.71c.28-6.37-1.62-15.96-7.2-17.21-5.03,0-8.86,7.11-9.09,17.21h16.29Z"/>
            <path class="cls-3" d="M480.9,343.31l11.17-.92v65.52h-11.17v-64.6Z"/>
            <path class="cls-3" d="M507.75,345.89c3.41,0,6.04,2.54,6.04,6s-2.63,6.05-6.04,6.05-6-2.54-6-6.05,2.58-6,6-6ZM502.12,365.36l11.3-.92v43.46h-11.3v-42.54Z"/>
            <path class="cls-3" d="M549.09,401.91c6.41,0,12,2.68,12,10.47,0,9.69-8.44,17.58-23.16,17.58-10.61,0-18.32-4.2-18.32-10.8,0-3.55,2.21-5.35,6.92-6.51-2.63-3.46-4.71-7.11-5.17-8.95,0-1.34,2.58-6.74,6.09-11.77-3.23-2.81-5.35-6.74-5.35-11.4,0-9.6,8.91-16.1,18.41-16.1,2.54,0,5.08.46,7.38,1.34,1.2-2.86,3.83-7.94,5.35-10.84l6.78,7.7c-2.31.92-8.86,3.04-11.21,3.55,5.81,2.54,10.06,7.7,10.06,14.35,0,9.6-8.86,16.06-18.41,16.06-4.48,0-8.86-1.43-12.18-3.97-.74,1.48-1.34,3.83-1.52,5.26.23,2.77,1.94,4.02,5.63,4.02h16.7ZM527.77,412.89c-.37,1.01-.88,2.72-1.15,4.15,0,6.74,3,11.67,12.87,11.67,7.61,0,12.92-2.95,15.23-5.12.14-.88.28-3.69.28-4.75,0-5.91-3.05-5.95-5.63-5.95h-21.59ZM541.43,395.58c3.74-.55,6.46-5.31,6.46-13.47,0-7.61-2.45-15.92-8.35-16.61-3.65.55-6.37,5.68-6.37,13.75,0,7.61,2.45,15.64,8.26,16.33Z"/>
            <path class="cls-3" d="M605.47,399.32c-3.46,5.91-11.12,9.51-18.23,9.51-11.35,0-22.33-9.23-22.33-22.33s10.61-22.06,22.98-22.06c14.72,0,17.26,13.15,16.84,19.33h-28.05c.05,11.95,5.17,22.47,15.23,22.47,4.48,0,9.55-2.03,12.23-7.84l1.34.92ZM592.97,382.71c.28-6.37-1.62-15.96-7.2-17.21-5.03,0-8.86,7.11-9.09,17.21h16.29Z"/>
            <path class="cls-3" d="M613.13,365.36l8.91-.92,2.12,6.05c4.52-3.92,9.55-6.05,15.09-6.05,11.54,0,11.54,9.23,11.54,12.69v30.78h-11.3v-31.37c0-2.4-.05-8.49-6.92-8.49-3,0-5.58,1.11-8.17,3.6v36.27h-11.26v-42.54Z"/>
            <path class="cls-3" d="M683.81,366.93c-1.43-.09-7.94-.37-11.81-.46v35.25c0,2.86,1.25,5.21,4.98,5.21,2.45,0,4.43-1.11,6.32-2.77l.78,1.43c-3.65,2.03-7.66,3.23-11.63,3.23-8.9,0-11.77-5.72-11.77-12.37v-30.04h-4.66v-1.06h4.66v-5.17l11.3-10.2v15.36h11.81v1.57Z"/>
            <path class="cls-3" d="M725.71,399.32c-3.46,5.91-11.12,9.51-18.23,9.51-11.35,0-22.33-9.23-22.33-22.33s10.61-22.06,22.98-22.06c14.72,0,17.26,13.15,16.84,19.33h-28.05c.05,11.95,5.17,22.47,15.23,22.47,4.48,0,9.55-2.03,12.23-7.84l1.34.92ZM713.2,382.71c.28-6.37-1.62-15.96-7.2-17.21-5.03,0-8.86,7.11-9.09,17.21h16.29Z"/>
          </g>
          <g>
            <path class="cls-1" d="M215.29,244.76c-11.58,20.26-35.84,38.87-65.75,38.87-48.11,0-86.29-45.9-86.29-99.94s38.32-100.76,88.91-100.76c13.23,0,37.49,3.58,54.86,11.3l-8.41,24.53c-12.68-10.2-42.87-31.43-50.73-32.67-38.18,2.48-56.1,33.36-56.1,83.53,0,62.72,31.29,105.31,71.95,105.31,23.29,0,37.91-13.92,47.55-32.67l4,2.48Z"/>
            <path class="cls-1" d="M227.7,216.23c0-38.32,31.01-66.3,62.99-66.3s62.99,27.98,62.99,66.3-31.01,66.3-62.99,66.3-62.99-27.85-62.99-66.3ZM293.45,279.36c19.71-3.03,32.81-23.02,32.81-57.2,0-37.49-15.16-64.79-39.56-69.06-19.99,2.89-31.57,23.43-31.57,58.03,0,36.67,12.27,64.51,38.32,68.23Z"/>
            <path class="cls-1" d="M377.25,152.69l19.85-1.93,6.2,24.4c9.51-13.51,24.95-23.3,44.94-25.23l-3.86,26.05c-5.24-.28-10.2-.55-14.75-.55-10.48,0-19.16.96-26.05,2.76v101.59h-26.33v-127.09Z"/>
            <path class="cls-1" d="M466.57,152.69l19.85-1.93,6.2,24.4c9.51-13.51,24.95-23.3,44.94-25.23l-3.86,26.05c-5.24-.28-10.2-.55-14.75-.55-10.48,0-19.16.96-26.05,2.76v101.59h-26.33v-127.09Z"/>
            <path class="cls-1" d="M655.83,255.24c-9.79,17.23-30.74,27.29-50.73,27.29-34.05,0-62.58-29.64-62.58-66.3s29.08-66.3,63.96-66.3c37.91,0,47.55,31.7,47.55,51.83,0,1.65,0,3.17-.14,4.55h-84.08v.69c0,35.84,16.54,68.78,46.73,68.78,11.99,0,26.6-5.1,35.29-23.02l4,2.48ZM626.05,203.14c.97-21.92-8.27-46.04-24.81-50.04-16.95,0-30.33,19.71-31.43,50.04h56.24Z"/>
            <path class="cls-1" d="M741.97,157.24c-5.79-.28-23.71-.97-34.87-1.24v105.86c0,8.96,3.17,15.99,13.92,15.99,7.44,0,13.78-3.58,19.57-9.1l2.48,4c-8.68,5.51-19.16,9.79-31.15,9.79-24.12,0-31.01-16.4-31.01-33.63v-93.04h-15.03v-3.17h15.03v-18.61l26.19-23.29v41.9h34.87v4.55Z"/>
            <path class="cls-1" d="M897.6,152.69l19.85-1.93,6.2,24.4c9.51-13.51,24.95-23.3,44.94-25.23l-3.86,26.05c-5.24-.28-10.2-.55-14.75-.55-10.48,0-19.16.96-26.05,2.76v101.59h-26.33v-127.09Z"/>
            <path class="cls-2" d="M1001.47,86.8h36.53v189.81h22.88c11.3,0,51.55-1.38,55.14-1.52v4.69h-114.55V86.8Z"/>
            <path class="cls-2" d="M1196.52,269.99c-8.82,6.2-20.26,12.54-34.05,12.54-22.74,0-39.56-17.23-39.56-38.6,0-26.19,24.81-34.74,43.56-34.74,11.58,0,21.78,3.45,29.36,6.75v-25.22c0-10.2,0-34.74-32.67-34.74-11.03,0-20.12,2.76-31.15,10.47l-2.48-4c12.68-6.89,32.81-12.54,52.65-12.54,47.42,0,47.42,32.12,47.42,49.07v80.77h-29.64l-3.45-9.79ZM1195.83,219.26c-5.1-2.21-12.13-4.41-21.37-4.41-11.44,2.62-18.2,11.3-18.2,28.12,0,17.92,7.58,29.91,22.61,29.91,6.89,0,11.72-2.34,16.95-6.34v-47.28Z"/>
            <path class="cls-2" d="M1258.14,86.8l33.49-2.76v80.36c8.27-8.27,19.44-14.47,36.25-14.47,34.46,0,55,25.23,55,61.75,0,45.07-31.43,70.85-58.45,70.85-13.09,0-24.53-6.07-33.36-12.27l-3.59,9.51h-29.36V86.8ZM1291.63,266.96c5.24,2.89,11.72,5.24,17.64,5.79,19.3-2.62,38.04-20.26,38.04-60.65,0-30.74-11.03-51.83-35.01-51.83-7.72,0-14.75,2.21-20.68,8.13v98.56Z"/>
          </g>
        </g>
      </g>
    </g>
  </g>
</svg>