<?xml version="1.0" encoding="UTF-8"?>
<svg id="Camada_2" data-name="Camada 2" xmlns="http://www.w3.org/2000/svg" viewBox="0 0 1319.63 432.6">
  <defs>
    <style>
      .cls-1 {
        fill: #07233f;
      }

      .cls-1, .cls-2, .cls-3 {
        stroke-width: 0px;
      }

      .cls-2, .cls-3 {
        fill: #df8303;
      }

      .cls-4 {
        fill: none;
      }

      .cls-4, .cls-5 {
        stroke: #df8303;
        stroke-miterlimit: 10;
      }

      .cls-5 {
        fill: #153351;
        stroke-width: 3px;
      }

      .cls-3 {
        fill-rule: evenodd;
      }
    </style>
  </defs>
  <g id="Camada_1-2" data-name="Camada 1">
    <g>
      <g>
        <path class="cls-1" d="M152.04,161.83c-11.58,20.26-35.84,38.87-65.75,38.87C38.18,200.7,0,154.8,0,100.76S38.32,0,88.91,0c13.23,0,37.49,3.58,54.86,11.3l-8.41,24.53c-12.68-10.2-42.87-31.43-50.73-32.67C46.45,5.65,28.53,36.53,28.53,86.7c0,62.72,31.29,105.31,71.95,105.31,23.29,0,37.91-13.92,47.55-32.67l4,2.48Z"/>
        <path class="cls-1" d="M164.44,133.29c0-38.32,31.01-66.3,62.99-66.3s62.99,27.98,62.99,66.3-31.01,66.3-62.99,66.3-62.99-27.85-62.99-66.3ZM230.19,196.42c19.71-3.03,32.81-23.02,32.81-57.2,0-37.49-15.16-64.79-39.56-69.06-19.99,2.89-31.57,23.43-31.57,58.03,0,36.67,12.27,64.51,38.32,68.23Z"/>
        <path class="cls-1" d="M314,69.75l19.85-1.93,6.2,24.4c9.51-13.51,24.95-23.3,44.94-25.23l-3.86,26.05c-5.24-.28-10.2-.55-14.75-.55-10.48,0-19.16.96-26.05,2.76v101.59h-26.33v-127.09Z"/>
        <path class="cls-1" d="M403.32,69.75l19.85-1.93,6.2,24.4c9.51-13.51,24.95-23.3,44.94-25.23l-3.86,26.05c-5.24-.28-10.2-.55-14.75-.55-10.48,0-19.16.96-26.05,2.76v101.59h-26.33v-127.09Z"/>
        <path class="cls-1" d="M592.57,172.3c-9.79,17.23-30.74,27.29-50.73,27.29-34.05,0-62.58-29.64-62.58-66.3s29.08-66.3,63.96-66.3c37.91,0,47.55,31.7,47.55,51.83,0,1.65,0,3.17-.14,4.55h-84.08v.69c0,35.84,16.54,68.78,46.73,68.78,11.99,0,26.6-5.1,35.29-23.02l4,2.48ZM562.8,120.2c.97-21.92-8.27-46.04-24.81-50.04-16.95,0-30.33,19.71-31.43,50.04h56.24Z"/>
        <path class="cls-1" d="M678.72,74.3c-5.79-.28-23.71-.97-34.87-1.24v105.86c0,8.96,3.17,15.99,13.92,15.99,7.44,0,13.78-3.58,19.57-9.1l2.48,4c-8.68,5.51-19.16,9.79-31.15,9.79-24.12,0-31.01-16.4-31.01-33.63v-93.04h-15.03v-3.17h15.03v-18.61l26.19-23.29v41.9h34.87v4.55Z"/>
        <path class="cls-1" d="M834.35,69.75l19.85-1.93,6.2,24.4c9.51-13.51,24.95-23.3,44.94-25.23l-3.86,26.05c-5.24-.28-10.2-.55-14.75-.55-10.48,0-19.16.96-26.05,2.76v101.59h-26.33v-127.09Z"/>
        <path class="cls-2" d="M938.22,3.86h36.53v189.81h22.88c11.3,0,51.55-1.38,55.14-1.52v4.69h-114.55V3.86Z"/>
        <path class="cls-2" d="M1133.27,187.05c-8.82,6.2-20.26,12.54-34.05,12.54-22.74,0-39.56-17.23-39.56-38.6,0-26.19,24.81-34.74,43.56-34.74,11.58,0,21.78,3.45,29.36,6.75v-25.22c0-10.2,0-34.74-32.67-34.74-11.03,0-20.12,2.76-31.15,10.47l-2.48-4c12.68-6.89,32.81-12.54,52.65-12.54,47.42,0,47.42,32.12,47.42,49.07v80.77h-29.64l-3.45-9.79ZM1132.58,136.33c-5.1-2.21-12.13-4.41-21.37-4.41-11.44,2.62-18.2,11.3-18.2,28.12,0,17.92,7.58,29.91,22.61,29.91,6.89,0,11.72-2.34,16.95-6.34v-47.28Z"/>
        <path class="cls-2" d="M1194.88,3.86l33.49-2.76v80.36c8.27-8.27,19.44-14.47,36.25-14.47,34.46,0,55,25.23,55,61.75,0,45.07-31.43,70.85-58.45,70.85-13.09,0-24.53-6.07-33.36-12.27l-3.59,9.51h-29.36V3.86ZM1228.38,184.02c5.24,2.89,11.72,5.24,17.64,5.79,19.3-2.62,38.04-20.26,38.04-60.65,0-30.74-11.03-51.83-35.01-51.83-7.72,0-14.75,2.21-20.68,8.13v98.56Z"/>
      </g>
      <g>
        <path class="cls-3" d="M742.31,135.41h-8.32s1.84,10.85,1.84,10.85h4.68s1.81-10.85,1.81-10.85ZM742.43,133.71l-1.88-45.19c-.04-.84-.59-1.4-1.32-1.67-.35-.13-.75-.2-1.16-.2-.4,0-.8.07-1.14.19-.72.27-1.28.84-1.31,1.68l-1.77,45.19h8.57ZM738.16,153.59c1.07,0,1.93.86,1.93,1.93,0,.76-.43,1.43-1.08,1.74v8.55s4.34-10.4,4.34-10.4l-2.73-7.45h-4.93s-2.72,7.45-2.72,7.45l4.36,10.39v-8.55c-.65-.31-1.09-.97-1.09-1.73,0-1.06.86-1.93,1.93-1.93ZM742.25,88.46l1.91,46.15-2.07,12.41,2.98,8.11.12.31-.13.3-6.09,14.62-.78,1.87-.78-1.87-6.12-14.59-.12-.3.11-.31,2.96-8.12-2.1-12.4,1.81-46.16c.06-1.64,1.09-2.69,2.41-3.2.55-.21,1.15-.31,1.74-.31.59,0,1.19.11,1.74.31,1.32.5,2.35,1.55,2.42,3.2Z"/>
        <line class="cls-4" x1="738.21" y1="171.8" x2="794.26" y2="171.22"/>
        <path class="cls-5" d="M755,67.88c-36.28,0-65.69,29.41-65.69,65.69s29.41,65.69,65.69,65.69,65.69-29.41,65.69-65.69-29.42-65.69-65.69-65.69ZM755,187.89c-30.17,0-54.63-24.45-54.63-54.62s24.45-54.63,54.63-54.63,54.62,24.45,54.62,54.63-24.45,54.62-54.62,54.62Z"/>
      </g>
    </g>
    <g>
      <path class="cls-2" d="M289.84,396.48c-6.37,4.57-16.77,9.07-27.22,9.07-21.99,0-38.52-20.01-38.52-43.39s16.71-44.11,38.58-44.11c6.01,0,16.53,1.56,24.1,4.93l-3.67,10.7c-5.53-4.45-18.69-13.76-22.11-14.24-16.65,1.02-24.46,14.66-24.46,36.17,0,27.46,12.8,46.88,31.97,46.88,3.37,0,7.69-.6,9.01-1.38v-31.91h12.32v27.28Z"/>
      <path class="cls-2" d="M348.37,393.18c-4.27,7.51-13.4,11.9-22.11,11.9-14.84,0-27.28-12.92-27.28-28.9s12.68-28.91,27.88-28.91c16.53,0,20.73,13.82,20.73,22.6,0,.72,0,1.38-.06,1.98h-36.66v.3c0,15.63,7.21,29.99,20.37,29.99,5.23,0,11.6-2.22,15.38-10.04l1.74,1.08ZM335.39,370.46c.42-9.56-3.61-20.07-10.82-21.81-7.39,0-13.22,8.59-13.7,21.81h24.52Z"/>
      <path class="cls-2" d="M383.88,353.63c-4.21-3.55-8.41-4.99-12.02-4.99-5.77,0-8.95,3.42-8.95,7.75s2.82,7.75,11.6,14.06c9.38,6.67,12.98,10.88,12.98,17.97,0,11.3-9.49,16.65-18.27,16.65-5.77,0-10.76-2.4-14.78-5.47l1.08-1.68c2.94,2.71,7.39,5.71,12.8,5.71,5.95,0,10.28-3.61,10.28-9.56,0-4.51-2.1-7.39-11.3-14.36-9.19-6.97-12.02-11.54-12.02-17.43,0-8.89,7.09-15.02,15.74-15.02,5.17,0,10.34,2.22,14,4.63l-1.14,1.74Z"/>
      <path class="cls-2" d="M425.16,350.45c-2.52-.12-10.34-.42-15.2-.54v46.15c0,3.91,1.38,6.97,6.07,6.97,3.25,0,6.01-1.56,8.53-3.97l1.08,1.74c-3.79,2.4-8.35,4.27-13.58,4.27-10.52,0-13.52-7.15-13.52-14.66v-40.56h-6.55v-1.38h6.55v-8.11l11.42-10.16v18.27h15.2v1.98Z"/>
      <path class="cls-2" d="M462,399.37c-3.48,2.4-9.25,5.71-15.44,5.71-9.07,0-17.19-7.03-17.19-16.65,0-10.34,9.43-15.38,18.63-15.38,4.57,0,8.95,1.26,13.76,3.24v-10.4c0-5.35,0-16.41-14-16.41-5.47,0-9.5,1.74-14.12,4.93l-1.08-1.68c4.63-2.64,12.14-5.47,21.21-5.47,19.47,0,19.47,12.98,19.47,19.23v37.38h-9.8l-1.44-4.51ZM435.38,337.65c1.44-7.45,5.83-12.08,10.46-12.98,3,0,17.61,5.05,20.73,6.19.72-.72,2.1-2.88,2.88-5.89l1.32.24c-1.5,7.33-5.35,12.26-10.04,13.1-3.3,0-17.61-5.17-20.91-6.37-1.02.78-2.46,3.12-3.19,5.95l-1.26-.24ZM461.76,377.61c-2.88-1.08-7.45-2.22-11.54-2.22-5.17,1.02-9.49,4.87-9.49,12.8s3.91,13.28,11.36,13.28c4.09,0,7.09-1.68,9.68-3.61v-20.25Z"/>
      <path class="cls-2" d="M482.79,376.17c0-16.71,13.52-28.91,27.46-28.91s27.46,12.2,27.46,28.91-13.52,28.9-27.46,28.9-27.46-12.14-27.46-28.9ZM511.46,403.69c8.59-1.32,14.3-10.03,14.3-24.94,0-16.35-6.61-28.25-17.25-30.11-8.71,1.26-13.76,10.22-13.76,25.3,0,15.99,5.35,28.12,16.71,29.74Z"/>
      <path class="cls-1" d="M576.58,320.38l15.92-.16.87,84.13-15.92.16-.87-84.13Z"/>
      <path class="cls-1" d="M607.22,348.79l11.59-1.32,2.85,7.84c5.84-5.17,12.36-8,19.57-8.08,15.02-.16,15.15,11.86,15.19,16.37l.41,40.08-14.72.15-.42-40.86c-.03-3.13-.17-11.06-9.13-10.96-3.91.04-7.26,1.52-10.59,4.8l.49,47.23-14.66.15-.57-55.4Z"/>
      <path class="cls-1" d="M699.3,349.88c-1.86-.1-10.34-.37-15.39-.44l.48,45.91c.04,3.73,1.69,6.77,6.56,6.72,3.18-.03,5.75-1.5,8.2-3.69l1.04,1.85c-4.72,2.69-9.93,4.31-15.1,4.36-11.6.12-15.4-7.29-15.49-15.95l-.4-39.12-6.07.06v-1.38s6.06-.06,6.06-.06l-.07-6.73,14.58-13.43.21,20.01,15.38-.16.02,2.04Z"/>
      <path class="cls-1" d="M753.99,392.7c-4.51,7.69-14.48,12.38-23.74,12.38-14.78,0-29.08-12.02-29.08-29.09s13.82-28.73,29.93-28.73c19.17,0,22.48,17.13,21.93,25.18h-36.54c.06,15.57,6.73,29.27,19.83,29.27,5.83,0,12.44-2.64,15.92-10.22l1.74,1.2ZM737.71,371.06c.36-8.29-2.1-20.79-9.38-22.42-6.55,0-11.54,9.25-11.84,22.42h21.21Z"/>
      <path class="cls-1" d="M763.96,319.74l14.54-1.2v85.33h-14.54v-84.13Z"/>
      <path class="cls-1" d="M798.94,323.11c4.45,0,7.87,3.3,7.87,7.81s-3.43,7.87-7.87,7.87-7.81-3.3-7.81-7.87,3.37-7.81,7.81-7.81ZM791.61,348.47l14.72-1.2v56.61h-14.72v-55.41Z"/>
      <path class="cls-1" d="M852.78,396.06c8.35,0,15.62,3.49,15.62,13.64,0,12.62-11,22.9-30.17,22.9-13.82,0-23.86-5.47-23.86-14.06,0-4.63,2.88-6.97,9.01-8.47-3.42-4.51-6.13-9.25-6.73-11.66,0-1.74,3.37-8.77,7.93-15.32-4.21-3.66-6.97-8.77-6.97-14.84,0-12.5,11.6-20.97,23.98-20.97,3.31,0,6.61.6,9.62,1.74,1.56-3.73,4.99-10.34,6.97-14.12l8.83,10.03c-3,1.2-11.54,3.97-14.6,4.63,7.57,3.3,13.1,10.03,13.1,18.69,0,12.5-11.54,20.91-23.98,20.91-5.83,0-11.54-1.86-15.86-5.17-.96,1.92-1.74,4.99-1.98,6.85.3,3.61,2.52,5.23,7.33,5.23h21.75ZM825.02,410.36c-.48,1.32-1.14,3.55-1.5,5.41,0,8.78,3.91,15.21,16.77,15.21,9.92,0,16.83-3.85,19.83-6.67.18-1.14.36-4.81.36-6.19,0-7.69-3.97-7.75-7.33-7.75h-28.12ZM842.81,387.83c4.87-.72,8.41-6.91,8.41-17.55,0-9.92-3.19-20.73-10.88-21.63-4.75.72-8.29,7.39-8.29,17.91,0,9.92,3.19,20.37,10.76,21.27Z"/>
      <path class="cls-1" d="M926.21,392.7c-4.51,7.69-14.48,12.38-23.74,12.38-14.78,0-29.08-12.02-29.08-29.09s13.82-28.73,29.93-28.73c19.17,0,22.48,17.13,21.93,25.18h-36.54c.06,15.57,6.73,29.27,19.83,29.27,5.83,0,12.44-2.64,15.92-10.22l1.74,1.2ZM909.93,371.06c.36-8.29-2.1-20.79-9.38-22.42-6.55,0-11.54,9.25-11.84,22.42h21.21Z"/>
      <path class="cls-1" d="M936.19,348.47l11.6-1.2,2.76,7.87c5.89-5.11,12.44-7.87,19.65-7.87,15.02,0,15.02,12.02,15.02,16.53v40.08h-14.72v-40.86c0-3.13-.06-11.06-9.01-11.06-3.91,0-7.27,1.44-10.64,4.69v47.23h-14.66v-55.41Z"/>
      <path class="cls-1" d="M1028.25,350.51c-1.86-.12-10.34-.48-15.38-.6v45.91c0,3.73,1.62,6.79,6.49,6.79,3.19,0,5.77-1.44,8.23-3.61l1.02,1.86c-4.75,2.64-9.98,4.21-15.14,4.21-11.6,0-15.32-7.45-15.32-16.11v-39.12h-6.07v-1.38h6.07v-6.73l14.72-13.28v20.01h15.38v2.04Z"/>
      <path class="cls-1" d="M1082.82,392.7c-4.51,7.69-14.48,12.38-23.74,12.38-14.78,0-29.08-12.02-29.08-29.09s13.82-28.73,29.93-28.73c19.17,0,22.48,17.13,21.93,25.18h-36.54c.06,15.57,6.73,29.27,19.83,29.27,5.83,0,12.44-2.64,15.92-10.22l1.74,1.2ZM1066.53,371.06c.36-8.29-2.1-20.79-9.38-22.42-6.55,0-11.54,9.25-11.84,22.42h21.21Z"/>
    </g>
  </g>
</svg>