<?xml version="1.0" encoding="UTF-8"?>
<svg id="Camada_2" data-name="Camada 2" xmlns="http://www.w3.org/2000/svg" viewBox="0 0 132.37 132.37">
  <defs>
    <style>
      .cls-1 {
        fill: #153351;
        stroke: #fff;
      }

      .cls-1, .cls-2 {
        stroke-miterlimit: 10;
      }

      .cls-2 {
        fill: none;
        stroke: #df8303;
      }

      .cls-3 {
        fill: #df8303;
        fill-rule: evenodd;
        stroke-width: 0px;
      }
    </style>
  </defs>
  <g id="Camada_1-2" data-name="Camada 1">
    <g>
      <path class="cls-3" d="M59.52,68.03h-8.32s1.84,10.85,1.84,10.85h4.68s1.81-10.85,1.81-10.85ZM59.65,66.33l-1.88-45.19c-.04-.84-.59-1.4-1.32-1.67-.35-.13-.75-.2-1.16-.2-.4,0-.8.07-1.14.19-.72.27-1.28.84-1.31,1.68l-1.77,45.19h8.57ZM55.38,86.2c1.07,0,1.93.86,1.93,1.93,0,.76-.43,1.43-1.08,1.74v8.55s4.34-10.4,4.34-10.4l-2.73-7.45h-4.93s-2.72,7.45-2.72,7.45l4.36,10.39v-8.55c-.65-.31-1.09-.97-1.09-1.73,0-1.06.86-1.93,1.93-1.93ZM59.47,21.08l1.91,46.15-2.07,12.41,2.98,8.11.12.31-.13.3-6.09,14.62-.78,1.87-.78-1.87-6.12-14.59-.12-.3.11-.31,2.96-8.12-2.1-12.4,1.81-46.16c.06-1.64,1.09-2.69,2.41-3.2.55-.21,1.15-.31,1.74-.31.59,0,1.19.11,1.74.31,1.32.5,2.35,1.55,2.42,3.2Z"/>
      <line class="cls-2" x1="55.39" y1="104.26" x2="105.46" y2="104.26"/>
      <path class="cls-1" d="M66.19.5C29.91.5.5,29.91.5,66.19s29.41,65.69,65.69,65.69,65.69-29.41,65.69-65.69S102.45.5,66.19.5ZM66.19,120.51c-30.17,0-54.63-24.45-54.63-54.62S36.01,11.27,66.19,11.27s54.62,24.45,54.62,54.63-24.45,54.62-54.62,54.62Z"/>
    </g>
  </g>
</svg>