<?xml version="1.0" encoding="UTF-8"?>
<svg id="Camada_2" data-name="Camada 2" xmlns="http://www.w3.org/2000/svg" viewBox="0 0 93.15 144.53">
  <defs>
    <style>
      .cls-1 {
        fill: #0a0a54;
        stroke-width: 0px;
      }
    </style>
  </defs>
  <g id="baby_icon" data-name="baby icon">
    <g>
      <path class="cls-1" d="M62.03,52.73v-3.72c0-1.56-1.26-2.82-2.82-2.82s-2.82,1.26-2.82,2.82v3.72c0,1.56,1.26,2.82,2.82,2.82s2.82-1.26,2.82-2.82Z"/>
      <path class="cls-1" d="M30.54,49.01v3.72c0,1.56,1.26,2.82,2.82,2.82s2.82-1.26,2.82-2.82v-3.72c0-1.56-1.26-2.82-2.82-2.82s-2.82,1.26-2.82,2.82Z"/>
      <path class="cls-1" d="M46.57,144.53c25.68,0,46.57-20.89,46.57-46.58v-51.38C93.15,20.89,72.26,0,46.57,0S0,20.89,0,46.57v51.38c0,25.68,20.89,46.58,46.57,46.58ZM5.64,46.57C5.64,24,24,5.64,46.57,5.64s40.94,18.36,40.94,40.94v51.38c0,22.57-18.36,40.94-40.94,40.94S5.64,120.53,5.64,97.96v-51.38Z"/>
      <path class="cls-1" d="M42.18,75.78c.14.02.28.03.42.03,1.37,0,2.58-1,2.79-2.4.23-1.54-.83-2.98-2.37-3.21-9.4-1.41-17.01-8.28-19.38-17.48,0-.03-.03-.06-.03-.09-.03-.1-.07-.2-.11-.29-.03-.07-.06-.15-.1-.22-.05-.1-.11-.19-.18-.29-.04-.05-.07-.11-.12-.16-.08-.1-.16-.18-.25-.27-.04-.04-.08-.08-.12-.11-.1-.08-.2-.16-.31-.22-.04-.03-.09-.06-.13-.08-.11-.06-.22-.11-.33-.16-.06-.02-.11-.05-.17-.07-.1-.03-.21-.06-.31-.08-.08-.02-.16-.03-.24-.04-.09-.01-.18-.01-.27-.01-.1,0-.2,0-.3,0-.03,0-.06,0-.1,0-.16.02-.33.04-.49.04-2.14,0-3.88-1.74-3.88-3.88s1.74-3.88,3.88-3.88c.17,0,.33.02.49.04.03,0,.07,0,.1,0,.1,0,.2,0,.3,0,.09,0,.18,0,.27-.01.08,0,.17-.03.25-.04.1-.02.2-.04.3-.08.06-.02.12-.05.19-.07.11-.04.21-.09.32-.15.05-.03.1-.06.15-.1.1-.07.2-.13.29-.21.05-.04.09-.09.14-.13.08-.08.16-.16.23-.25.05-.06.08-.12.13-.18.06-.09.12-.18.17-.27.04-.07.07-.15.1-.22.04-.09.08-.19.11-.29,0-.03.03-.06.04-.1,2.7-10.45,12.13-17.75,22.94-17.75,3.34,0,5.41,4.04,5.41,7.79,0,2.56-2.09,4.65-4.65,4.65-1.74,0-3.16-1.42-3.16-3.16,0-1.56-1.26-2.82-2.82-2.82s-2.82,1.26-2.82,2.82c0,4.85,3.94,8.8,8.79,8.8,5.67,0,10.29-4.62,10.29-10.29,0-1.88-.35-3.78-.99-5.54,6.24,2.93,11.07,8.5,12.88,15.49,0,.02.02.04.03.06.08.27.19.53.34.75.02.04.05.07.08.11.16.23.35.44.57.61,0,0,0,0,0,0,.22.17.47.29.73.39.04.01.07.03.11.04.25.08.51.12.79.13.03,0,.05.01.08.01.05,0,.09-.02.14-.02.07,0,.14,0,.21,0,.16-.02.32-.04.49-.04,2.14,0,3.88,1.74,3.88,3.88s-1.74,3.88-3.88,3.88c-.14,0-.29,0-.43-.02-.05,0-.1,0-.15,0-.05,0-.1-.01-.15-.01-.04,0-.08.01-.13.01-.1,0-.2.02-.3.03-.09.01-.17.03-.26.05-.09.02-.18.05-.27.08-.09.03-.17.07-.26.11-.08.04-.15.08-.22.12-.09.05-.17.1-.25.16-.06.05-.12.1-.18.15-.08.07-.15.14-.22.21-.05.06-.1.12-.15.18-.06.08-.12.16-.17.25-.04.07-.08.14-.12.22-.04.09-.08.18-.12.27-.03.08-.05.16-.08.25-.03.1-.05.19-.06.29,0,.04-.02.08-.03.13,0,.05,0,.1,0,.15,0,.05-.02.1-.02.15,0,8.27-8.07,14.73-17.41,22.2-12.58,10.07-26.84,21.49-26.84,41.6,0,1.56,1.26,2.82,2.82,2.82s2.82-1.26,2.82-2.82c0-17.41,12.57-27.47,24.73-37.2,9.2-7.36,17.91-14.36,19.3-23.93,4.36-.87,7.65-4.73,7.65-9.34s-3.61-8.81-8.26-9.43c-4-11.82-15.12-19.9-27.77-19.9s-23.77,8.08-27.77,19.9c-4.66.62-8.26,4.61-8.26,9.43s3.6,8.8,8.25,9.43c3.5,10.35,12.46,17.93,23.39,19.57Z"/>
    </g>
  </g>
</svg>