<?xml version="1.0" encoding="UTF-8"?>
<svg id="Camada_2" data-name="Camada 2" xmlns="http://www.w3.org/2000/svg" viewBox="0 0 60.8 60.1">
  <defs>
    <style>
      .cls-1 {
        fill: #000;
      }

      .cls-1, .cls-2, .cls-3, .cls-4, .cls-5 {
        stroke-width: 0px;
      }

      .cls-2 {
        fill: #95acf4;
      }

      .cls-3 {
        fill: #040f44;
      }

      .cls-4 {
        fill: #6375ce;
      }

      .cls-5 {
        fill: #020f60;
      }
    </style>
  </defs>
  <g id="_1" data-name="1">
    <g id="E476_Copy_document_landscape" data-name="E476, Copy, document, landscape">
      <polygon class="cls-2" points="59.8 11.91 59.8 44.41 9.22 44.41 9.22 1.91 50.9 1.91 50.9 11.91 59.8 11.91"/>
      <polygon class="cls-4" points="50.58 1.4 59.48 11.4 50.58 11.4 50.58 1.4"/>
      <polygon class="cls-3" points="42.99 16.4 51.89 26.4 42.99 26.4 42.99 16.4"/>
      <polygon class="cls-5" points="51.89 26.4 51.89 58.9 1.32 58.9 1.32 16.4 42.99 16.4 42.99 26.4 51.89 26.4"/>
      <path class="cls-1" d="M51.89,60.1H1.32c-.71,0-1.32-.6-1.32-1.3V16.4c0-.7.61-1.3,1.32-1.3h41.68c.4,0,.71.2.91.4l8.9,10c.2.2.3.5.3.8v32.5c0,.7-.61,1.3-1.21,1.3ZM2.53,57.6h48.05v-30.8l-8.19-9.2H2.53v40Z"/>
      <path class="cls-1" d="M51.89,27.6h-8.9c-.71,0-1.32-.6-1.32-1.3v-10c0-.7.61-1.3,1.32-1.3s1.31.6,1.31,1.3v8.8h7.59c.71,0,1.32.6,1.32,1.3-.1.6-.71,1.2-1.32,1.2Z"/>
      <path class="cls-1" d="M59.48,45.1h-3.84c-.71,0-1.32-.6-1.32-1.3s.61-1.3,1.32-1.3h2.53V11.8l-8.19-9.2H10.12v10c0,.7-.61,1.3-1.32,1.3s-1.21-.6-1.21-1.3V1.4c0-.7.61-1.3,1.32-1.3h41.78c.41,0,.71.2.91.4l8.9,10c.2.2.3.5.3.8v32.5c-.1.7-.71,1.3-1.32,1.3Z"/>
      <path class="cls-1" d="M59.48,12.6h-8.9c-.71,0-1.32-.6-1.32-1.3V1.3c0-.7.61-1.3,1.32-1.3s1.31.6,1.31,1.3v8.8h7.59c.71,0,1.32.6,1.32,1.3-.1.6-.71,1.2-1.32,1.2Z"/>
    </g>
  </g>
</svg>