<?xml version="1.0" encoding="UTF-8"?>
<svg id="Camada_2" data-name="Camada 2" xmlns="http://www.w3.org/2000/svg" viewBox="0 0 660.15 1010.46">
  <defs>
    <style>
      .cls-1 {
        fill: #5b8ae6;
        fill-rule: evenodd;
        stroke-width: 0px;
      }
    </style>
  </defs>
  <g id="Camada_2-2" data-name="Camada 2">
    <g id="Layer_1" data-name="Layer 1">
      <path class="cls-1" d="M424.48,105.69l-138.32-24.36.08-.55c1.2-6.88,5.18-12.69,10.55-16.46l1.04-.76c5.16-3.2,11.53-4.6,18.05-3.46l88.02,15.51c6.93,1.21,12.73,5.15,16.45,10.45,3.75,5.33,5.46,12.19,4.21,19.19l-.08.44h0ZM0,187.91l651.25,114.72,7.19-40.82c10.79-61.3-30.54-120.29-91.82-131.1l-83.31-14.68.08-.53c4.08-22.98-1.71-45.62-14.27-63.53-12.55-17.94-31.9-31.14-54.95-35.2L326.13,1.27c-22.11-3.88-43.92,1.31-61.49,12.88-.71.41-1.45.88-2.15,1.38-17.87,12.53-31.01,31.86-35.06,54.98l-.08.43-89.09-15.68C77,44.47,17.98,85.8,7.19,147.09L0,187.91ZM460.54,455.24c0-16.51,13.38-29.89,29.86-29.89s29.86,13.38,29.86,29.89v432.21c0,16.49-13.36,29.88-29.86,29.88s-29.86-13.38-29.86-29.88v-432.21h0ZM300.2,455.24c0-16.51,13.38-29.89,29.86-29.89s29.86,13.38,29.86,29.89v432.21c0,16.49-13.36,29.88-29.86,29.88s-29.86-13.38-29.86-29.88v-432.21h0ZM139.86,455.24c0-16.51,13.35-29.89,29.86-29.89s29.86,13.38,29.86,29.89v432.21c0,16.49-13.39,29.88-29.86,29.88s-29.86-13.38-29.86-29.88v-432.21h0ZM19.07,338.52h621.97v547.54c0,68.42-55.95,124.4-124.38,124.4H143.45c-68.39,0-124.38-55.97-124.38-124.4V338.52Z"/>
    </g>
  </g>
</svg>