<?xml version="1.0" encoding="UTF-8"?>
<svg id="Camada_2" data-name="Camada 2" xmlns="http://www.w3.org/2000/svg" viewBox="0 0 46.17 62.51">
  <defs>
    <style>
      .cls-1 {
        fill: #fff;
      }

      .cls-1, .cls-2, .cls-3 {
        fill-rule: evenodd;
        stroke-width: 0px;
      }

      .cls-2 {
        fill: #5b8ae6;
      }

      .cls-3 {
        fill: #000;
      }
    </style>
  </defs>
  <g id="_46" data-name="46">
    <path class="cls-3" d="M6.59,4.97h6.12v-1.72c0-.76.38-1.72.95-2.29.48-.57,1.34-.96,2.29-.96h14.24c.96,0,1.72.38,2.2.96.67.57,1.05,1.53,1.05,2.29v1.72h6.02c1.91,0,3.63.76,4.78,1.91,1.15,1.34,1.91,2.87,1.91,4.69v49.9c0,.57-.38,1.05-1.15,1.05H1.05c-.48,0-1.05-.47-1.05-1.05V11.57c0-1.82.76-3.35,1.82-4.69,1.24-1.15,2.87-1.91,4.78-1.91h0Z"/>
    <path class="cls-1" d="M39.48,7.26H6.59c-1.34,0-2.29.38-3.25,1.34-.67.76-1.15,1.91-1.15,2.96v48.65h41.87V11.57c0-1.05-.57-2.2-1.34-2.96-.77-.95-1.91-1.34-3.25-1.34h0Z"/>
    <path class="cls-2" d="M20.74,48.84h0c-.86,0-1.24-.38-1.24-.96,0-.76.38-1.15,1.24-1.15h15.39c.57,0,1.05.38,1.05,1.15,0,.57-.48.96-1.05.96h-15.39Z"/>
    <path class="cls-2" d="M20.74,34.02h0c-.86,0-1.24-.57-1.24-1.15s.38-1.15,1.24-1.15h15.39c.57,0,1.05.57,1.05,1.15s-.48,1.15-1.05,1.15h-15.39Z"/>
    <path class="cls-2" d="M20.74,19.21h0c-.86,0-1.24-.57-1.24-1.15s.38-1.15,1.24-1.15h15.39c.57,0,1.05.57,1.05,1.15s-.48,1.15-1.05,1.15h-15.39Z"/>
    <path class="cls-1" d="M14.81,4.97h16.54v-1.72c0-.19-.19-.57-.38-.76-.19-.19-.38-.19-.77-.19h-14.24c-.19,0-.57,0-.76.19-.19.19-.38.57-.38.76v1.72Z"/>
    <path class="cls-2" d="M6.79,12.99h8.22c.57,0,.96.48.96,1.05v8.03c0,.57-.38,1.15-.96,1.15H6.79c-.57,0-.96-.57-.96-1.15v-8.03c0-.57.38-1.05.96-1.05h0Z"/>
    <path class="cls-2" d="M6.79,27.81h8.22c.57,0,.96.57.96,1.05v8.03c0,.76-.38,1.15-.96,1.15H6.79c-.57,0-.96-.38-.96-1.15v-8.03c0-.48.38-1.05.96-1.05h0Z"/>
    <path class="cls-2" d="M6.79,42.82h8.22c.57,0,.96.38.96,1.15v7.93c0,.58-.38,1.15-.96,1.15H6.79c-.57,0-.96-.57-.96-1.15v-7.93c0-.76.38-1.15.96-1.15h0Z"/>
  </g>
</svg>