<?xml version="1.0" encoding="UTF-8"?>
<svg id="Camada_2" data-name="Camada 2" xmlns="http://www.w3.org/2000/svg" viewBox="0 0 116.9 116.9">
  <defs>
    <style>
      .cls-1, .cls-2, .cls-3, .cls-4 {
        stroke-width: 0px;
      }

      .cls-1, .cls-2, .cls-4 {
        fill-rule: evenodd;
      }

      .cls-1, .cls-3 {
        fill: #fff;
      }

      .cls-2 {
        fill: #67cdfd;
      }

      .cls-4 {
        fill: #fefefe;
      }
    </style>
  </defs>
  <g id="_17" data-name="17">
    <path class="cls-1" d="M72.81,37.19h0c-.48-.29-.86-.19-1.05.29,0,0,1.34-7.26.29-10.42-2.29-7.93-21.12-10.13-21.12-5.16-8.03,2.29-6.5,9.94-5.35,15.67,0,0-.67-.67-1.34,0-.86.96.09,3.15.38,4.21.19.86.57,1.43.67,1.82v.29c0,.76.38,1.43.76,1.43h.1c1.82,7.17,7.46,13.1,12.52,13.1,4.69,0,10.42-5.93,12.24-13.1.48-.1.76-.67.76-1.43v-.19c.19-.38.48-.95.76-1.91.19-.96,1.34-3.92.38-4.59h0Z"/>
    <path class="cls-2" d="M79.69,47.99h0c-5.92,0-10.7,4.78-10.7,10.7s4.78,10.71,10.7,10.71,10.71-4.78,10.71-10.71-4.78-10.7-10.71-10.7h0Z"/>
    <path class="cls-1" d="M49.58,58.03c-14.72,8.22-22.17,3.54-22.17,23.71h62.22c0-6.6-.86-10.51-2.58-13.1-2.01,1.53-4.59,2.39-7.36,2.39-6.78,0-12.42-5.45-12.42-12.33l.1-.29-5.35,15.29-1.62-10.32c.1-.1.19-.1.19-.19.57-.48,1.43-1.72,1.43-2.67,0-1.15-2.29-.19-3.63-.19s-3.35-.96-3.35.19c0,.96.96,2.2,1.43,2.67l.1.09-1.44,9.37-5.54-14.62Z"/>
    <path class="cls-4" d="M73.1,64.44h0c0,.19.19.38.38.29l2.96-.67-2.68-2.68-.67,3.06Z"/>
    <path class="cls-4" d="M86,53.16h0l-1.24-1.15c-.38-.48-1.15-.48-1.63,0l-1.15,1.15,2.68,2.67,1.34-1.34c.29-.38.29-.86,0-1.34h0Z"/>
    <polygon class="cls-4" points="81.22 53.83 81.22 53.83 83.99 56.5 77.21 63.29 74.53 60.61 81.22 53.83"/>
    <path class="cls-3" d="M94.16,116.9H22.74c-12.54,0-22.74-10.2-22.74-22.74V22.74C0,10.2,10.2,0,22.74,0h71.42c12.54,0,22.74,10.2,22.74,22.74,0,2.76-2.24,5-5,5s-5-2.24-5-5c0-7.03-5.72-12.75-12.75-12.75H22.74c-7.03,0-12.75,5.72-12.75,12.75v71.42c0,7.03,5.72,12.75,12.75,12.75h71.42c7.03,0,12.75-5.72,12.75-12.75,0-2.76,2.24-5,5-5s5,2.24,5,5c0,12.54-10.2,22.74-22.74,22.74Z"/>
  </g>
</svg>