<?xml version="1.0" encoding="UTF-8"?>
<svg id="Camada_2" data-name="Camada 2" xmlns="http://www.w3.org/2000/svg" viewBox="0 0 936.83 936.83">
  <defs>
    <style>
      .cls-1 {
        fill: #333;
        stroke-width: 0px;
      }
    </style>
  </defs>
  <g id="_Ñëîé_1" data-name="Ñëîé 1">
    <g>
      <path class="cls-1" d="M782.88,529.04h-58.8c-3.67,0-6.64,2.97-6.64,6.64v329.08H72.07V219.38h329.22c3.67,0,6.64-2.97,6.64-6.64v-58.8c0-3.67-2.97-6.64-6.64-6.64H6.64c-3.67,0-6.64,2.97-6.64,6.64v776.24c0,3.67,2.97,6.64,6.64,6.64h776.24c3.67,0,6.64-2.97,6.64-6.64v-394.52c0-3.67-2.97-6.64-6.64-6.64Z"/>
      <g>
        <path class="cls-1" d="M929.48,103.65L833.18,7.35c-9.8-9.8-25.68-9.8-35.48,0-25.76,25.76-51.51,51.51-77.27,77.27-2.86,2.86-2.86,7.49,0,10.34l121.44,121.44c2.86,2.86,7.49,2.86,10.34,0l77.27-77.27c9.8-9.8,9.8-25.68,0-35.48Z"/>
        <path class="cls-1" d="M688.8,126.59c-2.86-2.86-7.49-2.86-10.34,0-138.69,138.69-277.37,277.38-416.06,416.06-4.67,4.67-8.02,10.48-9.73,16.86-3.83,14.32-7.65,28.64-11.48,42.96l93.17,93.17c14.32-3.83,28.64-7.65,42.96-11.48,6.38-1.7,12.19-5.06,16.86-9.73l416.06-416.06c2.86-2.86,2.86-7.49,0-10.34l-121.44-121.44Z"/>
        <path class="cls-1" d="M207.21,729.62c34.02-9.09,68.04-18.18,102.06-27.27l-74.79-74.79c-9.09,34.02-18.18,68.04-27.27,102.06Z"/>
      </g>
    </g>
  </g>
</svg>