<?xml version="1.0" encoding="UTF-8"?>
<svg id="Camada_2" data-name="Camada 2" xmlns="http://www.w3.org/2000/svg" xmlns:xlink="http://www.w3.org/1999/xlink" viewBox="0 0 2155.66 2155.66">
  <defs>
    <style>
      .cls-1 {
        fill: #020202;
      }

      .cls-1, .cls-2, .cls-3, .cls-4, .cls-5, .cls-6, .cls-7, .cls-8, .cls-9, .cls-10, .cls-11, .cls-12, .cls-13, .cls-14, .cls-15, .cls-16, .cls-17, .cls-18, .cls-19, .cls-20, .cls-21, .cls-22, .cls-23, .cls-24, .cls-25, .cls-26, .cls-27, .cls-28, .cls-29, .cls-30, .cls-31, .cls-32, .cls-33, .cls-34, .cls-35, .cls-36, .cls-37, .cls-38, .cls-39, .cls-40, .cls-41, .cls-42, .cls-43, .cls-44, .cls-45, .cls-46, .cls-47, .cls-48, .cls-49, .cls-50, .cls-51, .cls-52, .cls-53, .cls-54, .cls-55, .cls-56, .cls-57, .cls-58, .cls-59, .cls-60, .cls-61, .cls-62, .cls-63, .cls-64, .cls-65, .cls-66, .cls-67, .cls-68, .cls-69 {
        stroke-width: 0px;
      }

      .cls-2 {
        fill: #373736;
      }

      .cls-3 {
        fill: #1e1e1c;
      }

      .cls-4 {
        fill: #171715;
      }

      .cls-5 {
        fill: #161614;
      }

      .cls-6 {
        fill: #040404;
      }

      .cls-7 {
        fill: #000;
      }

      .cls-8 {
        fill: #333331;
      }

      .cls-9 {
        fill: #3c3c3b;
      }

      .cls-10 {
        fill: #282826;
      }

      .cls-11 {
        fill: #363635;
      }

      .cls-12 {
        fill: #252523;
      }

      .cls-13 {
        fill: #2c2c2b;
      }

      .cls-70 {
        clip-path: url(#clippath-2);
      }

      .cls-14 {
        fill: #0d0d0d;
      }

      .cls-15 {
        fill: #0c0c0c;
      }

      .cls-16 {
        fill: #21211f;
      }

      .cls-17 {
        fill: #2d2d2c;
      }

      .cls-18 {
        fill: #3b3b3a;
      }

      .cls-19 {
        fill: none;
      }

      .cls-20 {
        fill: #050505;
      }

      .cls-21 {
        fill: #1b1b19;
      }

      .cls-22 {
        fill: #181816;
      }

      .cls-71 {
        clip-path: url(#clippath-1);
      }

      .cls-23 {
        fill: #1a1a18;
      }

      .cls-24 {
        fill: #0b0b0b;
      }

      .cls-25 {
        fill: #343433;
      }

      .cls-26 {
        fill: #242422;
      }

      .cls-27 {
        fill: #313130;
      }

      .cls-28 {
        fill: #212120;
      }

      .cls-29 {
        fill: #30302f;
      }

      .cls-30 {
        fill: #10100e;
      }

      .cls-31 {
        fill: #080808;
      }

      .cls-32 {
        fill: #353534;
      }

      .cls-33 {
        fill: #292927;
      }

      .cls-34 {
        fill: #070707;
      }

      .cls-35 {
        fill: #393938;
      }

      .cls-36 {
        fill: #272725;
      }

      .cls-37 {
        fill: #131311;
      }

      .cls-38 {
        fill: #010101;
      }

      .cls-39 {
        fill: #333332;
      }

      .cls-40 {
        fill: #2f2f2e;
      }

      .cls-41 {
        fill: #2c2c2a;
      }

      .cls-42 {
        fill: #222220;
      }

      .cls-43 {
        fill: #1d1d1b;
      }

      .cls-44 {
        fill: #060606;
      }

      .cls-45 {
        fill: #1c1c1a;
      }

      .cls-46 {
        fill: #11110f;
      }

      .cls-47 {
        fill: #2a2a29;
      }

      .cls-48 {
        fill: #2e2e2d;
      }

      .cls-49 {
        fill: #0f0f0e;
      }

      .cls-72 {
        clip-path: url(#clippath);
      }

      .cls-50 {
        fill: #1f1f1d;
      }

      .cls-51 {
        fill: #262624;
      }

      .cls-52 {
        fill: #31312f;
      }

      .cls-53 {
        fill: #20201e;
      }

      .cls-54 {
        fill: #383837;
      }

      .cls-55 {
        fill: #2a2a28;
      }

      .cls-56 {
        fill: #fff;
      }

      .cls-57 {
        fill: #2b2b29;
      }

      .cls-58 {
        fill: #121210;
      }

      .cls-59 {
        fill: #141412;
      }

      .cls-60 {
        fill: #323231;
      }

      .cls-61 {
        fill: #090909;
      }

      .cls-62 {
        fill: #0a0a0a;
      }

      .cls-63 {
        fill: #030303;
      }

      .cls-64 {
        fill: #151513;
      }

      .cls-65 {
        fill: #3a3a39;
      }

      .cls-66 {
        fill: #191917;
      }

      .cls-67 {
        fill: #323230;
      }

      .cls-68 {
        fill: #2b2b2a;
      }

      .cls-69 {
        fill: #232321;
      }
    </style>
    <clipPath id="clippath">
      <circle class="cls-19" cx="1077.83" cy="1077.83" r="1077.83"/>
    </clipPath>
    <clipPath id="clippath-1">
      <circle class="cls-19" cx="1077.83" cy="1077.83" r="1056.19"/>
    </clipPath>
    <clipPath id="clippath-2">
      <circle class="cls-19" cx="1077.83" cy="1077.83" r="965.19"/>
    </clipPath>
  </defs>
  <g id="Layer_1" data-name="Layer 1">
    <g>
      <g class="cls-72">
        <polygon class="cls-7" points="-105.23 1419.05 736.61 2260.89 -105.23 2260.89 -105.23 1419.05"/>
        <polygon class="cls-7" points="-105.23 1313.93 841.73 2260.89 736.61 2260.89 -105.23 1419.05 -105.23 1313.93"/>
        <polygon class="cls-38" points="-105.23 1208.81 946.85 2260.89 841.73 2260.89 -105.23 1313.93 -105.23 1208.81"/>
        <polygon class="cls-1" points="-105.23 1103.68 1051.98 2260.89 946.85 2260.89 -105.23 1208.81 -105.23 1103.68"/>
        <polygon class="cls-63" points="-105.23 998.56 1157.1 2260.89 1051.98 2260.89 -105.23 1103.68 -105.23 998.56"/>
        <polygon class="cls-6" points="-105.23 893.44 1262.22 2260.89 1157.1 2260.89 -105.23 998.56 -105.23 893.44"/>
        <polygon class="cls-20" points="-105.23 788.32 1367.35 2260.89 1262.22 2260.89 -105.23 893.44 -105.23 788.32"/>
        <polygon class="cls-44" points="-105.23 733.07 -80.29 708.13 1447.53 2235.95 1422.59 2260.89 1367.35 2260.89 -105.23 788.32 -105.23 733.07"/>
        <rect class="cls-34" x="672.73" y="365.43" width="74.33" height="2160.67" transform="translate(-814.38 925.43) rotate(-45)"/>
        <rect class="cls-31" x="725.3" y="312.87" width="74.33" height="2160.67" transform="translate(-761.82 947.2) rotate(-45)"/>
        <rect class="cls-61" x="777.86" y="260.3" width="74.33" height="2160.67" transform="translate(-709.26 968.97) rotate(-45)"/>
        <rect class="cls-62" x="830.42" y="207.74" width="74.33" height="2160.67" transform="translate(-656.7 990.74) rotate(-45)"/>
        <rect class="cls-24" x="882.98" y="155.18" width="74.33" height="2160.67" transform="translate(-604.14 1012.51) rotate(-45)"/>
        <rect class="cls-15" x="935.54" y="102.62" width="74.33" height="2160.67" transform="translate(-551.58 1034.29) rotate(-45)"/>
        <rect class="cls-14" x="988.1" y="50.06" width="74.33" height="2160.67" transform="translate(-499.01 1056.06) rotate(-45)"/>
        <rect class="cls-49" x="1040.66" y="-2.5" width="74.33" height="2160.67" transform="translate(-446.45 1077.83) rotate(-45)"/>
        <rect class="cls-30" x="1093.23" y="-55.06" width="74.33" height="2160.67" transform="translate(-393.89 1099.6) rotate(-45)"/>
        <rect class="cls-46" x="1145.79" y="-107.63" width="74.33" height="2160.67" transform="translate(-341.33 1121.37) rotate(-45)"/>
        <rect class="cls-58" x="1198.35" y="-160.19" width="74.33" height="2160.67" transform="translate(-288.77 1143.15) rotate(-45)"/>
        <rect class="cls-37" x="1250.91" y="-212.75" width="74.33" height="2160.67" transform="translate(-236.21 1164.92) rotate(-45)"/>
        <rect class="cls-59" x="1303.47" y="-265.31" width="74.33" height="2160.67" transform="translate(-183.64 1186.69) rotate(-45)"/>
        <rect class="cls-64" x="1356.03" y="-317.87" width="74.33" height="2160.67" transform="translate(-131.08 1208.46) rotate(-45)"/>
        <rect class="cls-5" x="1408.6" y="-370.43" width="74.33" height="2160.67" transform="translate(-78.52 1230.23) rotate(-45)"/>
        <polygon class="cls-4" points="708.13 -80.29 733.07 -105.23 788.32 -105.23 2260.89 1367.35 2260.89 1422.59 2235.95 1447.53 708.13 -80.29"/>
        <polygon class="cls-22" points="893.44 -105.23 2260.89 1262.22 2260.89 1367.35 788.32 -105.23 893.44 -105.23"/>
        <polygon class="cls-66" points="998.56 -105.23 2260.89 1157.1 2260.89 1262.22 893.44 -105.23 998.56 -105.23"/>
        <polygon class="cls-23" points="1103.68 -105.23 2260.89 1051.98 2260.89 1157.1 998.56 -105.23 1103.68 -105.23"/>
        <polygon class="cls-21" points="1208.81 -105.23 2260.89 946.85 2260.89 1051.98 1103.68 -105.23 1208.81 -105.23"/>
        <polygon class="cls-45" points="1313.93 -105.23 2260.89 841.73 2260.89 946.85 1208.81 -105.23 1313.93 -105.23"/>
        <polygon class="cls-43" points="1419.05 -105.23 2260.89 736.61 2260.89 841.73 1313.93 -105.23 1419.05 -105.23"/>
        <polygon class="cls-43" points="2260.89 736.61 1419.05 -105.23 2260.89 -105.23 2260.89 736.61"/>
      </g>
      <g class="cls-71">
        <polygon class="cls-9" points="743.46 -81.48 -81.48 743.46 -81.48 -81.48 743.46 -81.48"/>
        <polygon class="cls-9" points="836.81 -81.48 -81.48 836.81 -81.48 743.46 743.46 -81.48 836.81 -81.48"/>
        <polygon class="cls-18" points="930.17 -81.48 -81.48 930.17 -81.48 836.81 836.81 -81.48 930.17 -81.48"/>
        <polygon class="cls-65" points="1023.52 -81.48 -81.48 1023.52 -81.48 930.17 930.17 -81.48 1023.52 -81.48"/>
        <polygon class="cls-35" points="1116.88 -81.48 -81.48 1116.88 -81.48 1023.52 1023.52 -81.48 1116.88 -81.48"/>
        <polygon class="cls-54" points="1210.23 -81.48 -81.48 1210.23 -81.48 1116.88 1116.88 -81.48 1210.23 -81.48"/>
        <polygon class="cls-2" points="1303.59 -81.48 -81.48 1303.59 -81.48 1210.23 1210.23 -81.48 1303.59 -81.48"/>
        <polygon class="cls-11" points="1396.94 -81.48 -81.48 1396.94 -81.48 1303.59 1303.59 -81.48 1396.94 -81.48"/>
        <polygon class="cls-32" points="1415.74 -81.48 1453.02 -44.2 -44.2 1453.02 -81.48 1415.74 -81.48 1396.94 1396.94 -81.48 1415.74 -81.48"/>
        <rect class="cls-25" x="-330.94" y="694.74" width="2117.39" height="66.01" transform="translate(-301.44 727.75) rotate(-45)"/>
        <rect class="cls-39" x="-284.27" y="741.42" width="2117.39" height="66.01" transform="translate(-320.78 774.43) rotate(-45)"/>
        <rect class="cls-60" x="-237.59" y="788.1" width="2117.39" height="66.01" transform="translate(-340.11 821.1) rotate(-45)"/>
        <rect class="cls-27" x="-190.91" y="834.78" width="2117.39" height="66.01" transform="translate(-359.45 867.78) rotate(-45)"/>
        <rect class="cls-29" x="-144.23" y="881.45" width="2117.39" height="66.01" transform="translate(-378.78 914.46) rotate(-45)"/>
        <rect class="cls-40" x="-97.56" y="928.13" width="2117.39" height="66.01" transform="translate(-398.12 961.14) rotate(-45)"/>
        <rect class="cls-48" x="-50.88" y="974.81" width="2117.39" height="66.01" transform="translate(-417.45 1007.82) rotate(-45)"/>
        <rect class="cls-17" x="-4.2" y="1021.49" width="2117.39" height="66.01" transform="translate(-436.79 1054.49) rotate(-45)"/>
        <rect class="cls-41" x="42.48" y="1068.16" width="2117.39" height="66.01" transform="translate(-456.12 1101.17) rotate(-45)"/>
        <rect class="cls-57" x="89.15" y="1114.84" width="2117.39" height="66.01" transform="translate(-475.45 1147.85) rotate(-45)"/>
        <rect class="cls-55" x="135.83" y="1161.52" width="2117.39" height="66.01" transform="translate(-494.79 1194.53) rotate(-45)"/>
        <rect class="cls-33" x="182.51" y="1208.2" width="2117.39" height="66.01" transform="translate(-514.12 1241.2) rotate(-45)"/>
        <rect class="cls-10" x="229.19" y="1254.87" width="2117.39" height="66.01" transform="translate(-533.46 1287.88) rotate(-45)"/>
        <rect class="cls-36" x="275.86" y="1301.55" width="2117.39" height="66.01" transform="translate(-552.79 1334.56) rotate(-45)"/>
        <rect class="cls-51" x="322.54" y="1348.23" width="2117.39" height="66.01" transform="translate(-572.13 1381.23) rotate(-45)"/>
        <rect class="cls-12" x="369.22" y="1394.91" width="2117.39" height="66.01" transform="translate(-591.46 1427.91) rotate(-45)"/>
        <polygon class="cls-26" points="2199.86 702.64 2237.14 739.92 2237.14 758.72 758.72 2237.14 739.92 2237.14 702.64 2199.86 2199.86 702.64"/>
        <polygon class="cls-69" points="2237.14 852.07 852.07 2237.14 758.72 2237.14 2237.14 758.72 2237.14 852.07"/>
        <polygon class="cls-42" points="2237.14 945.43 945.43 2237.14 852.07 2237.14 2237.14 852.07 2237.14 945.43"/>
        <polygon class="cls-16" points="2237.14 1038.78 1038.78 2237.14 945.43 2237.14 2237.14 945.43 2237.14 1038.78"/>
        <polygon class="cls-53" points="2237.14 1132.14 1132.14 2237.14 1038.78 2237.14 2237.14 1038.78 2237.14 1132.14"/>
        <polygon class="cls-50" points="2237.14 1225.49 1225.49 2237.14 1132.14 2237.14 2237.14 1132.14 2237.14 1225.49"/>
        <polygon class="cls-3" points="2237.14 1318.85 1318.85 2237.14 1225.49 2237.14 2237.14 1225.49 2237.14 1318.85"/>
        <polygon class="cls-43" points="2237.14 1412.2 1412.2 2237.14 1318.85 2237.14 2237.14 1318.85 2237.14 1412.2"/>
        <polygon class="cls-43" points="1412.2 2237.14 2237.14 1412.2 2237.14 2237.14 1412.2 2237.14"/>
      </g>
      <g class="cls-70">
        <rect class="cls-43" x="112.64" y="112.64" width="1930.38" height="1930.38"/>
        <path class="cls-43" d="M826.19,1583.13c-206.55,0-393.54-83.72-528.9-219.08-67.68-67.68-122.45-148.27-160.3-237.75-9.46-22.37-17.87-45.3-25.15-68.72-1.82-5.86-3.57-11.74-5.25-17.66h4.8v-409.53h-4.8c1.68-5.92,3.43-11.8,5.25-17.66,7.28-23.42,15.69-46.35,25.15-68.72,37.85-89.49,92.62-170.07,160.3-237.75,67.68-67.68,148.27-122.45,237.75-160.3,22.37-9.46,45.3-17.87,68.72-25.15,11.71-3.64,23.54-7,35.49-10.08v.66h373.86v-.66c11.95,3.07,23.78,6.44,35.49,10.08,23.42,7.28,46.35,15.69,68.72,25.15,89.49,37.85,170.07,92.62,237.75,160.3,135.36,135.36,219.08,322.35,219.08,528.9,0,413.1-334.88,747.98-747.98,747.98Z"/>
        <path class="cls-3" d="M818.16,1552.01c-200.09,0-381.24-81.1-512.37-212.23-65.56-65.56-118.62-143.63-155.29-230.32-18.33-43.34-32.57-88.85-42.22-136.01h3.11v-292.06h-3.11c9.65-47.17,23.89-92.67,42.22-136.02,36.67-86.69,89.72-164.76,155.29-230.32,131.13-131.13,312.28-212.23,512.37-212.23,400.19,0,724.6,324.42,724.6,724.6s-324.41,724.6-724.6,724.6Z"/>
        <circle class="cls-3" cx="810.12" cy="819.66" r="701.23"/>
        <circle class="cls-50" cx="802.09" cy="811.91" r="677.85"/>
        <circle class="cls-53" cx="794.05" cy="804.16" r="654.48"/>
        <circle class="cls-16" cx="786.02" cy="796.42" r="631.1"/>
        <circle class="cls-28" cx="777.98" cy="788.67" r="607.73"/>
        <circle class="cls-42" cx="769.95" cy="780.92" r="584.36"/>
        <circle class="cls-69" cx="761.92" cy="773.17" r="560.98"/>
        <circle class="cls-26" cx="753.88" cy="765.42" r="537.61"/>
        <circle class="cls-12" cx="745.85" cy="757.67" r="514.23"/>
        <circle class="cls-51" cx="737.81" cy="749.93" r="490.86"/>
        <circle class="cls-36" cx="729.78" cy="742.18" r="467.48"/>
        <circle class="cls-10" cx="721.74" cy="734.43" r="444.11"/>
        <circle class="cls-33" cx="713.71" cy="726.68" r="420.74"/>
        <circle class="cls-47" cx="705.67" cy="718.93" r="397.36"/>
        <circle class="cls-68" cx="697.64" cy="711.18" r="373.99"/>
        <circle class="cls-13" cx="689.6" cy="703.44" r="350.61"/>
        <circle class="cls-17" cx="681.57" cy="695.69" r="327.24"/>
        <circle class="cls-48" cx="673.53" cy="687.94" r="303.87"/>
        <circle class="cls-40" cx="665.5" cy="680.19" r="280.49"/>
        <circle class="cls-52" cx="657.46" cy="672.44" r="257.12"/>
        <circle class="cls-67" cx="649.43" cy="664.69" r="233.74"/>
        <circle class="cls-8" cx="641.4" cy="656.94" r="210.37"/>
        <circle class="cls-25" cx="633.36" cy="649.2" r="186.99" transform="translate(-273.54 638) rotate(-45)"/>
        <circle class="cls-32" cx="625.33" cy="641.45" r="163.62" transform="translate(-270.42 630.05) rotate(-45)"/>
        <circle class="cls-11" cx="617.29" cy="633.7" r="140.25" transform="translate(-267.29 622.1) rotate(-45)"/>
        <circle class="cls-2" cx="609.26" cy="625.95" r="116.87" transform="translate(-264.17 614.15) rotate(-45)"/>
        <circle class="cls-54" cx="601.22" cy="618.2" r="93.5" transform="translate(-261.04 606.2) rotate(-45)"/>
        <circle class="cls-65" cx="593.19" cy="610.45" r="70.12"/>
        <circle class="cls-18" cx="585.15" cy="602.71" r="46.75" transform="translate(-127.95 1046.71) rotate(-77.75)"/>
        <circle class="cls-9" cx="577.12" cy="594.96" r="23.37" transform="translate(-103.51 1068.02) rotate(-80.67)"/>
      </g>
    </g>
    <g>
      <path class="cls-56" d="M1324.44,987.43c-13.85-2.55-27.07,6.62-29.6,20.43-2.53,13.82,6.62,27.07,20.43,29.6,79.25,14.52,108.83,32.06,115.87,39.8-6.61,7.22-33.38,23.43-103.91,37.53-68.27,13.64-156.84,21.15-249.4,21.15s-181.13-7.51-249.4-21.15c-70.52-14.09-97.28-30.3-103.91-37.52,6.88-7.54,35.34-24.55,111.11-38.91,13.8-2.62,22.87-15.93,20.25-29.73-2.61-13.8-15.96-22.86-29.73-20.25-103.36,19.6-153.61,48.68-153.61,88.9v167.51c0,32.77,12.78,63.57,35.99,86.71l226.51,225.87c14.23,14.19,22.06,33.07,22.06,53.16v220.44c0,12.95,7.2,24.58,18.79,30.36,4.83,2.41,10.02,3.6,15.17,3.6,7.21,0,14.36-2.32,20.39-6.87l173.6-130.87c8.45-6.38,13.49-16.5,13.49-27.08v-89.57c0-20.09,7.83-38.97,22.06-53.15l226.52-225.88c23.21-23.14,35.99-53.93,35.99-86.71v-167.51c0-40.89-51.91-70.28-158.68-89.85ZM1411.21,1295.47l-226.52,225.88c-23.86,23.8-37.01,55.47-37.01,89.18v81.12l-139.7,105.32v-186.43c0-33.7-13.15-65.37-37.01-89.18l-226.52-225.87c-13.56-13.53-21.03-31.53-21.03-50.69v-108.68c20.48,9.68,47.21,18.14,80.32,25.47,73.49,16.27,170.83,25.24,274.09,25.24s200.6-8.96,274.09-25.24c33.11-7.33,59.84-15.79,80.32-25.47v108.68c0,19.16-7.47,37.16-21.03,50.68Z"/>
      <path class="cls-56" d="M1077.83,995.68c14.05,0,25.44-11.39,25.44-25.44v-206.25c0-14.05-11.39-25.44-25.44-25.44s-25.44,11.39-25.44,25.44v206.25c0,14.05,11.39,25.44,25.44,25.44Z"/>
      <path class="cls-56" d="M935.52,928.82c14.05,0,25.44-11.39,25.44-25.44v-406.94c0-14.05-11.39-25.44-25.44-25.44s-25.44,11.39-25.44,25.44v406.94c0,14.05,11.39,25.44,25.44,25.44Z"/>
      <path class="cls-56" d="M1220.14,817.13c14.05,0,25.44-11.39,25.44-25.44v-261.09c0-14.05-11.39-25.44-25.44-25.44s-25.44,11.39-25.44,25.44v261.09c0,14.05,11.39,25.44,25.44,25.44Z"/>
    </g>
  </g>
</svg>