<?xml version="1.0" encoding="UTF-8"?>
<svg id="Camada_2" data-name="Camada 2" xmlns="http://www.w3.org/2000/svg" viewBox="0 0 3756.2 3506.1">
  <defs>
    <style>
      .cls-1 {
        fill: #5b8ae6;
      }

      .cls-1, .cls-2, .cls-3 {
        fill-rule: evenodd;
        stroke-width: 0px;
      }

      .cls-2 {
        fill: #000;
      }

      .cls-3 {
        fill: #fffffe;
      }
    </style>
  </defs>
  <g id="Layer_1" data-name="Layer 1">
    <g id="Layer_1-2" data-name="Layer 1">
      <path class="cls-2" d="M3756.1,394.5c0-217.6-177-394.5-394.5-394.5H394.5C176.9,0,0,177,0,394.5v2717.1c0,217.6,177,394.5,394.6,394.5h2967.1c217.6,0,394.5-177,394.5-394.5l-.1-2717.1Z"/>
      <path class="cls-3" d="M3708.9,394.5c0-191.5-155.8-347.3-347.3-347.3H394.5c-191.5,0-347.3,155.8-347.3,347.3v2717.1c0,191.5,155.8,347.3,347.4,347.3h2967.1c191.5,0,347.3-155.8,347.3-347.3l-.1-2717.1Z"/>
      <g>
        <path class="cls-1" d="M394.5,221.2c-95.6,0-173.3,77.8-173.3,173.3v2717.1c0,95.6,77.7,173.3,173.3,173.3h2967.1c95.6,0,173.3-77.8,173.3-173.3V394.4c0-95.6-77.8-173.3-173.3-173.3l-2967.1.1h0ZM3361.6,3364.6H394.5c-139.4,0-252.9-113.4-252.9-252.8V394.5c0-139.4,113.4-252.8,252.8-252.8h2967.1c139.5,0,252.8,113.4,252.8,252.8v2717.1c.1,139.5-113.3,253-252.7,253Z"/>
        <path class="cls-1" d="M3574.7,846H181.4c-22,0-39.8-17.8-39.8-39.8s17.8-39.8,39.8-39.8h3393.3c22,0,39.8,17.8,39.8,39.8-.1,22-17.9,39.8-39.8,39.8Z"/>
        <path class="cls-1" d="M589.2,422.4c-39.4,0-71.6,32-71.6,71.5s32.1,71.6,71.6,71.6,71.5-32.1,71.5-71.6c-.1-39.5-32.1-71.5-71.5-71.5h0ZM589.2,644.9c-83.3,0-151.1-67.8-151.1-151.1s67.8-151,151.1-151,151,67.7,151,151-67.7,151.1-151,151.1Z"/>
        <path class="cls-1" d="M1090.2,422.4c-39.4,0-71.5,32-71.5,71.5s32,71.6,71.5,71.6,71.6-32.1,71.6-71.6c-.1-39.5-32.1-71.5-71.6-71.5h0ZM1090.2,644.9c-83.3,0-151-67.8-151-151.1s67.7-151,151-151,151.1,67.7,151.1,151-67.9,151.1-151.1,151.1Z"/>
        <path class="cls-1" d="M1591.3,422.4c-39.4,0-71.6,32-71.6,71.5s32.1,71.6,71.6,71.6,71.5-32.1,71.5-71.6c-.1-39.5-32.1-71.5-71.5-71.5h0ZM1591.3,644.9c-83.3,0-151.1-67.8-151.1-151.1s67.8-151,151.1-151,151,67.7,151,151c-.1,83.3-67.8,151.1-151,151.1Z"/>
        <path class="cls-1" d="M2092.2,422.4c-39.4,0-71.5,32-71.5,71.5s32,71.6,71.5,71.6h1074.7c39.4,0,71.5-32.1,71.5-71.5s-32-71.5-71.5-71.5l-1074.7-.1h0ZM3166.9,644.9h-1074.7c-83.3,0-151-67.8-151-151.1s67.7-151,151-151h1074.7c83.3,0,151,67.7,151,151s-67.8,151.1-151,151.1Z"/>
        <path class="cls-1" d="M531.8,1324.6h1272v-220.3H531.8v220.3h0ZM1843.6,1404.2H492c-22,0-39.8-17.8-39.8-39.8v-299.8c0-22,17.8-39.8,39.8-39.8h1351.5c22,0,39.8,17.8,39.8,39.8v299.8c0,21.9-17.8,39.8-39.7,39.8Z"/>
        <path class="cls-1" d="M567.8,1404.2l436.7,633.1c4.6,6.6,7,14.5,7,22.6v923.4l312.6-252.5v-671c0-8.1,2.5-16,7-22.6l436.7-633.1-1200,.1h0ZM971.7,3106.2c-5.9,0-11.7-1.3-17.2-3.9-13.8-6.5-22.6-20.5-22.6-35.8v-994.2l-472.7-685.3c-8.4-12.1-9.4-27.9-2.5-41.1,6.8-13.1,20.5-21.3,35.2-21.3h1351.6c14.8,0,28.3,8.2,35.2,21.3,6.9,13.1,5.9,28.9-2.5,41.1l-472.7,685.3v677.5c0,12-5.4,23.4-14.8,31l-392.2,316.6c-7,5.8-15.9,8.8-24.8,8.8Z"/>
        <path class="cls-1" d="M2333.7,1104.4h-257.8c-22,0-39.8-17.8-39.8-39.8s17.8-39.8,39.8-39.8h257.9c22,0,39.8,17.8,39.8,39.8-.2,22-17.9,39.8-39.9,39.8h0ZM3264,1104.4h-672.5c-22,0-39.8-17.8-39.8-39.8s17.8-39.8,39.8-39.8h672.5c22,0,39.8,17.8,39.8,39.8s-17.8,39.8-39.8,39.8Z"/>
        <path class="cls-1" d="M3264,1317.7h-1188.2c-22,0-39.8-17.7-39.8-39.8s17.8-39.7,39.8-39.7h1188.3c22,0,39.8,17.7,39.8,39.7-.1,22-17.9,39.8-39.9,39.8Z"/>
        <path class="cls-1" d="M2537.5,1531.1h-461.8c-22,0-39.8-17.8-39.8-39.8s17.8-39.8,39.8-39.8h461.8c22,0,39.8,17.7,39.8,39.8.1,22-17.8,39.8-39.8,39.8h0ZM3264,1531.1h-472.9c-22,0-39.8-17.8-39.8-39.8s17.8-39.8,39.8-39.8h472.9c22,0,39.8,17.7,39.8,39.8s-17.8,39.8-39.8,39.8Z"/>
        <path class="cls-1" d="M3264,1744.4h-1188.2c-22,0-39.8-17.8-39.8-39.8s17.8-39.8,39.8-39.8h1188.3c22,0,39.8,17.8,39.8,39.8-.1,22-17.9,39.8-39.9,39.8Z"/>
        <path class="cls-1" d="M2250.7,1957.7h-174.8c-22,0-39.8-17.8-39.8-39.8s17.8-39.8,39.8-39.8h174.9c22,0,39.8,17.8,39.8,39.8-.2,22-17.9,39.8-39.9,39.8h0ZM3264,1957.7h-795.5c-22,0-39.8-17.8-39.8-39.8s17.8-39.8,39.8-39.8h795.5c22,0,39.8,17.8,39.8,39.8s-17.8,39.8-39.8,39.8Z"/>
        <path class="cls-1" d="M3264,2891.5h-1619c-22,0-39.8-17.8-39.8-39.8s17.8-39.8,39.8-39.8h1619c22,0,39.8,17.8,39.8,39.8s-17.8,39.8-39.8,39.8Z"/>
        <path class="cls-1" d="M3264,2664.3h-1619c-22,0-39.8-17.8-39.8-39.8s17.8-39.8,39.8-39.8h1619c22,0,39.8,17.7,39.8,39.8s-17.8,39.8-39.8,39.8Z"/>
        <path class="cls-1" d="M3264,2437h-1619c-22,0-39.8-17.8-39.8-39.8s17.8-39.8,39.8-39.8h1619c22,0,39.8,17.8,39.8,39.8s-17.8,39.8-39.8,39.8Z"/>
        <path class="cls-1" d="M3264,2209.8h-1619c-22,0-39.8-17.8-39.8-39.8s17.8-39.8,39.8-39.8h1619c22,0,39.8,17.7,39.8,39.8s-17.8,39.8-39.8,39.8Z"/>
      </g>
    </g>
  </g>
</svg>