<?xml version="1.0" encoding="UTF-8"?>
<svg id="Camada_2" data-name="Camada 2" xmlns="http://www.w3.org/2000/svg" viewBox="0 0 89.7 84.96">
  <defs>
    <style>
      .cls-1 {
        fill: #c97cb1;
      }

      .cls-1, .cls-2 {
        stroke-width: 0px;
      }

      .cls-2 {
        fill: #0a0a54;
      }
    </style>
  </defs>
  <g id="OBJECTS">
    <g>
      <path class="cls-2" d="M89.65,2.01c-.02-.08-.04-.15-.06-.22-.02-.08-.04-.17-.08-.25-.04-.09-.09-.17-.13-.25-.03-.06-.06-.12-.1-.18-.18-.27-.42-.51-.69-.69-.06-.04-.12-.07-.19-.1-.08-.04-.16-.09-.24-.13-.08-.03-.17-.05-.25-.08-.07-.02-.14-.05-.22-.06-.16-.03-.33-.05-.49-.05h-10.81c-1.38,0-2.5,1.12-2.5,2.5s1.12,2.5,2.5,2.5h4.77l-12.41,12.41c-4.02-3.24-9.12-5.19-14.67-5.19-12.9,0-23.4,10.5-23.4,23.4,0,1.38,1.12,2.5,2.5,2.5s2.5-1.12,2.5-2.5c0-10.14,8.25-18.4,18.4-18.4s18.4,8.25,18.4,18.4-8.25,18.4-18.4,18.4c-1.38,0-2.5,1.12-2.5,2.5s1.12,2.5,2.5,2.5c12.9,0,23.4-10.5,23.4-23.4,0-5.55-1.95-10.66-5.19-14.67l12.41-12.41v4.77c0,1.38,1.12,2.5,2.5,2.5s2.5-1.12,2.5-2.5V2.5c0-.16-.02-.33-.05-.49Z"/>
      <path class="cls-1" d="M39.93,52.16c9.12-9.12,9.12-23.97,0-33.09-9.12-9.12-23.97-9.12-33.09,0-9.12,9.12-9.12,23.97,0,33.09,3.93,3.93,8.91,6.15,14.04,6.7v13.84h-5.66c-1.38,0-2.5,1.12-2.5,2.5s1.12,2.5,2.5,2.5h5.66v4.76c0,1.38,1.12,2.5,2.5,2.5s2.5-1.12,2.5-2.5v-4.76h5.66c1.38,0,2.5-1.12,2.5-2.5s-1.12-2.5-2.5-2.5h-5.66v-13.84c5.13-.55,10.12-2.77,14.04-6.7ZM10.38,22.61c3.59-3.59,8.3-5.38,13.01-5.38s9.42,1.79,13.01,5.38c7.17,7.17,7.17,18.85,0,26.02-7.17,7.17-18.85,7.17-26.02,0-7.17-7.17-7.17-18.85,0-26.02Z"/>
      <path class="cls-2" d="M54.08,59.02c-12.9,0-23.4-10.5-23.4-23.4,0-1.38,1.12-2.5,2.5-2.5s2.5,1.12,2.5,2.5c0,10.15,8.25,18.4,18.4,18.4,1.38,0,2.5,1.12,2.5,2.5s-1.12,2.5-2.5,2.5Z"/>
    </g>
  </g>
</svg>