<?xml version="1.0" encoding="UTF-8"?>
<svg id="Camada_2" data-name="Camada 2" xmlns="http://www.w3.org/2000/svg" viewBox="0 0 880.52 880.53">
  <defs>
    <style>
      .cls-1 {
        fill: #3e7edb;
      }

      .cls-1, .cls-2, .cls-3 {
        stroke-width: 0px;
      }

      .cls-2 {
        fill: #fff;
      }

      .cls-3 {
        fill: #002144;
      }
    </style>
  </defs>
  <g id="Object">
    <path class="cls-3" d="M709.25,880.53H171.28C76.83,880.53,0,803.69,0,709.25V171.28C0,76.84,76.83,0,171.28,0h537.97c94.44,0,171.28,76.84,171.28,171.28,0,20.78-16.85,37.63-37.63,37.63s-37.63-16.85-37.63-37.63c0-52.95-43.07-96.03-96.02-96.03H171.28c-52.95,0-96.02,43.08-96.02,96.03v537.96c0,52.95,43.07,96.03,96.02,96.03h537.97c52.95,0,96.02-43.08,96.02-96.03,0-20.78,16.85-37.63,37.63-37.63s37.63,16.85,37.63,37.63c0,94.45-76.83,171.28-171.28,171.28Z"/>
    <g>
      <path class="cls-3" d="M409.38,346.13h165.08c19.4,0,35.14-13.8,35.14-30.8v-167.89c0-17-15.74-30.8-35.14-30.8H218.86c-19.42,0-35.14,13.8-35.14,30.8v167.89c0,17.01,15.72,30.8,35.14,30.8h142.93l-4.7,52.72,52.29-52.72ZM246.99,176.11h299.35v17.65H246.99v-17.65ZM246.99,220.61h299.35v17.65H246.99v-17.65ZM246.99,282.77v-17.65h153.11v17.65h-153.11Z"/>
      <path class="cls-1" d="M728.34,399.6v-114.92c0-10.65-9.85-19.26-21.98-19.26h-80.87v60.59c0,18.3-16.99,33.18-37.86,33.18h-106.72v40.4c0,10.63,9.84,19.28,21.99,19.28h108.48l32.73,32.99-2.95-32.99h65.2c12.13,0,21.98-8.65,21.98-19.28Z"/>
      <path class="cls-3" d="M233.49,507.59c0,52.96,42.96,95.89,95.93,95.89s95.92-42.93,95.92-95.89-42.94-95.93-95.92-95.93-95.93,42.92-95.93,95.93Z"/>
      <path class="cls-3" d="M273.9,612.53c-49.81,0-90.18,40.39-90.18,90.18v43.76h291.38v-43.76c0-49.79-40.36-90.18-90.16-90.18h-111.03ZM365.14,730.99h-58.14l11.12-73.03-11.14,73.03h-13.3l-20.69-108.63c2.05-.14,4.06-.29,6.12-.29h100.59c2.07,0,4.09.15,6.13.29l-20.69,108.63Z"/>
      <path class="cls-2" d="M340.71,657.96h.01l11.11,73.03h13.32l20.69-108.63c-2.05-.14-4.06-.29-6.13-.29h-100.59c-2.06,0-4.07.15-6.12.29l20.69,108.63h13.3l11.14-73.03h.39l-10.92-20.05h43.65l-10.91,20.05h.37Z"/>
      <polygon class="cls-1" points="307 730.99 351.82 730.99 340.72 657.96 340.71 657.96 340.33 657.96 351.24 637.91 307.59 637.91 318.51 657.96 318.12 657.96 307 730.99"/>
      <rect class="cls-2" x="246.99" y="176.11" width="299.35" height="17.65"/>
      <rect class="cls-2" x="246.99" y="220.61" width="299.35" height="17.65"/>
      <rect class="cls-2" x="246.99" y="265.12" width="153.11" height="17.65"/>
      <path class="cls-3" d="M604.67,478.12c-38.29,2.38-69.48,33.56-71.85,71.87-2.78,44.7,32.66,81.82,76.78,81.82,1.42,0,2.82-.04,4.22-.12h91.8c1.06,0,1.36-1.44.38-1.84-11.35-4.69-19.49-17.41-19.49-32.42v-41.08h-.04l.04-1.46c0-44.11-37.12-79.53-81.84-76.77Z"/>
      <path class="cls-3" d="M565.06,639.07c-39.91,0-72.29,32.37-72.29,72.3v35.09h233.66v-35.09c0-39.94-32.38-72.3-72.31-72.3h-89.06ZM628.98,684.61l14.76,14.19-34.13,37.02-34.13-37.02,14.74-14.19s-21.89-19.86-22.86-21.58c-1.76-3.07,13.47-13.31,13.47-13.31l28.78,86.1,28.77-86.1s15.21,10.23,13.48,13.31c-.99,1.72-22.87,21.58-22.87,21.58Z"/>
      <path class="cls-2" d="M609.6,735.82l-28.78-86.1s-15.23,10.23-13.47,13.31c.97,1.72,22.86,21.58,22.86,21.58l-14.74,14.19,34.13,37.02Z"/>
      <path class="cls-2" d="M651.85,663.03c1.74-3.07-13.48-13.31-13.48-13.31l-28.77,86.1,34.13-37.02-14.76-14.19s21.88-19.86,22.87-21.58Z"/>
    </g>
  </g>
</svg>