<?xml version="1.0" encoding="UTF-8"?>
<svg id="Camada_2" data-name="Camada 2" xmlns="http://www.w3.org/2000/svg" viewBox="0 0 748.32 750.76">
  <defs>
    <style>
      .cls-1 {
        fill: #161354;
      }

      .cls-1, .cls-2 {
        stroke-width: 0px;
      }

      .cls-2 {
        fill: #fff;
      }
    </style>
  </defs>
  <g id="Layer_1" data-name="Layer 1">
    <path class="cls-1" d="M354.38.43c92.12-4.37,181.79,24.3,254.29,81.74,76.55,60.64,126.89,155.88,137.5,252.6,10.48,95.55-17.79,199.59-78.3,274.86-70.59,87.81-158.33,129.17-268.57,141.03-96.95,1.78-187.08-20.16-262.66-83.69C58.57,601.34,10.01,510.27,1.42,408.43c-8.77-104.09,23.27-199.55,90.63-278.85C157.99,51.95,254.02,8.81,354.38.43Z"/>
    <path class="cls-2" d="M113.2,198.34c25.84,16.85,49.71,42.51,72.63,63.17l115.56,102.35c-28.75,25.9-58.4,50.93-87.59,76.34l-99.65,84.99c-1-108.91,1.66-217.98-.95-326.86Z"/>
    <path class="cls-2" d="M636.03,194.08c5.89,6.51,2.58,299.82,1.73,333.53-31.87-29.65-66.05-57.13-99.16-85.4-30.19-25.08-59.69-51.22-88.52-77.85,12.66-13.09,27.73-24.57,41.54-36.49,48.7-42.05,103.8-83.8,144.41-133.78Z"/>
    <path class="cls-2" d="M434.95,377.88c25.51,23.12,183.03,151.42,187.54,166.06l-2.15,2.95c-24.2,9.71-108.91,3.6-139.95,3.22l-217.19-.16c-39.96.36-81.93,3.64-121.72.77-6.66-.48-10.96-1.56-15.36-6.62l.92-2.67,1.39,1.21,1.83-.98-2.08-1.51c59.48-56.53,125.4-107.12,187.1-161.33,21.86,12.83,38.39,33.77,61.27,45.98,21.38-12.24,40.16-30.44,58.4-46.91Z"/>
    <path class="cls-2" d="M308.07,166.65c58.31-.99,116.61-.93,174.92-.69,31.88.13,65.5-1.89,97.05,2.39,15.57,2.11,30.81,6.96,45.85,11.41-22.3,27.53-53.36,51.06-79.9,74.67l-132.36,118.55c-12.48,10.75-24.94,21.49-37.76,31.83-37.04-30.1-72.13-63.65-107.62-95.58-48.58-43.7-97.7-86.49-147.05-129.3,58.27-19.61,126.27-13.11,186.86-13.28Z"/>
  </g>
</svg>