<?xml version="1.0" encoding="UTF-8"?>
<svg id="Camada_2" data-name="Camada 2" xmlns="http://www.w3.org/2000/svg" viewBox="0 0 159.07 159.07">
  <defs>
    <style>
      .cls-1 {
        fill: #dedfe0;
      }

      .cls-1, .cls-2, .cls-3, .cls-4, .cls-5 {
        stroke-width: 0px;
      }

      .cls-2 {
        fill: #f4f4f4;
      }

      .cls-3 {
        fill: #555a5e;
      }

      .cls-4 {
        fill: #6e7174;
      }

      .cls-5 {
        fill: #d2d4da;
      }
    </style>
  </defs>
  <g id="OBJECTS">
    <g>
      <path class="cls-1" d="M159.07,79.53c0,21.45-8.49,40.91-22.29,55.21-9.73,10.09-22.1,17.61-36,21.45-6.76,1.88-13.89,2.88-21.25,2.88-6.4,0-12.63-.76-18.6-2.19-14.98-3.59-28.31-11.41-38.64-22.14C8.48,120.44,0,100.97,0,79.53,0,35.61,35.61,0,79.53,0s79.54,35.61,79.54,79.53Z"/>
      <path class="cls-2" d="M136.78,134.74c-14.47,15-34.77,24.33-57.25,24.33s-42.79-9.33-57.25-24.33l1.37-5.4c2.07-8.11,8.46-14.41,16.61-16.36l13.62-3.25c1.15-.28,2.25-.67,3.29-1.17.05-.02.1-.05.15-.08,1.76-.86,3.34-2.02,4.67-3.42,1.91-2.01,3.32-4.49,4.04-7.28l1.06-4.12.28-1.11.02-.09,1.36-5.25.4-1.57h20.75l1.55,6,.14.54.08.3v.07s.3,1.12.3,1.12l1.06,4.11c1.25,4.84,4.6,8.8,9.03,10.86.99.46,2.04.83,3.12,1.09l13.62,3.25c8.15,1.95,14.54,8.25,16.61,16.36l1.37,5.4Z"/>
      <g>
        <path class="cls-4" d="M136.78,134.74c-14.47,15-34.77,24.33-57.25,24.33s-42.79-9.33-57.25-24.33l1.37-5.4c2.07-8.11,8.46-14.41,16.61-16.36l13.62-3.25c1.15-.28,2.25-.67,3.29-1.17l12.07,20.03c4.72,7.83,16.08,7.83,20.8,0l12.02-19.95c.99.46,2.04.83,3.12,1.09l13.62,3.25c8.15,1.95,14.54,8.25,16.61,16.36l1.37,5.4Z"/>
        <g>
          <path class="cls-5" d="M82.79,142.25c0,1.43-1.16,2.58-2.58,2.58s-2.58-1.16-2.58-2.58,1.16-2.58,2.58-2.58,2.58,1.16,2.58,2.58Z"/>
          <path class="cls-5" d="M82.79,151.89c0,1.43-1.16,2.58-2.58,2.58s-2.58-1.16-2.58-2.58,1.16-2.58,2.58-2.58,2.58,1.16,2.58,2.58Z"/>
        </g>
      </g>
      <path class="cls-5" d="M91.67,92.48c-1.76,7.73-6.53,13.27-12.13,13.27s-10.38-5.56-12.14-13.29l1.35-5.25.41-1.57h20.75l1.54,6,.14.54.08.3Z"/>
      <path class="cls-2" d="M53.43,63.06c-10.33-11.59-3.44,16.75,2.28,13.43,10.05-5.82-2.28-13.43-2.28-13.43Z"/>
      <path class="cls-2" d="M105.64,63.06c10.33-11.59,3.44,16.75-2.28,13.43-10.05-5.82,2.28-13.43,2.28-13.43Z"/>
      <path class="cls-3" d="M106.8,54.31c0,2.68-.3,5.28-.86,7.76h0c-3.02,13.42-13.69,23.32-26.4,23.32-15.06,0-27.27-13.91-27.27-31.08,0-9.52,3.75-18.03,9.66-23.73,4.75-4.59,10.9-7.36,17.61-7.36,15.06,0,27.26,13.92,27.26,31.09Z"/>
      <path class="cls-2" d="M103.57,54.71c0,.88-.05,1.74-.15,2.6-.22,2.28-2.75,26.21-7.78,31.24-2.63,2.64-4.76,5.04-7.18,6.77-2.42,1.74-5.12,2.82-8.93,2.82s-6.51-1.08-8.93-2.81c-2.41-1.74-4.54-4.14-7.18-6.78-2.38-2.38-4.2-9.01-5.48-15.57h-.01c-.13-.72-.27-1.42-.39-2.12-.06-.34-.12-.68-.18-1.02-1.16-6.78-1.74-12.71-1.74-12.71-.07-.79-.12-1.6-.12-2.42,0-.21.01-.42.01-.63.05-1.89.32-3.73.78-5.49.02-.08.04-.16.06-.24,1.37-4.98,4.29-9.31,8.23-12.44,3.77-3.01,8.46-4.91,13.58-5.19.45-.03.91-.04,1.37-.04,6.64,0,12.65,2.69,17,7.03,4.35,4.35,7.04,10.36,7.04,17Z"/>
      <path class="cls-1" d="M83.41,78.33c0,1.66-1.69,3-3.78,3s-3.77-1.34-3.77-3c0-.2.02-.4.08-.58.33,1.38,1.86,2.42,3.69,2.42s3.37-1.04,3.7-2.42c.06.19.08.38.08.58Z"/>
      <path class="cls-3" d="M56.24,62.38s12.09,2.3,23.4-16.44v-18.9l-16.43,6.66-8.38,12.09-.95,10.23,2.36,6.37Z"/>
      <path class="cls-5" d="M62.97,63h0c-.75.31-1.62-.05-1.93-.8l-2.99-7.21c-.31-.75.05-1.62.8-1.93h0c.75-.31,1.62.05,1.93.8l2.99,7.21c.31.75-.05,1.62-.8,1.93Z"/>
      <path class="cls-3" d="M103.03,62.38s-12.09,2.3-23.4-16.44v-18.9l16.43,6.66,8.38,12.09.95,10.23-2.36,6.37Z"/>
      <path class="cls-3" d="M109.13,97.56v35.12c-9.43,0-17.08-7.65-17.08-17.09v-23.39c1.14-1.13,2.3-2.36,3.59-3.65,1.25-1.25,2.34-3.66,3.29-6.63,1.95.86,3.71,2.07,5.2,3.56,3.09,3.1,5,7.36,5,12.08Z"/>
    </g>
  </g>
</svg>