<?xml version="1.0" encoding="UTF-8"?>
<svg id="Camada_2" data-name="Camada 2" xmlns="http://www.w3.org/2000/svg" viewBox="0 0 3640.32 3632.23">
  <defs>
    <style>
      .cls-1 {
        fill: #5b8ae6;
        fill-rule: evenodd;
      }

      .cls-1, .cls-2 {
        stroke-width: 0px;
      }

      .cls-2 {
        fill: #000;
      }
    </style>
  </defs>
  <g id="_42" data-name="42">
    <path class="cls-1" d="M1815.26,2906.85c-52.02,0-94.58-23.62-137.34-56.76-28.39-33.08-47.3-80.38-47.3-127.86v-719.58h-724.29c-47.3,0-94.75-23.65-127.89-52.04-33.1-33.08-52.02-80.39-52.02-137.32,0-52.02,18.91-99.32,52.02-132.43,33.13-38.02,80.58-56.9,127.89-56.9h724.29v-714.86c0-52.02,18.91-94.61,47.3-132.6,37.84-33.1,85.32-52.02,137.34-52.02s99.49,18.91,137.32,52.02c33.1,37.99,52.02,80.58,52.02,132.6v714.86h719.58c47.47,0,94.78,18.88,127.88,56.9,33.11,33.1,61.5,80.41,61.5,132.43,0,56.93-28.39,104.23-61.5,137.32-33.1,28.39-80.41,52.04-127.88,52.04h-719.58v719.58c0,47.47-18.91,94.77-52.02,127.86-37.82,33.13-85.13,56.76-137.32,56.76h0Z"/>
    <path class="cls-2" d="M1734.65.85l165-.85c558.54,25.59,1095.75,328.73,1414.16,786.07,228.49,328.22,349.68,740.14,322.83,1139.26-6.52,96.46-34.06,291.84-74.2,376.26-37.28,78.47-140.38,99.95-205.71,40.8-60.2-54.54-43.31-119.55-25.66-189.18l20.24-91.07c96.34-527.48-119.31-1070.63-520.29-1421.62-370.41-324.22-869.82-441.14-1346.73-339.38C711.3,466.07,217.28,1169.1,271.18,1942.02c5.17,204.88,103.37,479.25,203.65,652.3,316.34,545.88,956.72,851.17,1577.45,756.15l94.65-16.5c47.12-9.18,97.19-20.92,140.87,6.54,62.16,39.09,86.32,122.68,43.95,185.3-31.59,46.68-84.48,60.79-136.72,71.09l-106.2,17.65c-128.88,16.02-264.05,22.63-393.95,13.6-709.58-49.34-1355.84-534.06-1590.38-1207.18-56.24-161.38-87.73-331.69-100.15-501.95C-53.39,1127.43,468.83,359.71,1215.04,101.95,1382.57,44.08,1558.18,13.3,1734.65.85h0Z"/>
  </g>
</svg>