<?xml version="1.0" encoding="UTF-8"?>
<svg id="Camada_2" data-name="Camada 2" xmlns="http://www.w3.org/2000/svg" viewBox="0 0 41.71 38.36">
  <defs>
    <style>
      .cls-1 {
        fill: #020f60;
        stroke-width: 0px;
      }
    </style>
  </defs>
  <g id="_30" data-name="30">
    <path class="cls-1" d="M32.35,20.32h7.56c-5.1,10.83-19.04,18.04-19.04,18.04,0,0-13.96-7.22-19.06-18.04h8.05l1.15-.81,1.8-6.39,4.42,17.05h2.48l2.62-9.85h4.26l1.15-.81,1.65-6.39,1.65,6.39,1.31.81ZM9.05,17.86h0l2.46-9.66h2.46l4.45,16.88,1.8-6.22,1.12-.99h4.29l2.62-9.66h2.3l2.62,9.66h7.56c.65-1.63.99-3.44.99-5.24,0-7.05-5.41-12.62-12.16-12.62-3.45,0-6.56,1.48-8.68,4.09C18.57,1.48,15.43,0,12,0,5.41,0,0,5.57,0,12.62c0,1.8.34,3.61.84,5.24h8.21Z"/>
  </g>
</svg>