<?xml version="1.0" encoding="UTF-8"?>
<svg id="Camada_2" data-name="Camada 2" xmlns="http://www.w3.org/2000/svg" viewBox="0 0 71.34 63.9">
  <defs>
    <style>
      .cls-1 {
        fill: #5b8ae6;
      }

      .cls-1, .cls-2 {
        stroke-width: 0px;
      }

      .cls-2 {
        fill: #fff;
      }
    </style>
  </defs>
  <g id="Objects">
    <g>
      <path class="cls-1" d="M45.73,1.49v43.99l-8.11-8.11c-.28-.28-.66-.44-1.06-.44s-.78.16-1.06.44l-4.71,4.71c-.29.29-.44.67-.44,1.06s.15.76.44,1.06l19,19c.58.58,1.53.58,2.11,0l19.01-19c.56-.56.56-1.55,0-2.11l-4.71-4.71c-.58-.58-1.53-.58-2.11,0l-8.11,8.11V1.49c0-.82-.67-1.49-1.49-1.49h-7.27c-.83,0-1.49.67-1.49,1.49Z"/>
      <path class="cls-2" d="M25.62,62.41V18.41l8.11,8.11c.58.58,1.53.58,2.11,0l4.71-4.71c.28-.28.44-.66.44-1.06s-.16-.78-.44-1.06L21.55.7c-.58-.58-1.53-.58-2.11,0L.44,19.71c-.29.29-.44.67-.44,1.06s.15.76.44,1.06l4.71,4.71c.28.28.66.44,1.06.44s.78-.16,1.06-.44l8.11-8.11v43.99c0,.82.67,1.49,1.49,1.49h7.27c.82,0,1.49-.67,1.49-1.49Z"/>
    </g>
  </g>
</svg>