<?xml version="1.0" encoding="UTF-8"?>
<svg id="Camada_2" data-name="Camada 2" xmlns="http://www.w3.org/2000/svg" viewBox="0 0 90.92 90.2">
  <defs>
    <style>
      .cls-1 {
        fill: #5b8ae6;
        stroke-width: 0px;
      }
    </style>
  </defs>
  <g id="_3" data-name="3">
    <g id="_969_data_file_share_scince" data-name="969, data, file, share, scince">
      <g>
        <path class="cls-1" d="M84.37,42.85h-34.37v47.35h40.91v-41.05l-6.55-6.3ZM76.19,83.36h-18.18c-.54,0-1.09-.54-1.09-1.08s.55-1.08,1.09-1.08h18.18c.55,0,1.09.54,1.09,1.08s-.55,1.08-1.09,1.08ZM76.19,76.52h-18.18c-.54,0-1.09-.54-1.09-1.08s.55-1.08,1.09-1.08h18.18c.55,0,1.09.54,1.09,1.08s-.55,1.08-1.09,1.08ZM76.19,69.86h-18.18c-.54,0-1.09-.54-1.09-1.08s.36-1.26,1.09-1.26h18.18c.55,0,1.09.54,1.09,1.08s-.55,1.26-1.09,1.26ZM76.19,63.01h-18.18c-.54,0-1.09-.54-1.09-1.08s.55-1.08,1.09-1.08h18.18c.55,0,1.09.54,1.09,1.08s-.55,1.08-1.09,1.08ZM83.82,83c-.18.18-.55.36-.73.36-.36,0-.55-.18-.73-.36-.18-.18-.36-.54-.36-.72,0-.36.18-.54.36-.72.18-.18.55-.36.73-.36.36,0,.55.18.73.36.18.18.36.54.36.72s-.18.36-.36.72ZM83.82,76.16c-.18.18-.55.36-.73.36-.36,0-.55-.18-.73-.36-.18-.18-.36-.54-.36-.72,0-.36.18-.54.36-.72.18-.18.55-.36.73-.36.36,0,.55.18.73.36.18.18.36.54.36.72s-.18.54-.36.72ZM83.82,69.5c-.18.18-.55.36-.73.36-.36,0-.55-.18-.73-.36-.18-.18-.36-.54-.36-.72,0-.36.18-.54.36-.72.18-.18.55-.36.73-.36.36,0,.55.18.73.36.18.18.36.54.36.72s-.18.54-.36.72ZM83.82,62.65c-.18.18-.55.36-.73.36-.36,0-.55-.18-.73-.36-.18-.18-.36-.54-.36-.72,0-.36.18-.54.36-.72.18-.18.55-.36.73-.36.36,0,.55.18.73.36.18.18.36.54.36.72s-.18.54-.36.72Z"/>
        <path class="cls-1" d="M0,0v47.35h40.91V6.48l-6.55-6.48H0ZM26.18,40.51H8c-.55,0-1.09-.54-1.09-1.08s.55-1.08,1.09-1.08h18.18c.55,0,1.09.54,1.09,1.08s-.55,1.08-1.09,1.08ZM26.18,33.85H8c-.55,0-1.09-.54-1.09-1.08s.55-1.08,1.09-1.08h18.18c.55,0,1.09.54,1.09,1.08s-.55,1.08-1.09,1.08ZM26.18,27.01H8c-.55,0-1.09-.54-1.09-1.08s.55-1.08,1.09-1.08h18.18c.55,0,1.09.54,1.09,1.08s-.55,1.08-1.09,1.08ZM26.18,20.34H8c-.55,0-1.09-.54-1.09-1.08s.55-1.08,1.09-1.08h18.18c.55,0,1.09.54,1.09,1.08s-.55,1.08-1.09,1.08ZM33.82,40.15c-.18.18-.54.36-.73.36-.36,0-.54-.18-.73-.36-.18-.18-.36-.54-.36-.72s.18-.54.36-.72.54-.36.73-.36.55.18.73.36c.18.18.36.54.36.72s-.18.54-.36.72ZM33.82,33.49c-.18.18-.54.36-.73.36s-.54-.18-.73-.36c-.36-.18-.55-.54-.55-.9s.18-.54.36-.72c.18-.18.54-.36.73-.36s.55.18.73.36c.18.18.36.54.36.72s0,.72-.18.9ZM33.82,26.65c-.18.18-.54.36-.73.36s-.54-.18-.73-.36c-.36-.18-.55-.54-.55-.72s.18-.54.36-.72c.18-.18.54-.36.73-.36s.55.18.73.36c.18.18.36.54.36.72s0,.54-.18.72ZM33.82,19.98c-.18.18-.54.36-.73.36s-.54-.18-.73-.36-.36-.54-.36-.72.18-.54.36-.72c.18-.18.54-.36.73-.36s.55.18.73.36c.18.18.36.54.36.72s-.18.54-.36.72Z"/>
        <path class="cls-1" d="M50,10.44h0v.18h0l2.36,4.5c.18.36.55.54,1.09.54.18,0,.36,0,.54-.18.55-.36.73-.9.55-1.44l-1.45-2.88h17.46v21.42c0,.54.54,1.08,1.09,1.08s1.09-.54,1.09-1.08V10.08c0-.54-.55-1.08-1.09-1.08h-18.73l1.45-2.88c.36-.54,0-1.26-.55-1.44-.55-.36-1.27,0-1.45.54l-2.36,4.5v.18h0v.18h0v.36q0-.18,0,0Z"/>
        <path class="cls-1" d="M39.82,76.52h-21.64v-17.28l2.91,1.44c.18,0,.36.18.54.18.36,0,.91-.18,1.09-.54.36-.54,0-1.26-.55-1.44l-4.55-2.34h-.91l-4.55,2.34c-.54.36-.73.9-.54,1.44.36.54.91.72,1.45.54l2.91-1.44v18.36c0,.54.55,1.08,1.09,1.08h22.73c.55,0,1.09-.54,1.09-1.08s-.55-1.26-1.09-1.26Z"/>
      </g>
    </g>
  </g>
</svg>