<?xml version="1.0" encoding="UTF-8"?>
<svg id="Camada_2" data-name="Camada 2" xmlns="http://www.w3.org/2000/svg" viewBox="0 0 49.3 56.85">
  <defs>
    <style>
      .cls-1 {
        fill: #0e1875;
        stroke-width: 0px;
      }
    </style>
  </defs>
  <g id="_1" data-name="1">
    <g id="_1021_arrow_arrows_up_upload" data-name="1021, arrow, arrows, up, upload">
      <g>
        <path class="cls-1" d="M13.21,22.27h2.72v21.37c0,1.71,1.41,3.13,3.12,3.13h11.39c1.71,0,3.12-1.41,3.12-3.13v-21.37h2.62c1.11,0,2.12-.6,2.72-1.61.5-1.01.5-2.22-.1-3.13,0-.1-4.84-6.15-13.21-17.04-.5-.71-1.51-.6-2.02,0-13.51,17.85-12.91,16.94-12.91,17.04-.6.91-.6,2.12-.1,3.13s1.51,1.61,2.62,1.61ZM12.8,18.94L24.7,3.42l12.1,15.53c.1.2.1.4,0,.5-.1.1-.2.3-.5.3h-3.93c-.71,0-1.31.6-1.31,1.31v22.69c0,.4-.3.6-.6.6h-11.29c-.4,0-.61-.3-.61-.6v-22.79c0-.71-.6-1.31-1.31-1.31h-3.93c-.3,0-.4-.2-.5-.3-.1,0-.2-.2,0-.4Z"/>
        <path class="cls-1" d="M47.99,25.29h-8.87c-.71,0-1.31.61-1.31,1.31s.61,1.31,1.31,1.31h7.56v26.52H2.62v-26.62h7.56c.71,0,1.31-.6,1.31-1.31s-.6-1.31-1.31-1.31H1.31c-.71,0-1.31.6-1.31,1.31v29.04c0,.71.6,1.31,1.31,1.31h46.68c.71,0,1.31-.6,1.31-1.31v-29.04c0-.71-.61-1.21-1.31-1.21Z"/>
      </g>
    </g>
  </g>
</svg>