<?xml version="1.0" encoding="UTF-8"?>
<svg id="Camada_2" data-name="Camada 2" xmlns="http://www.w3.org/2000/svg" viewBox="0 0 159.07 159.07">
  <defs>
    <style>
      .cls-1 {
        fill: #dedfe0;
      }

      .cls-1, .cls-2, .cls-3, .cls-4, .cls-5, .cls-6 {
        stroke-width: 0px;
      }

      .cls-2 {
        opacity: .3;
      }

      .cls-2, .cls-5 {
        fill: #6e7174;
      }

      .cls-3 {
        fill: #f4f4f4;
      }

      .cls-4 {
        fill: #555a5e;
      }

      .cls-6 {
        fill: #d2d4da;
      }
    </style>
  </defs>
  <g id="OBJECTS">
    <g>
      <path class="cls-1" d="M159.07,79.53c0,21.44-8.49,40.91-22.28,55.21-14.47,15-34.77,24.32-57.25,24.32s-42.79-9.33-57.25-24.33C8.48,120.44,0,100.97,0,79.53,0,35.61,35.61,0,79.54,0s79.53,35.61,79.53,79.53Z"/>
      <path class="cls-3" d="M136.79,134.74c-14.47,15-34.77,24.33-57.25,24.33s-42.79-9.33-57.25-24.33l1.37-5.4c2.07-8.11,8.46-14.41,16.61-16.36l13.62-3.25c1.15-.28,2.25-.67,3.29-1.17,1.82-.87,3.45-2.06,4.82-3.5,1.91-2.01,3.32-4.49,4.04-7.28l1.06-4.12.28-1.11.02-.09,1.36-5.25.4-1.57h20.75l1.55,6,.14.54.08.3v.07s.3,1.12.3,1.12l1.06,4.11c1.53,5.92,6.2,10.52,12.15,11.95l13.62,3.25c8.15,1.95,14.54,8.25,16.61,16.36l1.37,5.4Z"/>
      <path class="cls-6" d="M91.67,92.48c-1.76,7.73-6.53,13.27-12.13,13.27s-10.38-5.56-12.14-13.29l1.35-5.25.41-1.57h20.75l1.54,6,.14.54.08.3Z"/>
      <path class="cls-3" d="M53.44,63.06c-10.33-11.59-3.44,16.75,2.28,13.43,10.05-5.82-2.28-13.43-2.28-13.43Z"/>
      <path class="cls-3" d="M105.64,63.06c10.33-11.59,3.44,16.75-2.28,13.43-10.05-5.82,2.28-13.43,2.28-13.43Z"/>
      <ellipse class="cls-4" cx="79.54" cy="54.31" rx="27.27" ry="31.08"/>
      <path class="cls-3" d="M103.58,54.71c0,.88-.05,1.74-.15,2.6-.12,1.22-.9,8.59-2.36,15.98,0,.03,0,.07-.02.1-1.27,6.43-3.06,12.83-5.4,15.16-2.64,2.64-4.76,5.04-7.18,6.77-2.42,1.74-5.13,2.82-8.93,2.82s-6.51-1.08-8.93-2.82c-2.41-1.73-4.54-4.13-7.18-6.77-2.34-2.34-4.13-8.75-5.41-15.17h0s0-.03,0-.04c-.16-.83-.31-1.66-.46-2.48-.06-.34-.12-.68-.18-1.02-1.17-6.78-1.74-12.71-1.74-12.71-.08-.79-.12-1.6-.12-2.42,0-.21,0-.42,0-.63.05-1.89.31-3.73.78-5.49.02-.08.04-.16.06-.24,2.67-9.76,11.34-17.05,21.8-17.63.46-.03.91-.04,1.38-.04,6.64,0,12.65,2.69,17,7.04,4.35,4.34,7.04,10.35,7.04,16.99Z"/>
      <g>
        <rect class="cls-2" x="60" y="124.92" width="39.09" height="24.18"/>
        <path class="cls-5" d="M135.42,129.34c-2.07-8.11-8.46-14.41-16.61-16.36l-13.62-3.25c-1.15-.28-2.25-.67-3.29-1.17-7.61,19.03-16.83,31.5-22.36,31.5s-14.75-12.47-22.36-31.5c-1.04.5-2.14.89-3.29,1.17l-13.62,3.25c-8.15,1.95-14.54,8.25-16.61,16.36l-1.37,5.4c14.46,15,34.77,24.33,57.25,24.33s42.79-9.33,57.25-24.33l-1.37-5.4Z"/>
      </g>
      <path class="cls-1" d="M83.31,76.32c0,1.66-1.69,3-3.78,3s-3.77-1.34-3.77-3c0-.2.02-.4.08-.58.33,1.38,1.86,2.42,3.69,2.42s3.37-1.04,3.7-2.42c.06.19.08.38.08.58Z"/>
      <path class="cls-4" d="M96.46,37.23c-4.34-4.33-10.3-7.05-16.91-7.14h-.02c-6.61.09-12.57,2.81-16.91,7.14-4.42,4.41-7.15,10.52-7.15,17.27,0,.89.05,1.76.15,2.64.12,1.24.91,8.72,2.4,16.23l.02.06,3.15-16.92c.55-2.96,3.13-5.1,6.14-5.09h3.57c1.02,3.83,4.49,6.66,8.64,6.66s7.63-2.82,8.64-6.65h3.57c3.01-.02,5.59,2.12,6.14,5.08l3.15,16.92.02-.06c1.49-7.51,2.28-14.99,2.4-16.23.1-.88.15-1.75.15-2.64,0-6.75-2.73-12.86-7.15-17.27Z"/>
      <path class="cls-4" d="M100.27,66.26l-1.54,6.39c-1.48,6.01-4.32,11.59-8.32,16.32-.68.81-1.49,1.47-2.38,1.99v-1.94c0-3.73-3.03-6.76-6.76-6.76h-3.56c-3.73,0-6.76,3.03-6.76,6.76v1.88c-.85-.51-1.62-1.16-2.28-1.94h0c-3.99-4.73-6.84-10.31-8.32-16.32l-1.43-5.85-2.71,2.19,1.82,7.4h0s0,0,0,0c1.28,6.42,3.07,12.83,5.41,15.17,2.64,2.64,4.77,5.04,7.18,6.77,2.42,1.74,5.13,2.82,8.93,2.82s6.51-1.08,8.93-2.82c2.42-1.73,4.54-4.13,7.18-6.77,2.32-2.31,4.1-8.64,5.37-15.02l1.86-7.55-2.6-2.72ZM75.65,92.21c-.58,0-1.14-.07-1.7-.17v-3.02c0-2.07,1.69-3.76,3.76-3.76h3.56c2.07,0,3.76,1.69,3.76,3.76v3.03c-.52.09-1.05.15-1.59.15h-7.79Z"/>
    </g>
  </g>
</svg>