<?xml version="1.0" encoding="UTF-8"?>
<svg id="Camada_2" data-name="Camada 2" xmlns="http://www.w3.org/2000/svg" xmlns:xlink="http://www.w3.org/1999/xlink" viewBox="0 0 80.82 80.82">
  <defs>
    <style>
      .cls-1 {
        fill: #161354;
      }

      .cls-1, .cls-2 {
        fill-rule: evenodd;
        stroke-width: 0px;
      }

      .cls-2 {
        fill: url(#Degradado_sin_nombre_13);
      }
    </style>
    <linearGradient id="Degradado_sin_nombre_13" data-name="Degradado sin nombre 13" x1="41.35" y1="4.92" x2="41.35" y2="74.4" gradientUnits="userSpaceOnUse">
      <stop offset="0" stop-color="#4ac14b"/>
      <stop offset="1" stop-color="#06853a"/>
    </linearGradient>
  </defs>
  <g id="OBJECTS">
    <g>
      <path class="cls-2" d="M41.35,4.92C22.04,4.92,6.34,20.51,6.34,39.67c0,7.6,2.48,14.64,6.67,20.37l-4.37,12.9,13.45-4.27c5.53,3.63,12.15,5.74,19.26,5.74,19.3,0,35.01-15.58,35.01-34.74S60.65,4.92,41.35,4.92h0Z"/>
      <path class="cls-1" d="M80.82,39.37c0,21.74-17.76,39.37-39.67,39.37-6.96,0-13.5-1.78-19.18-4.9L0,80.82l7.16-21.12c-3.61-5.93-5.69-12.89-5.69-20.33C1.47,17.63,19.23,0,41.14,0s39.67,17.63,39.67,39.37h0ZM41.14,6.27C22.75,6.27,7.79,21.12,7.79,39.37c0,7.24,2.36,13.95,6.35,19.41l-4.17,12.29,12.82-4.07c5.27,3.45,11.57,5.47,18.35,5.47,18.39,0,33.35-14.85,33.35-33.1S59.53,6.27,41.14,6.27h0ZM61.18,48.44c-.25-.4-.89-.64-1.86-1.13-.97-.48-5.76-2.82-6.65-3.14-.89-.32-1.54-.48-2.19.48-.65.97-2.51,3.14-3.08,3.78-.57.65-1.13.72-2.1.24-.97-.48-4.11-1.5-7.82-4.79-2.89-2.56-4.84-5.72-5.41-6.68-.56-.96-.06-1.49.43-1.97.44-.43.97-1.13,1.46-1.69.49-.57.65-.97.97-1.61.32-.64.16-1.21-.08-1.69-.24-.48-2.19-5.23-3-7.16-.81-1.93-1.62-1.86-2.19-1.86s-1.62.17-1.62.17c0,0-1.95.24-2.84,1.21-.89.96-3.4,3.3-3.4,8.05s3.48,9.34,3.97,9.98c.49.65,6.73,10.71,16.61,14.57,9.89,3.86,9.89,2.57,11.67,2.41,1.78-.16,5.75-2.33,6.56-4.59.81-2.25.81-4.19.57-4.59h0Z"/>
    </g>
  </g>
</svg>