<?xml version="1.0" encoding="UTF-8"?>
<svg id="Camada_2" data-name="Camada 2" xmlns="http://www.w3.org/2000/svg" xmlns:xlink="http://www.w3.org/1999/xlink" viewBox="0 0 3736 3736.96">
  <defs>
    <style>
      .cls-1 {
        fill: #000;
      }

      .cls-1, .cls-2, .cls-3, .cls-4 {
        stroke-width: 0px;
      }

      .cls-2 {
        fill: none;
      }

      .cls-3 {
        fill: #00933f;
      }

      .cls-5 {
        clip-path: url(#clippath);
      }

      .cls-4 {
        fill: #173090;
      }
    </style>
    <clipPath id="clippath">
      <rect class="cls-2" width="3736" height="3736.96"/>
    </clipPath>
  </defs>
  <g id="katman_1" data-name="katman 1">
    <g>
      <g class="cls-5">
        <path class="cls-3" d="M3181.1,2630.22l6.84-.41c45.19-.91,76.46,9.4,109.38,41.72,50.17,49.32,39.55,107.89,39.62,171.95l.17,213.94,191.62.17c32.54.05,76.66-4.84,107.84,3.54,137.08,36.91,124.49,225.19,8.2,256.74-35.42,9.6-81.4,4.54-118.04,4.59l-189.84.22-.37,269.14c-.37,16.46-.49,36.28-6.2,51.91l-1.2,3.1c-20.78,55.91-67.6,87.79-127.78,89.33-65.7-1.68-115.46-40.75-129.49-105.98l-.9-4.22c-7.59-35.3-5.18-72.61-5.23-108.55l-1.32-194.99-215.55.02c-34.57,0-87.16,6.13-118.41-7.38l-3.69-1.66c-112.52-49.66-99.39-228.05,26.85-253.76,30.93-6.3,69.24-2.27,101-2.27l211.11,1.02c4.49-9.74.63-37.82.51-49.39l-.56-170.56c-.07-39.72-6.79-83.89,10.3-121.12l7.67-16.36c21.24-39.01,56.1-58.91,97.46-70.75h0Z"/>
      </g>
      <path class="cls-4" d="M1812.58,836.55c722.57,3.06,503.94,977.43,38.34,1007.8-32.04.06-63.37-.45-94.97-6.48-427.02-81.47-590.14-975.95,56.63-1001.32h0Z"/>
      <g>
        <path class="cls-4" d="M1502.53,1898.33c54.98-5.74,79.37,38.57,115.09,72.24,41.44,39.06,152.29,130.86,207.13,146.07,57.26-7.28,191.71-115.7,232.55-152.49,78.88-71.07,61.03-88.3,183.64-46.7,263.87,89.5,466.63,326.51,521.22,598.66,14.16,70.58,31.88,157.54-25.15,214.16-43.16,42.82-100.49,33.79-155.79,33.84l-190.16-.03-1233.38.03c-159.38-.05-291.63,28.95-259.72-200.17,37.71-270.85,198-484.57,439.53-608.5,52.16-26.78,106.48-49.73,165.03-57.11h0Z"/>
        <path class="cls-1" d="M1735.36,1.42l165-.85c558.54,25.59,1095.75,328.73,1414.16,786.07,228.49,328.22,349.68,740.14,322.83,1139.26-6.52,96.46-34.06,291.84-74.2,376.26-37.28,78.47-140.38,99.95-205.71,40.8-60.2-54.54-43.31-119.55-25.66-189.18l20.24-91.07c96.34-527.48-119.31-1070.63-520.29-1421.62-370.41-324.22-869.82-441.14-1346.73-339.38C712.02,466.64,217.99,1169.67,271.9,1942.59c5.17,204.88,103.37,479.25,203.65,652.3,316.34,545.88,956.72,851.17,1577.45,756.15l94.65-16.5c47.12-9.18,97.19-20.92,140.87,6.54,62.16,39.09,86.32,122.68,43.95,185.3-31.59,46.68-84.48,60.79-136.72,71.09l-106.2,17.65c-128.88,16.02-264.05,22.63-393.95,13.6-709.58-49.34-1355.84-534.06-1590.38-1207.18-56.24-161.38-87.73-331.69-100.15-501.95C-52.68,1128,469.54,360.28,1215.75,102.52,1383.28,44.65,1558.89,13.87,1735.36,1.42h0Z"/>
      </g>
    </g>
  </g>
</svg>