<?xml version="1.0" encoding="UTF-8"?>
<svg id="Camada_2" data-name="Camada 2" xmlns="http://www.w3.org/2000/svg" viewBox="0 0 99.44 247.45">
  <defs>
    <style>
      .cls-1 {
        fill: #233642;
        stroke-width: 0px;
      }
    </style>
  </defs>
  <g id="Layer_1" data-name="Layer 1">
    <g>
      <path class="cls-1" d="M49.72,54.02c-14.89,0-27.01-12.12-27.01-27.01S34.82,0,49.72,0s27.01,12.12,27.01,27.01-12.12,27.01-27.01,27.01ZM49.72,8c-10.48,0-19.01,8.53-19.01,19.01s8.53,19.01,19.01,19.01,19.01-8.53,19.01-19.01-8.53-19.01-19.01-19.01Z"/>
      <path class="cls-1" d="M64.65,247.45c-7.33,0-13.29-5.96-13.29-13.29v-73.67h-4.14v73.67c0,7.33-5.96,13.29-13.29,13.29s-13.29-5.96-13.29-13.29v-82.68c-2.19,2.06-5.14,3.33-8.39,3.33-6.76,0-12.26-5.5-12.26-12.26v-60.9c0-17,13.83-30.84,30.84-30.84h37.77c17,0,30.84,13.83,30.84,30.84v60.9c0,6.76-5.5,12.26-12.26,12.26-3.68,0-6.99-1.63-9.24-4.21v83.56c0,7.33-5.96,13.29-13.29,13.29ZM43.22,152.5h12.14c2.21,0,4,1.79,4,4v77.67c0,2.92,2.37,5.29,5.29,5.29s5.29-2.37,5.29-5.29V72.87c0-1.45.78-2.78,2.04-3.49,1.26-.71,2.81-.68,4.04.07,4.32,2.64,6.9,7.2,6.9,12.2v60.9c0,2.35,1.91,4.26,4.26,4.26s4.26-1.91,4.26-4.26v-60.9c0-12.59-10.24-22.84-22.84-22.84H30.84c-12.59,0-22.84,10.24-22.84,22.84v60.9c0,2.35,1.91,4.26,4.26,4.26s4.26-1.91,4.26-4.26v-60.9c0-4.49,2.08-8.64,5.71-11.39,1.21-.92,2.84-1.07,4.2-.39,1.36.68,2.22,2.06,2.22,3.58v160.71c0,2.92,2.37,5.29,5.29,5.29s5.29-2.37,5.29-5.29v-77.67c0-2.21,1.79-4,4-4Z"/>
    </g>
  </g>
</svg>