<?xml version="1.0" encoding="UTF-8"?>
<svg id="Camada_2" data-name="Camada 2" xmlns="http://www.w3.org/2000/svg" viewBox="0 0 102.79 147.2">
  <defs>
    <style>
      .cls-1 {
        fill: #233642;
        stroke-width: 0px;
      }
    </style>
  </defs>
  <g id="Layer_1" data-name="Layer 1">
    <g>
      <path class="cls-1" d="M81.21,147.2c-.46,0-.91-.02-1.35-.06-6-.5-14.26-9.14-14.26-14.91,0-2.87,2.52-6.29,5.76-9.49-1.39-.6-2.59-1.31-3.59-2.04-7.52,5.61-14.09,5.55-16.37,5.3-2.29.24-8.85.31-16.37-5.3-1,.73-2.2,1.44-3.59,2.04,3.23,3.2,5.76,6.62,5.76,9.49,0,5.77-8.26,14.41-14.26,14.91-3.62.3-8.14-.57-9.96-3.92-.55-1.02-1.57-3.72.84-6.83.33-.42.65-.83.97-1.22.51-.63,1.2-1.5,1.61-2.11-.74-.91-1.99-2.36-3.05-3.58-4.16-4.81-6.05-7.08-6.69-8.63-1.85-4.5-1.1-7.79-.15-9.76,1.91-3.95,5.8-5.42,7.38-5.87,3.46-.99,6.17-1.69,8.28-2.15-.8-4.7-1.59-11.48-.31-15.37.62-2.19,3.09-5.48,9-5.48h41.06c5.91,0,8.38,3.29,9,5.48,1.28,3.88.5,10.67-.31,15.36,2.11.45,4.81,1.15,8.26,2.14,1.61.46,5.5,1.94,7.41,5.88.95,1.97,1.7,5.26-.15,9.75-.64,1.55-2.53,3.82-6.68,8.62-1.06,1.23-2.32,2.68-3.06,3.59.41.62,1.1,1.49,1.61,2.12.32.39.64.8.97,1.22,2.42,3.11,1.39,5.81.84,6.83-1.6,2.95-5.28,3.97-8.61,3.97ZM73.64,132.43c.53,2.04,5.02,6.52,6.89,6.74.16.01.31.02.46.03-2.1-2.7-4.26-6.16-1.8-9.84.64-.96,2.02-2.57,4.23-5.12,1.79-2.07,4.77-5.51,5.38-6.54.38-.96.72-2.25.3-3.12-.44-.91-1.7-1.48-2.38-1.67-7.61-2.17-10.04-2.49-10.82-2.49-1.21,0-2.36-.55-3.12-1.49-.76-.94-1.05-2.18-.79-3.37,1.22-5.53,2.04-12.76,1.41-15.14-.23-.09-.71-.19-1.47-.19H30.87c-.76,0-1.23.11-1.47.2-.64,2.38.19,9.61,1.41,15.14.26,1.18-.03,2.42-.79,3.37s-1.91,1.5-3.12,1.5c-.78,0-3.21.32-10.79,2.49-.71.2-1.97.77-2.41,1.68-.42.87-.08,2.15.3,3.12.61,1.03,3.59,4.48,5.39,6.55,2.2,2.54,3.57,4.14,4.22,5.11,2.46,3.69.29,7.15-1.8,9.85.15,0,.3-.01.46-.03,1.85-.22,6.29-4.64,6.88-6.76-.81-1.63-4.89-5.68-8.92-8.8-1.36-1.05-1.89-2.85-1.33-4.47.56-1.62,2.12-2.67,3.81-2.69,6.27.07,8.81-3.31,8.84-3.34.65-.97,1.7-1.6,2.86-1.73,1.16-.13,2.32.25,3.17,1.04,7.11,6.59,12.82,5.67,13.06,5.63.61-.13,1.02-.14,1.62.02.17.03,5.87.94,12.98-5.65.85-.79,2.01-1.17,3.17-1.04,1.16.13,2.2.76,2.86,1.73.06.08,2.56,3.34,8.7,3.34.06,0,.11,0,.18,0,1.7,0,3.22,1.08,3.78,2.69.56,1.62.03,3.42-1.33,4.47-4.05,3.14-8.15,7.2-8.93,8.82Z"/>
      <path class="cls-1" d="M8.76,92.85c-.75,0-1.54-.09-2.36-.3-5.02-1.26-6.79-6.27-6.33-10.47.11-2.3,1.71-13.55,21.35-27.65,1.46-1.28,10.11-8.49,20.38-8.49h19.2c10.27,0,18.92,7.2,20.38,8.49,19.64,14.11,21.24,25.35,21.35,27.65.45,4.2-1.32,9.21-6.33,10.47-5.35,1.34-9.2-2.13-10.64-4.38-.07-.12-.14-.24-.2-.36-2.74-5.48-6.38-9.54-9.61-12.38.14,2.83.06,5.49-.03,7.17-.12,2.2-1.98,3.9-4.2,3.79-2.21-.11-3.9-2-3.79-4.2.29-5.6-.26-11.9-1.14-13.23-1.16-1.45-1.16-3.49-.02-4.95,1.14-1.46,3.15-1.93,4.83-1.16.55.25,13.45,6.31,20.97,21.11.23.29.95,1.06,1.88.83.25-.26.38-1.39.31-1.92-.03-.23-.04-.26-.03-.45-.09-.79-1.43-9.63-18.19-21.62-.13-.1-.26-.2-.38-.31-.06-.06-7.29-6.56-15.17-6.56h-19.2c-7.87,0-15.1,6.5-15.17,6.56-.12.11-.25.21-.37.3-16.76,11.98-18.1,20.83-18.19,21.62,0,.19,0,.22-.03.45-.07.67.09,1.68.3,1.93.95.22,1.67-.57,1.88-.84,7.52-14.8,20.42-20.86,20.97-21.11,1.68-.77,3.68-.29,4.82,1.17,1.14,1.46,1.13,3.51-.03,4.96-.87,1.3-1.41,7.6-1.12,13.2.12,2.21-1.58,4.09-3.79,4.2-2.22.1-4.09-1.58-4.2-3.79-.09-1.68-.17-4.32-.03-7.15-3.24,2.85-6.89,6.92-9.61,12.36-.06.12-.13.24-.2.36-1.21,1.91-4.16,4.68-8.27,4.68Z"/>
      <path class="cls-1" d="M51.4,49.67c-13.69,0-24.84-11.14-24.84-24.84S37.7,0,51.4,0s24.84,11.14,24.84,24.84-11.14,24.84-24.84,24.84ZM51.4,8c-9.28,0-16.84,7.55-16.84,16.84s7.55,16.84,16.84,16.84,16.84-7.55,16.84-16.84-7.55-16.84-16.84-16.84Z"/>
    </g>
  </g>
</svg>