<?xml version="1.0" encoding="UTF-8"?>
<svg id="Camada_2" data-name="Camada 2" xmlns="http://www.w3.org/2000/svg" viewBox="0 0 798.38 922.79">
  <defs>
    <style>
      .cls-1 {
        fill: #0a0a54;
        stroke-width: 0px;
      }
    </style>
  </defs>
  <g id="_图层_1" data-name="图层 1">
    <g>
      <path class="cls-1" d="M518.97,240.15c27.29,9.05,53.06,32.48,66.95,57.38,1.2,2.17,2.34,4.36,3.42,6.58,1.09,2.23,2.11,4.48,3.07,6.76.97,2.28,1.88,4.58,2.72,6.9.85,2.32,1.64,4.67,2.36,7.04.73,2.37,1.39,4.75,2,7.15.6,2.4,1.14,4.82,1.62,7.25.48,2.42.89,4.86,1.24,7.32.35,2.45.64,4.9.86,7.37.22,2.46.39,4.93.49,7.4.09,2.47.13,4.95.1,7.42-.03,2.47-.13,4.95-.29,7.42-.16,2.47-.39,4.93-.67,7.39-.29,2.46-.63,4.91-1.04,7.35-.41,2.44-.89,4.87-1.43,7.29-.54,2.41-1.14,4.81-1.81,7.2-.66,2.39-1.38,4.75-2.17,7.1-6.05,18.13-12.89,33.02-30.65,41.69l-8.89-3.47c-7.77-9.01-14.36-17.6-20.49-27.81-.49-15.75,7.12-23.89,13.74-37.22,9.13-18.38,7.94-36.52.55-55.46-7.37-18.9-18.75-27.82-37.08-35.32-8.94-3.66-14.05-5.23-20.09-13.2,2.39-15.84,15.85-29.19,25.48-41.53Z"/>
      <path class="cls-1" d="M578.98,160.76c24.78,9.63,47.53,27.87,65.01,47.64,42.08,47.59,60.96,108.76,55.57,171.81-4.74,55.34-25.52,111.51-69.03,147.9l-39.05-38.26c9.47-9.36,19.37-18.88,27.08-29.8,26.97-38.2,35.15-88.44,25.07-133.75-12.44-55.93-47.8-93.14-94.65-122.9l30.01-42.65Z"/>
      <path class="cls-1" d="M642.88,89.64c25.65,10.29,56.77,38.45,75.2,59.06,3.48,3.97,6.86,8.02,10.15,12.16,3.29,4.13,6.47,8.34,9.54,12.63,3.08,4.29,6.05,8.66,8.91,13.09,2.86,4.43,5.61,8.94,8.26,13.51,2.64,4.57,5.17,9.2,7.59,13.9,2.41,4.69,4.71,9.44,6.89,14.25,2.18,4.81,4.25,9.67,6.2,14.57,1.94,4.91,3.77,9.86,5.47,14.86,1.7,5,3.28,10.04,4.74,15.12,1.46,5.07,2.79,10.18,4,15.32,1.2,5.14,2.28,10.31,3.24,15.5.95,5.19,1.78,10.4,2.48,15.64.69,5.23,1.26,10.48,1.7,15.74.44,5.26.76,10.53.94,15.81.18,5.27.23,10.55.16,15.83s-.28,10.55-.61,15.82c-5.79,86.57-45.54,158.18-110.3,214.49-10.01-12.65-21.04-24.67-31.59-36.89,16.61-15.87,32.32-31.91,45.39-50.93,39.21-57.06,53.36-131.33,40.74-199.16-15.09-81.07-63.79-139.02-129.84-184.94,11.14-10.76,20.79-23.52,30.75-35.38Z"/>
      <path class="cls-1" d="M156.65,1.53c18.23-1.33,37.21-3.86,54.55,3.37,34.49,14.39,122.35,175.36,136.62,215.08,32.44,90.32-98.48,95.16-123.47,157.43-8.84,22.02-2.99,46.79,5.49,67.94,19.13,47.69,66.88,148.27,117.26,167.48,39.78,15.16,78.48-15.62,113.61-29.96,17.14-6.99,36.5-9.66,53.85-1.83,44.65,20.14,129.6,115.64,159.07,156.73,11.16,15.55,18.5,33.47,25.93,51-12.6,25.59-27.36,44.22-46.75,64.67-20.82,19.08-43.07,36.21-68.11,49.41-42.73,22.51-82.6,25.87-128.43,10.61-162.03-53.93-307.35-260.33-378.6-405.92C27.02,404.06-27.05,252.96,15.17,138.46,40.7,69.23,92.4,30.96,156.65,1.53Z"/>
    </g>
  </g>
</svg>