<?xml version="1.0" encoding="UTF-8"?>
<svg id="Camada_2" data-name="Camada 2" xmlns="http://www.w3.org/2000/svg" viewBox="0 0 113.91 192.24">
  <defs>
    <style>
      .cls-1 {
        fill: #233642;
        stroke-width: 0px;
      }
    </style>
  </defs>
  <g id="Layer_1" data-name="Layer 1">
    <g>
      <path class="cls-1" d="M56.95,51.69c-14.25,0-25.84-11.59-25.84-25.85S42.7,0,56.95,0s25.85,11.59,25.85,25.85-11.59,25.85-25.85,25.85ZM56.95,8c-9.84,0-17.84,8.01-17.84,17.85s8,17.85,17.84,17.85,17.85-8.01,17.85-17.85-8.01-17.85-17.85-17.85Z"/>
      <path class="cls-1" d="M72.01,192.24c-7.74,0-14.04-6.29-14.04-14.03v-42.82h-2.03v42.82c0,7.74-6.3,14.03-14.04,14.03s-14.04-6.29-14.04-14.03v-82.08c-2.25,6.92-3.74,13.82-4.37,18.44-.8,5.82-5.82,10.21-11.69,10.21-.54,0-1.08-.04-1.61-.11-6.42-.87-10.96-6.82-10.1-13.27.81-5.99,8.84-58.67,41.91-63.08.48-.07.97-.1,1.46-.1.3-.07.62-.11.93-.11h25.08c.31,0,.63.04.93.11.49,0,.98.04,1.47.1,33.07,4.42,41.1,57.09,41.91,63.08.87,6.45-3.68,12.41-10.12,13.28-.51.07-1.05.11-1.58.11-5.87,0-10.89-4.39-11.69-10.22-.63-4.63-2.12-11.52-4.37-18.44v35.25c0,.08,0,.17,0,.25v46.57c0,7.74-6.29,14.03-14.03,14.03ZM51.94,127.39h10.03c2.21,0,4,1.79,4,4v46.82c0,3.33,2.71,6.03,6.04,6.03s6.03-2.71,6.03-6.03v-46.82c0-.08,0-.17,0-.25v-53.5c0-1.77,1.16-3.33,2.86-3.83,1.7-.5,3.52.16,4.49,1.64,7.75,11.86,11.86,30.07,12.95,38.05.26,1.88,1.87,3.3,3.76,3.3.17,0,.33-.01.49-.03,2.1-.28,3.56-2.2,3.28-4.28-.29-2.14-7.39-52.53-35.04-56.22,0,0,0,0-.01,0-.25-.03-.49-.04-.73-.02-.44.04-.88,0-1.31-.12h-23.66c-.42.11-.87.15-1.31.12-.24-.02-.49-.01-.73.02-27.67,3.69-34.76,54.08-35.05,56.22-.28,2.08,1.18,4,3.26,4.28.18.03.35.04.52.04,1.89,0,3.51-1.42,3.76-3.3,1.09-7.97,5.19-26.19,12.95-38.05.97-1.48,2.79-2.15,4.49-1.64s2.86,2.06,2.86,3.83v100.57c0,3.33,2.71,6.03,6.04,6.03s6.04-2.71,6.04-6.03v-46.82c0-2.21,1.79-4,4-4Z"/>
    </g>
  </g>
</svg>