<?xml version="1.0" encoding="UTF-8"?>
<svg id="Camada_2" data-name="Camada 2" xmlns="http://www.w3.org/2000/svg" viewBox="0 0 864 552.5">
  <defs>
    <style>
      .cls-1 {
        fill: #fac23c;
      }

      .cls-1, .cls-2, .cls-3, .cls-4 {
        fill-rule: evenodd;
        stroke-width: 0px;
      }

      .cls-2 {
        fill: #80cbc4;
      }

      .cls-3 {
        fill: #013668;
      }

      .cls-4 {
        fill: #e0e0e0;
      }
    </style>
  </defs>
  <g id="Layer_1" data-name="Layer 1">
    <g>
      <g>
        <path class="cls-3" d="M257.34,69.1c23.76,0,45.2,10.71,60.67,28.02,15.11,16.92,24.46,40.14,24.46,65.66s-9.35,48.74-24.46,65.66c-15.46,17.31-36.91,28.02-60.67,28.02s-45.2-10.71-60.66-28.02c-15.11-16.92-24.46-40.14-24.46-65.66s9.35-48.74,24.46-65.66c15.46-17.31,36.91-28.02,60.66-28.02h0ZM297.97,115.05c-10.46-11.71-24.83-18.95-40.63-18.95s-30.17,7.24-40.63,18.95c-10.81,12.1-17.5,28.97-17.5,47.73s6.69,35.63,17.5,47.73c10.46,11.71,24.83,18.95,40.63,18.95s30.17-7.24,40.63-18.95c10.81-12.1,17.5-28.97,17.5-47.73s-6.69-35.63-17.5-47.73Z"/>
        <path class="cls-3" d="M412.31,483.4H88.34l.59-14.03c4.64-110.75,46.03-183.9,98.1-217.78,22.42-14.59,46.85-21.98,71.34-22.09,24.56-.11,49,7.09,71.33,21.69,51.02,33.35,91.35,105.79,96.06,218.18l.59,14.03h-14.04ZM116.63,456.4h281.44c-6.79-94.49-40.76-154.94-83.13-182.64-17.88-11.69-37.21-17.45-56.46-17.37-19.32.08-38.76,6.03-56.79,17.77-43.3,28.17-78.2,89.16-85.06,182.24Z"/>
        <path class="cls-3" d="M69.75,0h724.5c19.2,0,36.64,7.84,49.27,20.48,12.63,12.63,20.48,30.08,20.48,49.27v413c0,19.19-7.84,36.64-20.48,49.27-12.63,12.63-30.08,20.48-49.27,20.48H69.75c-19.19,0-36.64-7.84-49.27-20.48-12.63-12.64-20.48-30.08-20.48-49.27V69.75c0-19.2,7.84-36.64,20.48-49.27C33.11,7.84,50.56,0,69.75,0h0ZM794.25,27H69.75c-11.74,0-22.43,4.81-30.18,12.57-7.75,7.75-12.57,18.44-12.57,30.18v413c0,11.74,4.81,22.43,12.57,30.18,7.75,7.75,18.44,12.57,30.18,12.57h724.5c11.74,0,22.43-4.81,30.18-12.57,7.75-7.75,12.57-18.44,12.57-30.18V69.75c0-11.74-4.81-22.43-12.57-30.18-7.75-7.75-18.44-12.57-30.18-12.57Z"/>
        <path class="cls-3" d="M494.74,138.33c-7.46,0-13.5,6.04-13.5,13.5s6.04,13.5,13.5,13.5h266.88c7.46,0,13.5-6.05,13.5-13.5s-6.04-13.5-13.5-13.5h-266.88Z"/>
        <path class="cls-3" d="M494.74,221.28c-7.46,0-13.5,6.04-13.5,13.5s6.04,13.5,13.5,13.5h266.88c7.46,0,13.5-6.05,13.5-13.5s-6.04-13.5-13.5-13.5h-266.88Z"/>
        <path class="cls-3" d="M494.74,304.23c-7.46,0-13.5,6.04-13.5,13.5s6.04,13.5,13.5,13.5h266.88c7.46,0,13.5-6.04,13.5-13.5s-6.04-13.5-13.5-13.5h-266.88Z"/>
        <path class="cls-3" d="M494.74,387.18c-7.46,0-13.5,6.04-13.5,13.5s6.04,13.5,13.5,13.5h266.88c7.46,0,13.5-6.04,13.5-13.5s-6.04-13.5-13.5-13.5h-266.88Z"/>
      </g>
      <path class="cls-4" d="M216.72,115.05c-10.81,12.1-17.5,28.97-17.5,47.73s6.69,35.63,17.5,47.73c10.46,11.71,24.83,18.95,40.63,18.95s30.17-7.24,40.63-18.95c10.81-12.1,17.5-28.97,17.5-47.73s-6.69-35.63-17.5-47.73c-10.46-11.71-24.83-18.95-40.63-18.95s-30.17,7.24-40.63,18.95Z"/>
      <path class="cls-2" d="M201.69,274.16c-43.3,28.17-78.2,89.16-85.06,182.24h281.44c-6.79-94.49-40.76-154.94-83.13-182.64-17.36-11.35-36.09-17.11-54.78-17.36-.93.03-1.87.05-2.81.05-.47,0-.94,0-1.42-.01-18.48.57-37,6.5-54.24,17.72Z"/>
      <path class="cls-1" d="M342.47,162.78c0,25.52-9.35,48.74-24.46,65.66-3.47,3.89-7.25,7.44-11.28,10.62,7.84,3.23,15.52,7.27,22.97,12.14,51.02,33.35,91.35,105.79,96.06,218.18l.59,14.03H88.34l.59-14.03c4.64-110.75,46.03-183.9,98.1-217.78,7.14-4.64,14.48-8.56,21.96-11.74-4.42-3.37-8.54-7.2-12.31-11.41-15.11-16.92-24.46-40.14-24.46-65.66s9.35-48.74,24.46-65.66c15.46-17.31,36.91-28.02,60.66-28.02s45.2,10.71,60.67,28.02c15.11,16.92,24.46,40.14,24.46,65.66h0ZM27,69.75v413c0,11.74,4.81,22.43,12.57,30.18,7.75,7.75,18.44,12.57,30.18,12.57h724.5c11.74,0,22.43-4.81,30.18-12.57,7.75-7.75,12.57-18.44,12.57-30.18V69.75c0-11.74-4.81-22.43-12.57-30.18-7.75-7.75-18.44-12.57-30.18-12.57H69.75c-11.74,0-22.43,4.81-30.18,12.57-7.75,7.75-12.57,18.44-12.57,30.18h0ZM481.24,400.68c0-7.46,6.04-13.5,13.5-13.5h266.88c7.46,0,13.5,6.04,13.5,13.5s-6.04,13.5-13.5,13.5h-266.88c-7.46,0-13.5-6.04-13.5-13.5h0ZM481.24,317.73c0-7.46,6.04-13.5,13.5-13.5h266.88c7.46,0,13.5,6.04,13.5,13.5s-6.04,13.5-13.5,13.5h-266.88c-7.46,0-13.5-6.04-13.5-13.5h0ZM481.24,234.78c0-7.46,6.04-13.5,13.5-13.5h266.88c7.46,0,13.5,6.04,13.5,13.5s-6.04,13.5-13.5,13.5h-266.88c-7.46,0-13.5-6.05-13.5-13.5h0ZM481.24,151.83c0-7.46,6.04-13.5,13.5-13.5h266.88c7.46,0,13.5,6.04,13.5,13.5s-6.04,13.5-13.5,13.5h-266.88c-7.46,0-13.5-6.05-13.5-13.5Z"/>
    </g>
  </g>
</svg>