<?xml version="1.0" encoding="UTF-8"?>
<svg id="Camada_2" data-name="Camada 2" xmlns="http://www.w3.org/2000/svg" viewBox="0 0 962.71 992.34">
  <defs>
    <style>
      .cls-1 {
        fill: #060606;
        stroke-width: 0px;
      }
    </style>
  </defs>
  <g id="_图层_1" data-name="图层 1">
    <path class="cls-1" d="M714.38,769.05c45.23,11.09,86.97,25.4,128.88,45.79-39.64,52.74-108.9,100.61-166.81,131.08-33.87,15.44-69.44,25.03-105.43,34.07,65.74-60.24,106.79-130.44,143.36-210.94Z"/>
    <path class="cls-1" d="M238.58,770.41c1.54-.26,3.07-.96,4.61-.77,11.25,1.31,10.93,8.89,15.08,18.01,32.97,72.51,65.3,137.69,130.52,186.06-35.66-7-67.8-18.48-101.37-32.16-67.22-30.02-134.65-76.73-174.23-139.77,40.16-15.24,83.44-22.63,125.38-31.38Z"/>
    <path class="cls-1" d="M602.8,14.9c86.5,15.71,182.15,79.49,239.65,144.26,8.07,9.08,13.49,15.07,12.7,27.58l-14.29,4.38c-41.05,9.86-82.29,18.8-123.74,26.83-9.55-25.88-20.51-51.14-32.87-75.8-12.37-24.65-26.07-48.54-41.1-71.67-11.69-18.01-32.23-36.49-40.34-55.58Z"/>
    <path class="cls-1" d="M354.66,13.09c5.35.5,2.05-.14,9.53,3.38-53.67,63.23-87.74,130.62-119.17,206.7-36.18-6.24-72.22-13.23-108.1-20.97-11.62-4.12-24.24-6.88-36.14-10.17C167.46,107.23,252.57,47.53,354.66,13.09Z"/>
    <path class="cls-1" d="M496.11,748.4c59.27-.6,118.12,4.08,176.55,14.05-17.76,50.08-47.43,94.88-79.1,137.07-29.54,35.7-60.33,64.69-97.14,92.82-1.75-81.2-.28-162.71-.31-243.94Z"/>
    <path class="cls-1" d="M374.81,750.22c28.87-3.08,58.81-1.99,87.86-2.29.39,75.61,2.6,151.74-1.16,227.27l-3.28-1.61,2.05,6.49-10.14,1.21c-15.6-5.87-26.52-16.1-39.04-26.77-60.21-58.62-94.96-117.01-124.12-195.57l87.83-8.73Z"/>
    <path class="cls-1" d="M500.66,0c14.95,5.53,28.23,11.88,41.18,21.31,49.25,35.83,127.51,140.62,135.88,199.3l-6.96,5.47c-57.05,5.33-113.56,12.11-170.84,15.05-.17-80.38.08-160.75.75-241.13Z"/>
    <path class="cls-1" d="M458.07.08l5.29,2.01c10.3,38.54,2.05,188.78,1.71,238.84-54.06-.84-108.46-5.04-162.25-10.35-6.56-.86-8.22-1.81-13.63-5.19-.22-5.74-.54-6.58.86-13.09,3.95-18.43,17.36-40.57,26.6-57.34C352.89,89.21,391.35,36.99,458.07.08Z"/>
    <path class="cls-1" d="M239.23,517.59l223.25-.14c.31,60.08,8.46,132.09-1.99,190.64l-7.67,4.07c-59.1,2.16-117.88,7.74-176.33,16.76-19.72-69.54-36.42-138.72-37.26-211.33Z"/>
    <path class="cls-1" d="M497.02,518.01l230.58-.56c-1.19,61.92-15.55,123.26-31.57,182.77-2.92,10.36-4.59,19.39-12.66,27.11-62.37-3.36-123.59-13.05-186.33-15.1l-.02-194.21Z"/>
    <path class="cls-1" d="M273.02,257.44c62.64,10.67,127.23,14.15,190.54,19.53.29,65.72,4.05,133.66-1.44,199.09-9.18,6.78-20.12,4.95-31.36,5.52-64.1.38-128.19.38-192.29,0,1.56-76.71,11.39-150.89,34.54-224.14Z"/>
    <path class="cls-1" d="M1.02,517.87l200.01-.08c7.26,73.63,20.06,143.71,36.91,215.69-9.1,9.79-22.55,11.5-35.01,14.82-37.06,9.52-73.69,19.24-109.99,31.44C35.11,703.05,8.12,612.57,1.02,517.87Z"/>
    <path class="cls-1" d="M94.17,202.58c.97,6.6,2.71,10.44,5.5,16.42,35.14,23.16,93.28,26.44,134.58,33.63-23.86,74.38-30.44,150.63-33.32,228.27l-52.55.22-148.38-1.19c8.84-95.75,33.33-200.41,94.17-277.34Z"/>
    <path class="cls-1" d="M683.12,259.13l5.64.52c29.66,39.25,37.27,170.84,38.87,221.04-60.28,1.19-120.69.71-180.98.99l-48.75-.35.37-205.83c62-2.28,123.27-9.23,184.85-16.37Z"/>
    <path class="cls-1" d="M866.16,515.45l95.41-.34c-2.54,43.15-10.34,84.4-23.44,125.64-11.21,35.3-45.19,132.13-80.89,146.87-6.05,2.49-11.44-2.92-16.74-5.75-37.34-17.71-77.63-29.14-116.97-41.58,18.85-74.38,34.45-147.46,38.11-224.29l104.52-.55Z"/>
    <path class="cls-1" d="M871.93,211.07l6.18.87c56.12,51.37,79.35,197.28,84.61,270.3-46.76-.6-93.59-.09-140.36-.08l-60.67-.2c-1.76-80.83-14.01-153.45-35.51-231.01,49.22-11.66,97.41-25.01,145.76-39.88Z"/>
  </g>
</svg>