<?xml version="1.0" encoding="UTF-8"?>
<svg id="Camada_2" data-name="Camada 2" xmlns="http://www.w3.org/2000/svg" viewBox="0 0 100.66 171.61">
  <defs>
    <style>
      .cls-1 {
        stroke-miterlimit: 10;
      }

      .cls-1, .cls-2 {
        fill: none;
        stroke: #1d1d1b;
        stroke-width: 3.65px;
      }

      .cls-2 {
        stroke-linecap: round;
        stroke-linejoin: round;
      }
    </style>
  </defs>
  <g id="_Ñëîé_1" data-name="Ñëîé 1">
    <g>
      <circle class="cls-1" cx="50.59" cy="19.18" r="17.35" transform="translate(23.22 65.85) rotate(-80.37)"/>
      <path class="cls-2" d="M28.06,90.99v69.66c0,5.05,4.09,9.14,9.14,9.14h0c5.05,0,9.14-4.09,9.14-9.14v-52.62c0-2.36,1.91-4.26,4.26-4.26h0c2.36,0,4.26,1.91,4.26,4.26v52.62c0,5.05,4.09,9.14,9.14,9.14h0c5.05,0,9.14-4.09,9.14-9.14v-69.66"/>
      <line class="cls-2" x1="73.13" y1="61.13" x2="73.13" y2="90.99"/>
      <line class="cls-2" x1="28.06" y1="90.99" x2="28.06" y2="61.13"/>
      <path class="cls-2" d="M28.05,61.13l-11.8,37.81c-.93,3-3.7,4.92-6.69,4.92-.69,0-1.4-.1-2.09-.32-3.73-1.17-5.88-5.08-4.87-8.86l10.66-39.7,1.57-5.29c1.19-4.03,3.39-7.61,6.31-10.45,2.91-2.84,6.55-4.94,10.61-6.03,2.27-.61,4.56-1.1,6.86-1.48"/>
      <path class="cls-2" d="M62.58,31.73c2.3.38,4.59.87,6.85,1.48,8.12,2.17,14.54,8.42,16.93,16.48l1.56,5.29,10.66,39.7c.17.63.25,1.26.25,1.89,0,3.12-2.01,6-5.12,6.97-3.7,1.15-7.62-.91-8.78-4.6l-11.8-37.81"/>
      <path class="cls-2" d="M13.96,169.79v-59.95c0-3.35-2.72-6.07-6.07-6.07h0c-3.35,0-6.07,2.72-6.07,6.07v2.16"/>
    </g>
  </g>
</svg>