<?xml version="1.0" encoding="UTF-8"?>
<svg id="Camada_2" data-name="Camada 2" xmlns="http://www.w3.org/2000/svg" viewBox="0 0 395.53 448">
  <defs>
    <style>
      .cls-1 {
        fill: #303c47;
      }

      .cls-1, .cls-2 {
        fill-rule: evenodd;
        stroke-width: 0px;
      }

      .cls-2 {
        fill: #0a0a54;
      }
    </style>
  </defs>
  <g id="Camada_1-2" data-name="Camada 1">
    <g>
      <path class="cls-1" d="M151.96,121.21l-.14-.04c-2.12-.64-3.9-1.38-5.23-2.47-1.33-1.08-2.22-2.52-3.23-5.35-1.02-2.84-2.15-7.08-2.96-10.88-.81-3.8-1.31-7.16-1.53-10.08-.21-2.92-.17-5.41.52-7.36.69-1.94,2.53-3.5,3.82-3.9,1.29-.4,1.98-.16,2.54-.3.57-.14-.29-.47-.31-.76l-1.56-21.91c-1.02-10.06,1.13-24.68,8.51-31.52,1.74-1.62,7.66-2.7,8.73-1.82-1.09-2-1.58-4.89.67-7.95,2.25-3.06,7.3-9.12,12.43-11.4,7.88-3.49,16.72-6.15,25.31-5.33,9.72.93,19.18,5.08,27.39,10.36,6.61,4.26,12.24,10.48,15.84,17.46,3.83,7.43,5,15.51,5.78,24.42.76,8.84.11,19.45-1.16,28.34.96.06,1.87.27,2.73.59,1.84.69,3.51,1.93,4.31,4.23.78,2.3.68,5.68.39,9.05-.3,3.37-.79,6.72-1.6,10.1-.81,3.37-1.94,6.78-2.95,9.2-1.01,2.42-1.9,3.85-3.23,4.94-1.34,1.08-3.11,1.82-5.23,2.46-.4.12-.81.23-1.22.34l-.67,10.29c-.4,6.03-2.56,11.13-6.6,15.56v17.81c0,3.55-1.51,6.6-4.33,8.77l-31.91,19.88-31.07-19.87c-2.82-2.17-4.33-5.22-4.33-8.77v-15.36l-1.94-2.03c-4.34-4.54-6.65-9.79-7.06-16.06l-.69-10.65h-.02ZM227.32,284.74c.86-48,13.12-92.83,12.16-109.18-.35-4.44,3.46-4.79,4.45-3.89,4.17,3.81,5.68,4.67,15.05,8.52,11.47,4.7,29.53,9.46,41.16,12.41,11.63,2.95,16.82,4.1,20.49,6.93,3.67,2.83,5.81,7.35,9.29,19.78,1.54,5.52,3.36,40.75,5.31,64.92.19,2.37-.54,4.49-2.15,6.24-1.61,1.75-3.66,2.65-6.04,2.65h-91.5c-2.29,0-4.26-.83-5.87-2.46-1.6-1.63-2.4-3.62-2.35-5.91h0ZM168.21,284.74c-.86-48-13.12-92.83-12.16-109.18.35-4.44-3.46-4.79-4.45-3.89-4.17,3.81-5.68,4.67-15.05,8.52-11.47,4.7-29.53,9.46-41.16,12.41-11.63,2.95-16.82,4.1-20.49,6.93-3.67,2.83-5.81,7.35-9.29,19.78-1.54,5.52-3.36,40.75-5.31,64.92-.19,2.37.54,4.49,2.15,6.24,1.61,1.75,3.66,2.65,6.04,2.65h91.5c2.29,0,4.26-.83,5.87-2.46,1.6-1.63,2.4-3.62,2.35-5.91h0Z"/>
      <path class="cls-2" d="M44.7,311.35h306.13c9.33,0,17.12,6.9,18.53,15.84.58,3.65-1.7,7.11-5.28,8.03l-15.41,3.97c-10.94,2.82-18.06,15.83-14.5,26.56l9.78,29.5c2.73,8.29,9.35,15.1,17.9,15.13.13,0,.27,0,.4,0,2-.05,3.74.63,5.17,2.02,1.43,1.4,2.16,3.12,2.16,5.12v11.72c0,10.31-8.45,18.76-18.76,18.76H44.7c-10.31,0-18.76-8.44-18.76-18.76v-11.7c0-2,.72-3.71,2.15-5.11,1.43-1.4,3.16-2.08,5.16-2.03h.02c8.67.19,15.51-6.73,18.3-15.15l9.78-29.5c3.56-10.73-3.56-23.74-14.5-26.56l-15.41-3.97c-3.58-.92-5.85-4.38-5.28-8.03,1.41-8.95,9.2-15.85,18.53-15.85h0ZM111.76,328.22h16.7c2.76,0,5.01,2.25,5.01,5.02v50.87c0,11.74-.86,20.67-2.61,26.81-1.75,6.11-5.26,11.31-10.54,15.57-5.28,4.24-12.04,6.37-20.27,6.37-8.71,0-15.46-1.41-20.23-4.22-4.8-2.8-8.49-6.9-11.1-12.31-2.47-5.1-3.99-11.37-4.53-18.77-.11-1.44.34-2.73,1.33-3.78.98-1.06,2.23-1.6,3.68-1.6h15.5c2.63,0,4.81,2.03,5,4.66.17,2.24.45,4.04.83,5.39.62,2.2,1.69,3.95,3.19,5.32,1.02.88,2.47,1.32,4.35,1.32,2.99,0,5.18-1.32,6.59-3.95,1.38-2.64,2.09-7.09,2.09-13.34v-58.32c0-2.76,2.25-5.02,5.02-5.02h0ZM147.81,379.75c0-16.79,3.91-29.87,11.76-39.21,7.85-9.37,18.77-14.04,32.78-14.04s25.41,4.6,33.18,13.77c7.77,9.2,11.64,22.09,11.64,38.64,0,12.03-1.69,21.87-5.08,29.56-3.39,7.69-8.31,13.68-14.71,17.97-6.42,4.29-14.41,6.42-23.99,6.42s-17.77-1.84-24.15-5.53c-6.37-3.71-11.54-9.56-15.5-17.56-3.96-7.98-5.94-17.99-5.94-30.01h0ZM174.43,379.82c0,10.37,1.63,17.85,4.86,22.37,3.25,4.53,7.67,6.8,13.25,6.8s10.18-2.23,13.31-6.66c3.15-4.46,4.72-12.41,4.72-23.93,0-9.68-1.64-16.74-4.92-21.2-3.29-4.48-7.73-6.71-13.35-6.71s-9.72,2.28-12.97,6.8c-3.27,4.52-4.9,12.05-4.9,22.52h0ZM256.64,328.22h44.9c8.31,0,14.69,2.47,19.15,7.38,4.46,4.91,6.68,10.99,6.68,18.25,0,6.08-1.58,11.31-4.78,15.64-1.36,1.89-3.15,3.51-5.33,4.87-.65.4-.99,1.08-.94,1.85.05.76.49,1.38,1.19,1.69,4.09,1.81,7.24,4.35,9.45,7.64,2.92,4.33,4.38,9.77,4.38,16.31,0,5.34-1.04,10.13-3.11,14.4-2.09,4.26-4.94,7.62-8.53,10.11-2.25,1.54-5.62,2.66-10.14,3.35-6,.94-9.98,1.41-11.94,1.41h-40.99c-2.76,0-5.02-2.25-5.02-5.02v-92.88c0-2.76,2.25-5.02,5.02-5.02h0ZM280.49,368.61h9.61c4.16,0,7.07-.86,8.69-2.56,1.63-1.72,2.45-4.19,2.45-7.43,0-2.99-.82-5.34-2.45-7.02-1.62-1.7-4.48-2.54-8.51-2.54h-9.79c-1.11,0-2.01.9-2.01,2.01v15.53c0,1.1.9,2.01,2.01,2.01h0ZM280.49,408.99h11.58c4.6,0,7.83-.98,9.72-2.92,1.89-1.94,2.83-4.53,2.83-7.81,0-3.04-.92-5.49-2.79-7.33-1.87-1.84-5.14-2.78-9.82-2.78h-11.52c-1.11,0-2.01.9-2.01,2.01v16.83c0,1.11.9,2.01,2.01,2.01h0Z"/>
      <path class="cls-1" d="M17.51,340.58l27.19,7c5.81,1.49,10.5,9.21,8.44,15.44l-9.79,29.5c-2.06,6.23-6.62,10.61-12.33,8.78l-22.39-5.47c-5.83-1.42-9.51-8.77-8.44-15.44l4.99-31.04c1.07-6.66,6.52-10.27,12.33-8.78h0Z"/>
      <path class="cls-1" d="M378.02,340.58l-27.19,7c-5.81,1.49-10.5,9.21-8.44,15.44l9.79,29.5c2.06,6.23,6.62,10.61,12.33,8.78l22.39-5.47c5.83-1.42,9.51-8.77,8.44-15.44l-4.99-31.04c-1.07-6.66-6.52-10.27-12.33-8.78h0Z"/>
    </g>
  </g>
</svg>