<?xml version="1.0" encoding="UTF-8"?>
<svg id="Camada_2" data-name="Camada 2" xmlns="http://www.w3.org/2000/svg" viewBox="0 0 2208.38 1653.52">
  <defs>
    <style>
      .cls-1 {
        fill: #21234b;
      }

      .cls-1, .cls-2 {
        stroke-width: 0px;
      }

      .cls-2 {
        fill: #fac23c;
      }
    </style>
  </defs>
  <g id="_Ñëîé_1">
    <rect class="cls-2" x="0" y="5.21" width="1980.08" height="1405.48" rx="146.41" ry="146.41"/>
    <circle class="cls-2" cx="1752.55" cy="1197.69" r="423"/>
    <g>
      <path class="cls-1" d="M904.47,524.23c0-140.77-114.53-255.3-255.3-255.3s-255.3,114.52-255.3,255.3,114.52,255.31,255.3,255.31,255.3-114.53,255.3-255.31ZM450.07,524.23c0-109.79,89.32-199.11,199.1-199.11s199.1,89.32,199.1,199.11-89.31,199.1-199.1,199.1-199.1-89.32-199.1-199.1Z"/>
      <path class="cls-1" d="M506.19,813.8c2.79-6.97,2.7-14.61-.25-21.51-4.43-10.35-14.58-17.05-25.85-17.05-3.81,0-7.52.77-11.05,2.27-115.22,49.35-186.79,142.78-186.79,243.85v67.75c0,15.5,12.61,28.1,28.1,28.1s28.1-12.6,28.1-28.1v-67.75c0-78.21,58.52-151.84,152.72-192.18,6.9-2.95,12.24-8.42,15.03-15.39Z"/>
      <path class="cls-1" d="M987.99,1117.22c15.49,0,28.1-12.6,28.1-28.1v-67.75c0-101.08-71.59-194.52-186.83-243.86-3.52-1.5-7.24-2.27-11.05-2.27-11.26,0-21.41,6.69-25.84,17.05-6.1,14.24.53,30.79,14.77,36.89,94.21,40.33,152.74,113.98,152.74,192.19v67.75c0,15.5,12.61,28.1,28.1,28.1Z"/>
      <path class="cls-1" d="M480.12,1117.22c15.5,0,28.1-12.6,28.1-28.1v-68.05c0-15.5-12.6-28.1-28.1-28.1s-28.1,12.61-28.1,28.1v68.05c0,15.5,12.61,28.1,28.1,28.1Z"/>
      <path class="cls-1" d="M790.12,1021.07v68.05c0,15.5,12.6,28.1,28.1,28.1s28.11-12.6,28.11-28.1v-68.05c0-15.5-12.61-28.1-28.11-28.1s-28.1,12.61-28.1,28.1Z"/>
      <path class="cls-1" d="M1231.42,1358.92H152.62c-51.41,0-93.23-41.82-93.23-93.23V150.2c0-51.41,41.82-93.23,93.23-93.23h1677.25c51.41,0,93.23,41.82,93.23,93.23v523.04c0,15.73,12.75,28.49,28.49,28.49s28.49-12.75,28.49-28.49V150.2c0-82.82-67.38-150.2-150.2-150.2H152.62C69.8,0,2.42,67.38,2.42,150.2v1115.48c0,82.82,67.38,150.2,150.2,150.2h1078.79c15.73,0,28.49-12.75,28.49-28.48s-12.75-28.49-28.49-28.49Z"/>
      <path class="cls-1" d="M1670.7,299.56h-470.45c-15.73,0-28.49,12.75-28.49,28.49s12.76,28.49,28.49,28.49h470.45c15.73,0,28.49-12.75,28.49-28.49s-12.75-28.49-28.49-28.49Z"/>
      <path class="cls-1" d="M1670.7,534.06h-470.45c-15.73,0-28.49,12.75-28.49,28.49s12.76,28.49,28.49,28.49h470.45c15.73,0,28.49-12.75,28.49-28.49s-12.75-28.49-28.49-28.49Z"/>
      <path class="cls-1" d="M2172.55,1020.25c-22.96-54.28-55.82-103.03-97.68-144.88-41.85-41.85-90.6-74.72-144.88-97.68-56.21-23.78-115.91-35.83-177.44-35.83s-121.22,12.06-177.44,35.83c-54.28,22.96-103.03,55.82-144.88,97.68-41.85,41.85-74.72,90.6-97.68,144.88-23.78,56.21-35.83,115.91-35.83,177.44s12.06,121.22,35.83,177.44c22.96,54.28,55.82,103.03,97.68,144.88,41.85,41.85,90.6,74.72,144.88,97.68,56.21,23.78,115.91,35.83,177.44,35.83s121.22-12.05,177.44-35.83c54.28-22.96,103.03-55.82,144.88-97.68,41.85-41.85,74.72-90.6,97.68-144.88,23.78-56.21,35.83-115.91,35.83-177.44s-12.05-121.22-35.83-177.44ZM1752.55,1596.54c-219.93,0-398.86-178.92-398.86-398.86s178.92-398.86,398.86-398.86,398.86,178.93,398.86,398.86-178.93,398.86-398.86,398.86Z"/>
      <path class="cls-1" d="M1826.01,1382.75h-44.97v-265.53c0-15.73-12.75-28.49-28.49-28.49h-66.54c-15.73,0-28.49,12.75-28.49,28.49s12.75,28.49,28.49,28.49h38.05v237.04h-44.97c-15.73,0-28.49,12.75-28.49,28.49s12.75,28.49,28.49,28.49h146.91c15.73,0,28.49-12.75,28.49-28.49s-12.75-28.49-28.49-28.49Z"/>
      <path class="cls-1" d="M1745.45,1041.61c30.14,0,54.66-24.52,54.66-54.66s-24.52-54.66-54.66-54.66-54.66,24.52-54.66,54.66,24.52,54.66,54.66,54.66ZM1745.45,984.64c1.28,0,2.32,1.04,2.32,2.31s-1.04,2.32-2.32,2.32-2.31-1.04-2.31-2.32,1.04-2.31,2.31-2.31Z"/>
    </g>
  </g>
</svg>