<?xml version="1.0" encoding="UTF-8"?>
<svg id="Camada_2" data-name="Camada 2" xmlns="http://www.w3.org/2000/svg" viewBox="0 0 465.34 465.33">
  <defs>
    <style>
      .cls-1 {
        fill: #07233f;
      }

      .cls-1, .cls-2, .cls-3 {
        stroke-width: 6px;
      }

      .cls-1, .cls-2, .cls-3, .cls-4 {
        stroke: #df8303;
        stroke-miterlimit: 10;
      }

      .cls-1, .cls-2, .cls-3, .cls-4, .cls-5 {
        fill-rule: evenodd;
      }

      .cls-6, .cls-7, .cls-5 {
        stroke-width: 0px;
      }

      .cls-6, .cls-5 {
        fill: #df8303;
      }

      .cls-2 {
        fill: none;
      }

      .cls-3, .cls-7 {
        fill: #fff;
      }

      .cls-4 {
        fill: #000;
      }
    </style>
  </defs>
  <g id="Camada_1-2" data-name="Camada 1">
    <g>
      <path class="cls-3" d="M383.73,232.66c0,83.43-67.64,151.06-151.07,151.06s-151.06-67.63-151.06-151.06S149.23,81.6,232.66,81.6s151.07,67.64,151.07,151.06Z"/>
      <path class="cls-2" d="M232.66,81.6c-83.43,0-151.06,67.64-151.06,151.06s67.63,151.06,151.06,151.06,151.07-67.63,151.07-151.06-67.64-151.06-151.07-151.06Z"/>
      <path class="cls-1" d="M232.67,3C105.83,3,3,105.82,3,232.66s102.83,229.67,229.67,229.67,229.67-102.83,229.67-229.67S359.51,3,232.67,3ZM232.66,383.72c-83.43,0-151.06-67.63-151.06-151.06S149.23,81.6,232.66,81.6s151.07,67.64,151.07,151.06-67.64,151.06-151.07,151.06Z"/>
      <g>
        <path class="cls-4" d="M252.57,315.53l-9.07-25.3,6.87-38.9-4.55-144.41c-.18-5.12-3.38-8.4-7.49-9.92-1.71-.62-3.57-.93-5.42-.91-1.86.02-3.74.36-5.47,1.03-4.16,1.61-7.41,4.96-7.65,10.08l-7.08,144.56,6.2,38.73-9.51,25.52-.36.98.38.95,18.71,45.47,2.37,5.84,2.5-5.87,19.51-45.94.41-.93-.34-.96ZM225.1,107.36c.13-2.64,1.89-4.45,4.16-5.3,1.08-.42,2.33-.64,3.57-.65,1.27-.02,2.51.18,3.62.59,2.25.8,3.96,2.55,4.06,5.17l4.47,141.39-26.82.29,6.93-141.49ZM218.49,254.17l26.06-.29-6,33.99-14.65.18-5.4-33.87ZM233.34,349.09l.23-26.76c2.04-1,3.41-3.08,3.43-5.47.05-3.33-2.63-6-5.97-5.97-3.33.03-6.05,2.77-6.09,6.1-.03,2.38,1.34,4.44,3.31,5.38l-.23,26.77-13.31-32.39,8.76-23.43,15.42-.15,8.32,23.22-13.87,32.68Z"/>
        <path class="cls-5" d="M236.99,316.87c.05-3.33-2.63-6-5.97-5.97-3.33.03-6.05,2.77-6.09,6.1-.03,2.38,1.34,4.44,3.31,5.38l-.23,26.77-13.31-32.39,8.76-23.43,15.42-.15,8.32,23.22-13.87,32.68.23-26.76c2.04-1,3.41-3.08,3.43-5.47Z"/>
        <polygon class="cls-5" points="244.54 253.87 238.54 287.86 223.89 288.04 218.49 254.17 244.54 253.87"/>
        <path class="cls-5" d="M244.98,248.55l-26.82.29,6.93-141.49c.13-2.64,1.89-4.45,4.16-5.3,1.08-.42,2.33-.64,3.57-.65,1.27-.02,2.51.18,3.62.59,2.25.8,3.96,2.55,4.06,5.17l4.47,141.39Z"/>
      </g>
      <g>
        <g>
          <path class="cls-7" d="M65.71,166.74c4.1,4.14,6.92,10.69,4.87,18.14-3.45,12.57-16.89,17.39-28.6,14.18-12.18-3.35-20.96-15.1-17.49-27.76,1.01-3.69,3.82-9.56,6.38-12.38l6.4,4.36c-3.41,2.07-11.36,7.35-12.35,9.47-1.64,7.69,4.29,13.67,15.64,16.79,13.81,3.79,26.2.8,28.93-9.16,1.41-5.12-.56-9.15-4.67-12.88l.89-.75Z"/>
          <path class="cls-7" d="M56.68,150.74c-10.87-6.64-15.42-20.95-9.24-31.06,6.16-10.08,20.98-12.55,31.84-5.9,10.87,6.64,15.31,20.88,9.15,30.96-6.18,10.11-20.88,12.64-31.75,6ZM88.51,143.08c3.26-6.47-1.51-14.23-11.39-20.27-9.77-5.97-23.05-9.18-29.78-1.46-3.28,6.62,1.61,14.33,11.38,20.3,9.91,6.06,23.13,9.11,29.79,1.43Z"/>
          <path class="cls-7" d="M75.46,83.71l12.14-11.12c7.05-6.46,15.08-6.4,19.77-1.29,4.12,4.5,3.26,10.3.82,15l23.98,8.1-7.22,6.62-22.2-8.25c-1.77,1.39-3.19,2.43-4.2,3.18l14.58,15.91-6.45,5.91-31.21-34.05ZM98.03,95.39c1.28-1,2.9-2.35,4.27-3.6.73-.67,1.36-1.29,1.85-1.83,1.08-2.33,1.37-7.44-3.24-12.47-7.31-7.98-14.55-2.73-16.3-1.13l-2.19,2.01,15.61,17.03Z"/>
          <path class="cls-7" d="M118.37,48.68l14.56-7.69c8.46-4.47,16.21-2.37,19.45,3.76,2.85,5.4.55,10.79-3.01,14.72l21.15,13.9-8.66,4.58-19.39-13.6c-2.06.9-3.7,1.54-4.87,2.01l10.08,19.08-7.73,4.08-21.58-40.84ZM137.24,65.69c1.49-.64,3.4-1.54,5.04-2.4.88-.46,1.65-.91,2.26-1.3,1.64-1.99,3.21-6.85.02-12.89-5.05-9.57-13.38-6.33-15.48-5.22l-2.63,1.39,10.79,20.42Z"/>
          <path class="cls-7" d="M167.85,26.17l26.4-6.63.27,1.09c-.84.18-11.51,2.52-12.89,2.87l-5.12,1.29,5.21,20.73,3.36-.84c1.34-.34,11.42-3.01,12.72-3.4l.27,1.09c-1.33.27-11.46,2.71-12.81,3.05l-3.36.84,5.49,21.85,5.38-1.35c1.38-.35,11.89-3.33,12.71-3.57l.27,1.09-26.65,6.7-11.26-44.8Z"/>
          <path class="cls-7" d="M210.2,17.13l33.98-.85.03,1.12c-.79-.01-10.43-.07-12.61-.05l1.13,45.43-8.74.22-1.13-45.43c-2.08.08-11.8.62-12.63.68l-.03-1.12Z"/>
          <path class="cls-7" d="M252.94,39.62c2.73-12.45,14.77-21.43,26.34-18.9,11.54,2.53,18.72,15.73,15.99,28.17-2.73,12.45-14.74,21.3-26.28,18.77-11.57-2.54-18.78-15.6-16.05-28.05ZM270.59,67.21c7.19.97,12.96-6.08,15.44-17.4,2.45-11.19,1.14-24.79-8.36-28.63-7.33-.93-13.02,6.2-15.47,17.39-2.49,11.35-1.05,24.84,8.39,28.63Z"/>
          <path class="cls-7" d="M322.6,35.6l14.45,7.89c8.4,4.58,10.93,12.21,7.61,18.29-2.92,5.36-8.69,6.42-13.93,5.62l.09,25.31-8.6-4.7.63-23.67c-1.89-1.22-3.33-2.23-4.37-2.95l-10.34,18.94-7.67-4.19,22.13-40.54ZM318.85,60.73c1.36.89,3.16,1.99,4.78,2.87.87.47,1.67.87,2.34,1.16,2.56.27,7.48-1.1,10.75-7.1,5.19-9.5-2.12-14.65-4.2-15.79l-2.61-1.42-11.07,20.27Z"/>
          <path class="cls-6" d="M384.99,79.04l5.87,6.48-33.68,30.49,3.68,4.06c1.82,2.01,8.53,8.93,9.13,9.54l-.83.75-18.4-20.33,34.24-31Z"/>
          <path class="cls-6" d="M395.66,146.16l-8.05-14.37c-6.88,1.36-13.43,2.76-14.98,3.17l-.61-1.09,47.97-8.9,2.48,4.43-32.68,36.2-4.52-8.06,10.38-11.38ZM396.21,145.59l16.93-18.53-19.59,3.59c-.1.02-3.3.6-5.15,1l7.81,13.94Z"/>
          <path class="cls-6" d="M437.41,162.05l4.22,15.64c2.22,8.22-.76,15.31-6.94,16.98-7.26,1.96-12.86-5.11-14.71-10.83,2.45,10.48-.21,16.46-7.12,18.33-7.42,2-13.15-2.5-15.87-12.6l-4.18-15.48,44.6-12.03ZM398.34,191.66c2.26,2.3,6.08,3.52,11.62,2.03,9.59-2.59,9.68-9.62,9.01-12.1l-1.38-5.13-21.76,5.87,2.52,9.33ZM420.05,182.69c1.44,2.55,5.08,6.05,12.25,4.11,7.04-1.9,9.18-6.78,7.73-12.13l-1.07-3.98-20.65,5.57,1.74,6.44Z"/>
        </g>
        <g>
          <path class="cls-6" d="M42.57,315.09c-2.47-1.84-5.79-5.24-7.4-9.71-3.34-9.28,2.69-17.53,10.89-20.48,8.81-3.17,18.94.17,22.13,9.02,1,2.78,1.77,7.4,1.43,10.15l-5.63.09c1.16-2.66,3.7-9.14,3.4-10.82-2.22-5.17-8.07-6.41-16.41-3.4-10.07,3.63-16.44,10.82-14.07,17.39.31.86.9,2.07,1.31,2.57l12.42-4.47,2.16,5.98-10.23,3.68Z"/>
          <path class="cls-6" d="M74.87,311.52l9.77,17.22-.71.4c-.29-.55-4-7.58-4.51-8.48l-1.89-3.34-13.53,7.67,1.24,2.19c.5.88,4.32,7.43,4.85,8.26l-.71.4c-.44-.88-4.12-7.51-4.62-8.39l-1.24-2.19-14.26,8.09,1.99,3.51c.51.9,4.64,7.69,4.97,8.22l-.71.4-9.86-17.39,29.22-16.58Z"/>
          <path class="cls-6" d="M95.45,348.75c.18-3.47-.47-6.33-2.11-8.46-2.09-2.72-4.91-3.28-7.2-1.52-2.3,1.77-2.89,4.95-2.64,10.23.35,7.42-.12,10.75-3.37,13.25-5.08,3.91-11.84,1.81-15.12-2.45-1.64-2.13-2.73-5.2-2.69-8.74l.88-.07c-.2,3.36.33,5.83,2,8,2.36,3.06,5.89,4.07,9.1,1.6,2.78-2.14,2.84-5,2.76-11.06-.07-4.55.06-8.98,3.79-11.85,4.43-3.41,9.97-1.64,12.63,1.82,2.15,2.8,2.77,6.35,2.8,9.2l-.84.04Z"/>
          <path class="cls-6" d="M100.81,350.07l17.7,17.27-.57.58c-.4-.42-5.26-5.47-6.38-6.6l-23.09,23.66-4.55-4.44,23.09-23.66c-1.1-1.04-6.32-5.83-6.76-6.23l.57-.58Z"/>
          <path class="cls-6" d="M116.59,394.46l-9.62-7.13c-4.16,2.95-8.09,5.84-9,6.57l-.73-.54,29.18-20.21,2.97,2.2-10.89,33.76-5.4-4,3.5-10.65ZM116.78,393.92l5.71-17.34-11.92,8.22c-.06.04-2.01,1.38-3.12,2.2l9.33,6.92ZM123.58,367.58c2.28-2.31,5.13-3.13,7.09-2.27,1.29.96,4.91,6.27,5.84,7.65.57-.08,1.71-.65,2.43-1.31l.37.39c-2.29,2.28-5.01,3.22-7.09,2.27-1.2-.89-5-6.36-5.86-7.66-.51,0-1.74.65-2.43,1.3l-.35-.38Z"/>
          <path class="cls-6" d="M133.1,398.76c4.11-8.3,14.18-12.54,21.9-8.72,7.7,3.81,10.46,14.38,6.35,22.68s-14.13,12.45-21.84,8.64c-7.72-3.82-10.52-14.3-6.41-22.61ZM140.72,421.32c4.9,1.94,10.21-2.02,13.94-9.57,3.69-7.47,5.15-17.29-.88-21.67-5.01-1.94-10.27,2.1-13.96,9.56-3.74,7.57-5.09,17.35.9,21.68Z"/>
          <path class="cls-7" d="M186.96,402.85l6.17,1.53-8.1,32.6-6.17-1.53,8.1-32.6Z"/>
          <path class="cls-7" d="M200.02,413.31l-1.44,12.39c-.51,4.43-1.29,13.26-1.33,14l-.83-.1,3.87-33.37,3.58.42,16.51,28.89,1.47-12.66c.51-4.43,1.27-13.26,1.33-14l.83.1-3.87,33.37-3.58-.41-16.54-28.63Z"/>
          <path class="cls-7" d="M229.01,409.18l24.69-1.2.04.82c-.58,0-7.59.13-9.17.18l1.6,33.01-6.35.31-1.6-33.01c-1.51.1-8.57.66-9.17.71l-.04-.81Z"/>
          <path class="cls-7" d="M259.04,407.07l19.4-3.94.16.8c-.62.1-8.45,1.45-9.46,1.65l-3.76.76,3.09,15.24,2.47-.5c.99-.2,8.4-1.8,9.35-2.05l.16.8c-.97.15-8.42,1.59-9.41,1.79l-2.47.5,3.26,16.06,3.95-.8c1.01-.21,8.75-2.02,9.35-2.17l.16.8-19.59,3.98-6.69-32.92Z"/>
          <path class="cls-7" d="M284.63,401.22l5.98-2.17,11.26,31.08,3.75-1.36c1.85-.67,8.36-3.28,8.94-3.52l.28.77-18.75,6.8-11.45-31.59Z"/>
          <path class="cls-7" d="M307.7,392.1l5.7-2.81,14.87,30.12-5.7,2.81-14.87-30.12Z"/>
          <path class="cls-7" d="M358.82,396.97c-1.18,2.85-3.67,6.89-7.61,9.54-8.18,5.51-17.65,1.67-22.52-5.56-5.22-7.77-4.46-18.41,3.35-23.66,2.45-1.65,6.74-3.52,9.49-3.87l1.46,5.44c-2.86-.47-9.76-1.36-11.32-.66-4.47,3.41-4.24,9.39.7,16.74,5.98,8.88,14.5,13.3,20.3,9.4.76-.51,1.79-1.38,2.17-1.89l-7.37-10.95,5.28-3.55,6.07,9.02Z"/>
          <path class="cls-7" d="M347.45,366.55l14.35-13.65.56.59c-.47.41-6.39,5.71-7.14,6.42l-2.78,2.65,10.72,11.27,1.83-1.74c.73-.69,6.16-5.99,6.84-6.7l.56.59c-.75.64-6.29,5.82-7.02,6.51l-1.83,1.74,11.3,11.88,2.92-2.78c.75-.71,6.34-6.36,6.78-6.81l.56.59-14.49,13.78-23.16-24.35Z"/>
          <path class="cls-7" d="M371.87,352.27l9.95,7.54c3.56,2.7,10.76,7.85,11.39,8.26l-.51.67-26.79-20.29,2.17-2.87,33.29.46-10.16-7.7c-3.56-2.7-10.78-7.83-11.39-8.26l.51-.67,26.79,20.29-2.17,2.87-33.08-.3Z"/>
          <path class="cls-7" d="M383.07,325.2l11.47-21.89.72.38c-.29.5-3.73,6.61-4.49,8l29.27,15.34-2.95,5.63-29.27-15.34c-.68,1.35-3.78,7.72-4.03,8.26l-.72-.38Z"/>
          <path class="cls-7" d="M396.47,298.17l6.39-18.73.77.26c-.22.58-3.02,8.02-3.35,9l-1.24,3.63,14.71,5.02.81-2.38c.33-.95,2.68-8.16,2.96-9.11l.77.26c-.36.92-2.88,8.07-3.21,9.02l-.81,2.38,15.51,5.29,1.3-3.81c.33-.98,2.67-8.57,2.85-9.17l.77.26-6.46,18.91-31.79-10.85Z"/>
        </g>
      </g>
    </g>
  </g>
</svg>