<?xml version="1.0" encoding="UTF-8"?>
<svg id="Camada_2" data-name="Camada 2" xmlns="http://www.w3.org/2000/svg" viewBox="0 0 124.06 109.94">
  <defs>
    <style>
      .cls-1 {
        fill: #000;
      }

      .cls-1, .cls-2 {
        stroke-width: 0px;
      }

      .cls-2 {
        fill: #5b8ae6;
      }
    </style>
  </defs>
  <g id="OBJECTS">
    <g>
      <path class="cls-1" d="M88.56,109.94H21.39c-11.79,0-21.39-9.59-21.39-21.39V21.39C0,9.59,9.59,0,21.39,0h67.17c11.79,0,21.39,9.59,21.39,21.39,0,2.59-2.1,4.7-4.7,4.7s-4.7-2.1-4.7-4.7c0-6.61-5.38-11.99-11.99-11.99H21.39c-6.61,0-11.99,5.38-11.99,11.99v67.17c0,6.61,5.38,11.99,11.99,11.99h67.17c6.61,0,11.99-5.38,11.99-11.99,0-2.59,2.1-4.7,4.7-4.7s4.7,2.1,4.7,4.7c0,11.79-9.59,21.39-21.39,21.39Z"/>
      <path class="cls-2" d="M55.32,53.92c4.5-2.83,7.49-7.83,7.49-13.54,0-8.84-7.17-16.01-16.01-16.01s-16.01,7.17-16.01,16.01c0,5.71,3,10.7,7.49,13.54-8.08,3.34-13.77,11.31-13.77,20.6v3.82c0,2.26,1.84,4.1,4.1,4.1h36.37c2.26,0,4.1-1.84,4.1-4.1v-3.82c0-9.29-5.69-17.25-13.77-20.6Z"/>
      <path class="cls-2" d="M119.36,50.27h-26.29l8.21-7.33c1.94-1.73,2.1-4.7.37-6.63-1.73-1.93-4.7-2.1-6.63-.37l-17.39,15.53c-1,.89-1.57,2.17-1.57,3.5s.57,2.61,1.57,3.5l17.39,15.53c.9.8,2.01,1.19,3.13,1.19,1.29,0,2.58-.53,3.51-1.57,1.73-1.93,1.56-4.91-.37-6.63l-8.21-7.33h26.29c2.59,0,4.7-2.1,4.7-4.7s-2.1-4.7-4.7-4.7Z"/>
    </g>
  </g>
</svg>