<?xml version="1.0" encoding="UTF-8"?>
<svg id="Camada_2" data-name="Camada 2" xmlns="http://www.w3.org/2000/svg" viewBox="0 0 438 510">
  <defs>
    <style>
      .cls-1 {
        fill: #020f60;
        stroke-width: 0px;
      }
    </style>
  </defs>
  <g id="Layer_1" data-name="Layer 1">
    <g id="_6862_-_Height_Check" data-name="6862 - Height Check">
      <g>
        <path class="cls-1" d="M432,510H6c-3.31,0-6-2.69-6-6v-36c0-3.31,2.69-6,6-6h426c3.31,0,6,2.69,6,6v36c0,3.31-2.69,6-6,6ZM12,498h414v-24H12v24Z"/>
        <path class="cls-1" d="M120,474H42c-3.31,0-6-2.69-6-6V72c0-3.31,2.69-6,6-6s6,2.69,6,6v390h66V72c0-3.31,2.69-6,6-6s6,2.69,6,6v396c0,3.31-2.69,6-6,6Z"/>
        <path class="cls-1" d="M120,42c-3.31,0-6-2.69-6-6V12H48v24c0,3.31-2.69,6-6,6s-6-2.69-6-6V6c0-3.31,2.69-6,6-6h78c3.31,0,6,2.69,6,6v30c0,3.31-2.69,6-6,6Z"/>
        <path class="cls-1" d="M168,78H30c-3.31,0-6-2.69-6-6v-36c0-3.31,2.69-6,6-6h138c3.31,0,6,2.69,6,6v36c0,3.31-2.69,6-6,6ZM36,66h126v-24H36v24Z"/>
        <path class="cls-1" d="M78,114h-36c-3.31,0-6-2.69-6-6s2.69-6,6-6h36c3.31,0,6,2.69,6,6s-2.69,6-6,6Z"/>
        <path class="cls-1" d="M66,144h-24c-3.31,0-6-2.69-6-6s2.69-6,6-6h24c3.31,0,6,2.69,6,6s-2.69,6-6,6Z"/>
        <path class="cls-1" d="M78,174h-36c-3.31,0-6-2.69-6-6s2.69-6,6-6h36c3.31,0,6,2.69,6,6s-2.69,6-6,6Z"/>
        <path class="cls-1" d="M66,204h-24c-3.31,0-6-2.69-6-6s2.69-6,6-6h24c3.31,0,6,2.69,6,6s-2.69,6-6,6Z"/>
        <path class="cls-1" d="M78,240h-36c-3.31,0-6-2.69-6-6s2.69-6,6-6h36c3.31,0,6,2.69,6,6s-2.69,6-6,6Z"/>
        <path class="cls-1" d="M66,270h-24c-3.31,0-6-2.69-6-6s2.69-6,6-6h24c3.31,0,6,2.69,6,6s-2.69,6-6,6Z"/>
        <path class="cls-1" d="M78,300h-36c-3.31,0-6-2.69-6-6s2.69-6,6-6h36c3.31,0,6,2.69,6,6s-2.69,6-6,6Z"/>
        <path class="cls-1" d="M66,330h-24c-3.31,0-6-2.69-6-6s2.69-6,6-6h24c3.31,0,6,2.69,6,6s-2.69,6-6,6Z"/>
        <path class="cls-1" d="M270,42h-102c-3.31,0-6-2.69-6-6s2.69-6,6-6h102c3.31,0,6,2.69,6,6s-2.69,6-6,6Z"/>
        <path class="cls-1" d="M120,432H42c-3.31,0-6-2.69-6-6v-42c0-3.31,2.69-6,6-6h78c3.31,0,6,2.69,6,6v42c0,3.31-2.69,6-6,6ZM48,420h66v-30H48v30Z"/>
        <path class="cls-1" d="M390,108c-1.53,0-3.07-.59-4.24-1.76l-19.76-19.76-19.76,19.76c-2.34,2.34-6.14,2.34-8.48,0-2.34-2.34-2.34-6.14,0-8.49l24-24c2.34-2.34,6.14-2.34,8.48,0l24,24c2.34,2.34,2.34,6.14,0,8.49-1.17,1.17-2.71,1.76-4.24,1.76Z"/>
        <path class="cls-1" d="M366,396c-1.53,0-3.07-.59-4.24-1.76l-24-24c-2.34-2.34-2.34-6.14,0-8.48,2.34-2.34,6.14-2.34,8.48,0l19.76,19.76,19.76-19.76c2.34-2.34,6.14-2.34,8.48,0,2.34,2.34,2.34,6.14,0,8.48l-24,24c-1.17,1.17-2.71,1.76-4.24,1.76Z"/>
        <path class="cls-1" d="M366,396c-3.31,0-6-2.69-6-6V78c0-3.31,2.69-6,6-6s6,2.69,6,6v312c0,3.31-2.69,6-6,6Z"/>
        <path class="cls-1" d="M300,360h-108c-3.31,0-6-2.69-6-6v-102c0-33.08,26.92-60,60-60s60,26.92,60,60v102c0,3.31-2.69,6-6,6ZM198,348h96v-96c0-26.47-21.53-48-48-48s-48,21.53-48,48v96Z"/>
        <path class="cls-1" d="M276,474h-60c-3.31,0-6-2.69-6-6v-114c0-3.31,2.69-6,6-6h60c3.31,0,6,2.69,6,6v114c0,3.31-2.69,6-6,6ZM222,462h48v-102h-48v102Z"/>
        <path class="cls-1" d="M246,204c-23.16,0-42-18.84-42-42s18.84-42,42-42,42,18.84,42,42-18.84,42-42,42ZM246,132c-16.54,0-30,13.46-30,30s13.46,30,30,30,30-13.46,30-30-13.46-30-30-30Z"/>
        <path class="cls-1" d="M246,474c-3.31,0-6-2.69-6-6v-66c0-3.31,2.69-6,6-6s6,2.69,6,6v66c0,3.31-2.69,6-6,6Z"/>
        <path class="cls-1" d="M222,360c-3.31,0-6-2.69-6-6v-54c0-3.31,2.69-6,6-6s6,2.69,6,6v54c0,3.31-2.69,6-6,6Z"/>
        <path class="cls-1" d="M270,360c-3.31,0-6-2.69-6-6v-54c0-3.31,2.69-6,6-6s6,2.69,6,6v54c0,3.31-2.69,6-6,6Z"/>
      </g>
    </g>
  </g>
</svg>