<?xml version="1.0" encoding="UTF-8"?>
<svg id="Camada_2" data-name="Camada 2" xmlns="http://www.w3.org/2000/svg" viewBox="0 0 86.43 86.31">
  <defs>
    <style>
      .cls-1 {
        fill: #020f60;
        stroke-width: 0px;
      }
    </style>
  </defs>
  <g id="_115" data-name="115">
    <g>
      <path class="cls-1" d="M7.58,7.48c.06,0,.11.78.16,2.29.05,1.5.1,3.73.15,6.61.01.96.03,1.99.05,3.09.03,1.1.06,2.27.05,3.51-.15,1.24.27,2.54.04,3.92-.06,1.37,0,2.81.04,4.3.05,1.5-.09,3.06.04,4.68.29,1.62-.32,3.3.04,5.04.08,1.74.06,3.53.04,5.39-.22,1.85,0,3.76.04,5.72-.26,1.96-.15,3.97.03,6.03-.36,2.06-.3,4.17.03,6.33.01,2.16-.13,4.37.03,6.62.02,1.13.03,2.26.05,3.41,0,.57,0,1.15,0,1.73,0,.29,0,.58,0,.87v.44s0,.04,0,.05v.03s0,.06,0,.06c.02.05.04.08.06.11.08-.02.13-.04.18-.06h.03s.04-.02.07-.02h.1s.4-.02.4-.02c.54-.02,1.08-.03,1.62-.02,1.08,0,2.18.06,3.28.15,2.42-.26,4.89-.16,7.39-.02,2.5.14,5.04-.23,7.62-.02,2.57.01,5.18-.06,7.83-.02,2.64.11,5.32.23,8.02-.01,2.71-.06,5.44-.15,8.21-.01,2.76-.28,5.55-.15,8.37,0,2.82-.05,5.66.15,8.52,0,1.43.02,2.87,0,4.31-.03.72-.01,1.45-.02,2.17-.02.36,0,.72,0,1.09.01.06,0,.05,0,.06,0h.02s.04.01.04.01l.09.02h0l.02-.07v-.04s.01-.02.01-.02c0,0,0,0,0-.06,0-.36.02-.73.03-1.09.02-.72.03-1.45.03-2.17.01-1.44,0-2.88-.09-4.31-.18-2.87.07-5.71,0-8.52.26-2.82-.08-5.61,0-8.37-.03-2.76.15-5.5.01-8.2-.05-2.71-.1-5.38.01-8.02-.4-2.64.1-5.25.02-7.83.17-2.57-.03-5.11.02-7.62-.07-2.5.18-4.96.02-7.39.01-1.09,0-2.17-.03-3.24,0-.54-.02-1.07-.02-1.6v-.4s0-.1,0-.1v-.06s0-.04,0-.04c0-.05.01-.11.02-.19-.04,0-.09-.02-.15-.04l-.06.02h-.03s-.11.01-.11.01l-.44.02c-.29,0-.58.01-.87,0-.58,0-1.16-.03-1.73-.05-1.15-.05-2.29-.1-3.41-.04-2.25,0-4.46.01-6.62-.03-2.16-.31-4.27-.05-6.33-.03-2.06-.03-4.07.17-6.03-.03-1.96-.03-3.87-.16-5.72-.04-1.85.05-3.65-.45-5.38-.04-1.74.07-3.42-.32-5.04-.04-1.62.25-3.18-.03-4.68-.04-1.5-.01-2.93-.03-4.31-.04-6.17-.07-11.02-.14-14.33-.22-1.66-.04-2.92-.08-3.78-.12-.86-.04-1.3-.08-1.3-.12,0-.05.55-.09,1.6-.14,1.05-.05,2.61-.09,4.64-.13,4.06-.09,9.99-.16,17.48-.23,1.5-.01,3.06-.23,4.68-.04,1.62,0,3.3-.16,5.04-.04,1.74-.29,3.53-.05,5.38-.04,1.85-.01,3.76.08,5.72-.04,1.96-.17,3.97.08,6.03-.04,2.06.18,4.17.13,6.33-.03,2.16.17,4.37-.04,6.62-.03,1.13.13,2.26.15,3.41.12.57-.01,1.15-.04,1.73-.07.29-.01.58-.03.87-.04l.44-.02h.11s.19-.01.19-.01h.39c.42-.02.85-.02,1.27-.03,0,.47,0,.94.01,1.42,0,.33,0,.66,0,.99,0,.53,0,1.07-.01,1.6-.01,1.07-.03,2.16,0,3.24-.05,2.42.07,4.89.02,7.39.12,2.5.17,5.04.02,7.62.09,2.57.02,5.18.02,7.83.11,2.64-.01,5.32.01,8.02.05,2.71-.28,5.44.01,8.2.04,2.76-.05,5.55,0,8.37-.04,2.82-.08,5.66,0,8.52-.14,1.43-.17,2.87-.15,4.31.01.72.04,1.44.06,2.17.02.36.03.73.04,1.09.02.67.03,1.34.04,2.01h0c-1.03.01-2.07.03-3.09.04-.72,0-1.45,0-2.17,0-1.44,0-2.88-.03-4.31-.05-2.87.03-5.71.01-8.52,0-2.82.09-5.61-.12-8.37,0-2.76.12-5.5-.13-8.21-.01-2.71.08-5.38.13-8.02-.01-2.64,0-5.25-.26-7.83-.02-2.57.06-5.11.38-7.62-.02-2.5.1-4.96-.19-7.39-.02-1.1-.13-2.2-.15-3.28-.13-.54.01-1.08.03-1.62.05h-.4s-.23.02-.23.02h-.35c-.47.01-.95.02-1.42.02,0-.37,0-.74,0-1.12.03-1.27.06-2.54.08-3.79.02-1.15,0-2.29-.06-3.41-.14-2.25.08-4.46.03-6.62-.17-2.16.22-4.27.03-6.33.04-2.06-.03-4.07.04-6.03-.4-1.96,0-3.87.04-5.72.06-1.85-.26-3.65.04-5.39-.3-1.74-.04-3.42.04-5.04.09-1.62-.13-3.18.04-4.68-.21-1.5.12-2.93.04-4.3.14-1.37,0-2.68.04-3.92-.05-1.24-.03-2.41.05-3.51.02-1.1.03-2.13.05-3.09.05-2.88.1-5.1.15-6.61.05-1.5.11-2.29.16-2.29Z"/>
      <path class="cls-1" d="M9.85.73s-.22.07-.65.11c-.22.01-.48.08-.8.14-.32.05-.67.17-1.07.28-.79.27-1.75.71-2.71,1.46-.96.75-1.94,1.81-2.59,3.26-.44.95-.74,2.06-.8,3.26,0,.15,0,.3-.01.45,0,.16,0,.32,0,.48,0,.32.01.65.02.98.01.66.02,1.35,0,2.05-.15,1.41.27,2.89.04,4.45-.07,1.56,0,3.19.04,4.89.05,1.7-.09,3.47.04,5.31.29,1.84-.31,3.75.04,5.72.08,1.97.06,4.01.04,6.12-.22,2.1,0,4.27.04,6.49-.26,2.23-.15,4.51.03,6.85-.36,2.34-.3,4.74.03,7.19.01,2.45-.13,4.96.03,7.51.02,2.56.09,5.17.03,7.82l.04.5c0,.08.01.17.02.25l.03.23c.04.3.06.6.13.9l.09.44c.04.15.08.29.12.43.05.14.07.29.13.43l.16.42.08.21c.03.07.06.14.09.21l.19.41c.06.14.15.27.22.4l.22.4.26.38c.09.13.17.26.27.38.2.24.38.5.6.72l.38.28.4.25c.25.18.54.32.81.47.13.08.28.14.42.21l.42.2c.15.06.29.1.44.16.15.05.29.12.44.15l.45.12c.08.02.15.05.23.06l.23.04.46.09c.16.03.31.03.47.05.16.01.31.03.48.04l.53.02c.35.02.71.03,1.06.05,2.84.14,5.72-.23,8.65-.02,2.92.01,5.89-.06,8.88-.02,3,.11,6.04.22,9.11-.01,3.07-.06,6.18-.15,9.31-.01,3.14-.28,6.31-.15,9.5,0,3.2-.04,6.42.15,9.68,0,3.25.04,6.53-.12,9.83,0,1.49.02,3-.33,4.27-1.12.33-.18.62-.42.92-.64.14-.12.28-.25.41-.38.07-.06.14-.12.2-.19l.18-.21c.51-.54.9-1.18,1.21-1.84.07-.17.14-.34.21-.51.07-.17.12-.35.18-.52l.09-.26c.03-.09.04-.18.07-.26l.13-.53c.03-.18.05-.36.09-.54l.04-.27c0-.09.01-.18.02-.27l.04-.54v-.6c.05-1.61.09-3.22.06-4.82.26-3.2-.08-6.37,0-9.5-.03-3.14.15-6.24.01-9.31-.05-3.07-.1-6.11.01-9.11-.4-3,.1-5.96.02-8.89.17-2.92-.02-5.8.02-8.64-.07-2.84.18-5.64.02-8.39.02-1.38-.02-2.74-.03-4.09,0-.68-.01-1.35,0-2.02,0-.33,0-.67.02-1,0-.17,0-.32,0-.47v-.46c-.19-1.2-.54-2.35-1.1-3.4-.56-1.05-1.36-1.99-2.36-2.62-.12-.09-.24-.16-.37-.24l-.37-.23c-.26-.14-.52-.26-.78-.39-.27-.1-.54-.21-.82-.29l-.42-.11-.21-.06-.1-.03-.11-.02-.43-.07c-.14-.02-.28-.05-.42-.05l-.43-.02c-.14,0-.28-.02-.44-.02-.62,0-1.24-.01-1.85-.02-2.45-.31-4.85-.05-7.19-.03-2.34-.03-4.62.18-6.85-.04-2.23-.02-4.39-.16-6.49-.04-2.1.04-4.14-.45-6.12-.04-1.97.08-3.88-.32-5.72-.04-1.84.25-3.61-.03-5.31-.04-1.7-.02-3.33-.03-4.89-.04-7-.07-12.52-.14-16.27-.22-1.88-.04-3.32-.08-4.29-.12-.97-.04-1.47-.08-1.47-.12,0-.05.62-.09,1.81-.14,1.2-.04,2.97-.09,5.27-.13,4.6-.08,11.34-.16,19.84-.24,1.7-.01,3.47-.23,5.31-.04,1.84,0,3.75-.17,5.72-.04,1.97-.29,4.01-.05,6.12-.04,2.1-.02,4.27.08,6.49-.04,2.22-.17,4.51.08,6.85-.03,2.34.18,4.74.13,7.19-.03.61.04,1.23.06,1.85.07.15,0,.32,0,.49.02l.5.02c.17,0,.33.03.5.05l.5.07.13.02.12.03.25.06.5.12c.33.09.65.21.97.32.31.14.63.28.93.44l.45.26c.15.09.3.17.43.28,1.05.91,1.98,1.94,2.71,3.13.73,1.19,1.27,2.54,1.44,3.98l.04.54c.01.18.03.37.03.53,0,.33,0,.67,0,1,0,.67,0,1.34-.01,2.02-.01,1.35-.03,2.72,0,4.09-.05,2.75.07,5.55.02,8.39.12,2.84.17,5.72.02,8.64.09,2.92.02,5.88.02,8.89.1,3-.01,6.04.01,9.11.05,3.07-.28,6.18.01,9.31.04,3.14-.05,6.31,0,9.5-.02,1.6-.04,3.21-.04,4.82v.61s-.04.66-.04.66c0,.11,0,.22-.02.33l-.05.33c-.03.22-.06.44-.1.66l-.16.65c-.03.11-.05.22-.09.32l-.11.32c-.08.21-.14.42-.23.63l-.28.61c-.49.75-1.02,1.47-1.65,2.09l-.23.24c-.08.08-.17.15-.25.22-.17.15-.33.3-.5.44-.36.26-.7.55-1.08.77-1.49.97-3.27,1.52-5.09,1.6-3.3.08-6.58.04-9.83,0-3.25.03-6.48.01-9.68,0-3.2.09-6.37-.12-9.5,0-3.14.12-6.24-.13-9.31-.01-3.07.08-6.11.13-9.11-.01-3,0-5.96-.26-8.88-.02-2.92.06-5.81.38-8.65-.02-.35.01-.71.02-1.06.02h-.53c-.18,0-.38-.02-.57-.03-.19-.02-.39-.02-.57-.05l-.57-.1-.28-.05c-.09-.02-.18-.05-.28-.07l-.55-.16c-.18-.04-.36-.13-.54-.19-.18-.07-.35-.14-.53-.21l-.51-.25c-.17-.08-.34-.16-.5-.27-.32-.2-.65-.38-.95-.61l-.46-.33-.43-.36c-.26-.27-.48-.58-.72-.86-.12-.14-.22-.3-.33-.45l-.32-.45-.28-.47c-.09-.16-.2-.31-.27-.48l-.24-.49c-.04-.08-.09-.16-.12-.25l-.1-.25-.2-.51c-.07-.17-.11-.35-.16-.52-.05-.17-.1-.35-.15-.53l-.1-.54c-.08-.36-.09-.72-.12-1.08l-.02-.27c0-.09,0-.17,0-.25v-.5c.06-2.66.15-5.26.03-7.82-.14-2.56.08-5.06.03-7.51-.17-2.45.22-4.85.03-7.19.04-2.34-.03-4.62.03-6.85-.4-2.22,0-4.39.04-6.49.06-2.1-.26-4.14.04-6.12-.3-1.97-.04-3.88.04-5.72.09-1.84-.13-3.61.04-5.31-.21-1.7.12-3.33.04-4.89.14-1.56,0-3.04.04-4.45-.02-.7-.03-1.39-.02-2.05,0-.33.01-.66.02-.98,0-.16,0-.32.02-.48.02-.17.03-.33.05-.49.09-1.3.45-2.49.95-3.5.75-1.52,1.83-2.62,2.87-3.37,1.05-.75,2.07-1.15,2.91-1.39.43-.09.8-.19,1.13-.21.33-.04.6-.07.82-.06.44,0,.67.02.67.05Z"/>
      <path class="cls-1" d="M43.17,15.62c-.11,0-.22-.04-.32-.11-.02-.01-.03-.03-.05-.04-.03-.01-.06-.03-.05-.04.15-.01-.27-.03-.05-.05.07-.02,0-.04-.04-.05-.05-.02.09-.04-.04-.06-.28-.02.32-.04-.04-.06-.08-.02-.06-.04-.04-.07.22-.02,0-.05-.04-.07.26-.02.15-.05-.03-.08.36-.03.31-.05-.03-.08-.01-.03.13-.05-.03-.08-.02-.03-.09-.06-.03-.09-.24-.03-.23-.06-.02-.09-.26-.03-.16-.06-.02-.09.14-.03-.23-.06-.02-.09.02-.03-.06-.07-.02-.1.11-.03.22-.07-.01-.1-.06-.03-.15-.07-.01-.1-.28-.03-.15-.07,0-.11-.05-.04.15-.07,0-.11.04-.04-.12-.07,0-.11.08-.04.16-.07,0-.11-.18-.04.07-.07,0-.11.26-.04-.08-.07,0-.11-.03-.04.15-.07.01-.1-.05-.03-.1-.07.01-.1-.4-.03.1-.07.02-.1.17-.03-.03-.06.02-.1-.07-.03.18-.06.02-.09.03-.03-.13-.06.02-.09-.2-.03.17-.06.03-.09,0-.03-.01-.05.03-.08.31-.03.05-.05.03-.08.03-.03-.18-.05.03-.08.02-.02.16-.05.04-.07-.05-.02.45-.05.04-.07-.07-.02.32-.05.04-.06-.25-.02.03-.04.04-.06.01-.02.03-.04.04-.05.13-.16.29-.24.46-.24.18,0,.36.11.5.3.01.02.23.04.04.06,0,.02.16.04.04.06.29.02.05.04.04.07.01.02-.08.05.04.07.17.02-.08.05.03.08-.18.02-.13.05.03.08-.17.03.04.05.03.08-.27.03-.08.06.03.09.1.03-.04.06.03.09-.05.03.07.06.02.09.12.03.17.06.02.1.09.03.02.07.02.1.11.03-.01.07.01.1.06.04-.28.07.01.1.04.04-.04.07,0,.11-.04.04-.08.07,0,.11-.29.04-.11.07,0,.11.08.04.04.07,0,.11.03.04.01.07,0,.11.08.04-.12.07,0,.11.12.03-.13.07-.01.1.08.04.13.07-.01.1,0,.03-.26.07-.02.1.06.03.38.06-.02.09.1.03-.19.06-.02.09-.29.03-.02.06-.03.09-.06.03-.16.06-.03.09.14.03-.08.06-.03.08.17.03-.22.05-.03.08-.04.03.03.05-.03.08.4.03,0,.05-.04.07-.06.02.26.05-.04.07.3.02.04.04-.04.06-.09.02.13.04-.04.06.21.02-.12.04-.04.05-.14.02,0,.03-.05.05.05.02.03.03-.05.04-.01.01-.03.03-.05.04-.1.07-.21.11-.32.11Z"/>
      <path class="cls-1" d="M50.27,16.56c-.11-.03-.2-.09-.28-.19-.01-.02-.03-.03-.04-.05-.02-.02-.05-.04-.03-.06.14.02-.25-.1-.03-.06.07,0,.01-.03-.03-.06-.04-.03.1-.01-.03-.07-.27-.09.32.04-.02-.07-.07-.04-.04-.06-.02-.08.22.03.01-.04-.02-.08.26.04.16,0-.01-.08.35.07.31.03-.01-.09,0-.03.14-.02,0-.09-.02-.03-.07-.08,0-.09-.23-.09-.21-.12,0-.09-.24-.1-.14-.1,0-.1.15,0-.2-.12,0-.1.02-.03-.04-.08.01-.1.11,0,.23,0,.01-.1-.05-.05-.13-.1.02-.1-.26-.11-.13-.11.02-.1-.04-.05.16-.03.02-.11.05-.02-.1-.1.03-.1.09-.01.18-.03.03-.11-.16-.08.09-.05.03-.1.26.03-.06-.09.04-.1-.01-.04.16-.03.04-.1-.04-.05-.08-.09.04-.09-.37-.13.12-.04.04-.09.17.01,0-.07.04-.09-.06-.05.19-.01.05-.08.04-.02-.11-.09.05-.08-.18-.08.18-.01.05-.08,0-.03,0-.06.05-.07.3.05.06-.04.05-.07.04-.02-.16-.1.05-.07.03-.02.17,0,.05-.06-.04-.03.45.07.06-.06-.07-.04.32.04.05-.05-.24-.09.04-.03.06-.05.02-.01.04-.03.06-.04.17-.11.34-.16.5-.12.18.05.32.2.41.42,0,.02.21.1.03.07,0,.02.15.08.02.07.27.1.04.06.02.08,0,.03-.09.03.02.08.16.07-.09.03.01.08-.18-.02-.14.02,0,.09-.17-.02.02.06,0,.09-.26-.04-.09.03,0,.09.09.05-.05.05,0,.09-.06.02.05.08,0,.1.11.06.15.1,0,.1.07.05,0,.07,0,.1.09.06-.03.06-.01.1.04.05-.29,0-.02.1.03.04-.06.05-.02.1-.04.02-.09.05-.02.1-.29-.04-.13.04-.03.11.07.06.02.08-.03.11.02.04,0,.07-.03.1.07.06-.14.04-.04.1.11.07-.14.03-.04.1.07.06.11.1-.04.09,0,.03-.27,0-.04.09.05.05.35.16-.04.09.09.06-.2.01-.05.08-.29-.05-.03.05-.05.08-.06.01-.17.02-.05.08.13.06-.09.03-.05.07.16.07-.23,0-.05.07-.04.01.01.06-.05.06.38.13-.01.05-.05.06-.06,0,.24.11-.05.05.28.1.03.05-.06.05-.09,0,.11.07-.06.05.2.07-.12,0-.06.04-.14-.02-.02.03-.06.04.04.03.02.04-.06.03-.02,0-.04.02-.06.03-.11.04-.23.05-.33.03Z"/>
      <path class="cls-1" d="M56.88,19.3c-.1-.05-.17-.14-.22-.25,0-.02-.02-.04-.02-.06-.02-.03-.04-.05-.02-.06.13.06-.22-.16-.02-.06.07.02.02-.03-.01-.07-.03-.04.1.01,0-.07-.24-.16.3.12,0-.08-.06-.06-.03-.07,0-.08.2.09.03-.04,0-.08.24.11.15.03,0-.08.32.16.29.11.01-.09,0-.03.14.02.02-.09,0-.04-.05-.1.02-.09-.19-.14-.17-.17.02-.09-.21-.15-.1-.13.03-.09.14.05-.16-.17.03-.09.03-.02-.02-.09.04-.09.11.02.23.05.04-.09-.04-.06-.1-.13.04-.09-.22-.17-.1-.14.04-.1-.02-.05.16.01.05-.1.05,0-.07-.12.05-.09.09,0,.18.02.06-.09-.14-.12.1-.02.06-.09.24.1-.04-.1.06-.09,0-.04.16.01.06-.08-.02-.05-.05-.11.06-.08-.33-.23.12,0,.06-.08.16.05.01-.07.07-.07-.05-.06.19.04.07-.07.04,0-.08-.12.07-.07-.16-.12.17.03.07-.06.02-.02.02-.05.07-.06.28.13.07-.02.07-.05.04,0-.13-.13.07-.05.03,0,.16.04.07-.04-.03-.04.41.18.07-.04-.05-.05.3.12.07-.04-.21-.14.05-.02.07-.03.02,0,.04-.02.06-.03.19-.07.37-.07.52.02.16.09.25.27.28.51,0,.02.18.15,0,.07-.01.02.12.12,0,.08.24.16.02.06,0,.08,0,.03-.09,0,0,.08.13.1-.1,0,0,.08-.17-.07-.14-.02-.01.09-.16-.06,0,.06-.02.09-.25-.11-.1.01-.02.09.07.07-.06.03-.02.09-.06,0,.03.09-.03.09.09.09.12.14-.03.09.06.07-.02.07-.03.09.08.08-.04.05-.04.09.03.06-.28-.08-.04.09.01.05-.08.04-.05.1-.05.01-.1.02-.05.1-.27-.11-.13,0-.05.09.05.07,0,.08-.05.09,0,.05-.02.07-.06.09.06.07-.14,0-.06.09.09.09-.15,0-.06.08.06.07.08.12-.06.08-.02.03-.26-.07-.06.08.03.06.3.25-.07.07.07.08-.2-.04-.07.07-.27-.12-.04.04-.07.06-.06,0-.16-.03-.07.06.11.09-.09.01-.07.06.13.11-.22-.06-.07.05-.05,0,0,.06-.07.05.33.22-.03.04-.07.04-.06,0,.21.17-.07.04.25.17.01.06-.07.04-.09-.03.09.1-.07.03.17.12-.12-.03-.07.03-.13-.05-.02.02-.06.02.03.04.01.04-.06.01-.02,0-.04,0-.06,0-.12.01-.23,0-.33-.06Z"/>
      <path class="cls-1" d="M62.55,23.66c-.08-.08-.13-.18-.14-.3,0-.02,0-.04,0-.06,0-.03-.02-.06,0-.06.11.09-.17-.21,0-.07.06.03.03-.02,0-.07-.02-.05.09.04.01-.07-.19-.22.25.19.02-.07-.04-.07,0-.07.02-.08.17.14.04-.03.03-.08.2.17.14.07.03-.08.27.24.25.18.03-.08.01-.03.13.05.04-.08,0-.04-.02-.1.04-.08-.15-.19-.12-.21.05-.08-.16-.2-.07-.15.05-.08.12.08-.12-.21.05-.08.03-.01,0-.09.06-.08.1.05.21.11.06-.08-.02-.07-.06-.16.07-.08-.17-.22-.06-.16.07-.08,0-.06.16.06.07-.08.06,0-.03-.14.08-.08.08.03.17.06.08-.08-.1-.15.1,0,.08-.07.21.16,0-.11.08-.07,0-.04.15.05.08-.07,0-.06-.02-.12.08-.06-.26-.3.12.03.08-.06.14.09.03-.06.08-.05-.03-.08.17.08.08-.05.04,0-.05-.13.08-.05-.12-.16.16.08.08-.04.02-.02.03-.05.08-.04.24.2.08,0,.08-.04.04,0-.09-.16.08-.03.04,0,.15.08.08-.02-.02-.05.35.29.08-.02-.04-.07.25.19.07-.02-.16-.2.05,0,.07-.01.02,0,.05,0,.07,0,.21-.02.38.03.5.15.13.13.18.33.14.57,0,.02.14.19-.01.07-.02.01.09.15-.02.07.19.22,0,.07-.02.08,0,.03-.09-.02-.03.08.1.14-.09-.02-.03.08-.14-.11-.13-.06-.03.08-.14-.1-.01.06-.04.08-.21-.17-.1-.02-.04.08.05.09-.07.01-.05.08-.06-.01,0,.09-.05.08.06.11.07.17-.05.08.04.08-.04.06-.06.08.05.1-.06.04-.06.08.02.06-.25-.15-.06.08,0,.05-.08.02-.07.08-.05,0-.1,0-.07.08-.23-.18-.13-.03-.08.08.03.08-.02.08-.08.08,0,.04-.04.06-.08.07.04.09-.14-.04-.08.07.06.11-.14-.04-.08.07.03.08.04.14-.08.06-.02.02-.23-.14-.08.06.02.06.22.32-.08.05.05.09-.18-.09-.08.05-.23-.19-.05.03-.08.04-.06-.02-.15-.07-.08.04.08.12-.09-.01-.08.04.1.14-.19-.12-.08.03-.04,0-.02.05-.08.03.26.3-.04.03-.08.03-.06-.02.15.22-.07.02.2.23,0,.06-.07.02-.08-.05.06.12-.07.01.14.16-.11-.06-.07,0-.11-.09-.03.02-.07,0,.02.05,0,.04-.06,0-.02,0-.04,0-.06,0-.12-.02-.22-.06-.3-.14Z"/>
      <path class="cls-1" d="M66.9,29.33c-.05-.09-.07-.21-.06-.33,0-.02,0-.04,0-.06,0-.03,0-.07.02-.06.09.12-.11-.25.02-.06.05.05.03-.01.03-.06,0-.05.08.06.03-.07-.12-.26.19.25.03-.07-.02-.08.01-.07.04-.07.13.18.04-.02.05-.07.15.22.12.1.05-.07.2.3.2.24.05-.07.02-.02.11.08.06-.07.01-.04,0-.11.06-.07-.09-.22-.06-.23.07-.07-.1-.24-.02-.17.07-.07.1.11-.06-.23.07-.06.04,0,.03-.08.08-.06.08.07.17.16.08-.06,0-.07-.02-.16.08-.06-.11-.26-.01-.17.09-.06,0-.06.14.09.09-.06.05.02,0-.14.09-.05.07.05.14.1.09-.05-.06-.17.1.03.1-.05.16.21.02-.11.09-.04.02-.04.13.09.1-.04,0-.06.01-.12.09-.04-.17-.36.11.06.09-.03.11.13.04-.05.09-.03,0-.08.15.13.09-.03.04.01-.01-.14.09-.02-.07-.18.13.11.09-.02.02-.01.04-.04.09-.02.18.25.07.02.08-.01.04.02-.04-.18.08,0,.03,0,.12.11.08,0,0-.05.26.37.08,0-.02-.08.2.25.08,0-.11-.23.05,0,.07,0,.02,0,.05,0,.07.01.2.04.36.13.44.27.09.16.08.37,0,.58,0,.02.08.22-.03.07-.02,0,.05.16-.03.07.12.26-.01.07-.04.07-.01.02-.08-.04-.04.07.06.16-.08-.05-.05.07-.11-.14-.11-.09-.05.07-.11-.14-.03.06-.06.07-.16-.22-.09-.04-.06.07.02.1-.07,0-.07.07-.05-.03-.02.09-.07.07.04.12.03.18-.07.06.01.09-.05.05-.08.06.02.11-.07.02-.08.06,0,.07-.2-.21-.08.06-.01.05-.08,0-.09.06-.05-.01-.1-.03-.09.06-.18-.23-.12-.06-.09.06,0,.09-.04.07-.09.05-.02.04-.05.05-.1.05.01.09-.12-.07-.09.05.03.12-.13-.08-.1.04.01.09,0,.15-.09.04-.03.02-.19-.19-.09.04,0,.07.13.36-.09.03.02.1-.15-.14-.09.03-.17-.24-.06.02-.09.02-.05-.04-.13-.11-.09.02.05.14-.09-.04-.09.01.06.16-.16-.17-.08.01-.04-.02-.03.05-.08,0,.18.36-.04.02-.08,0-.05-.04.09.25-.08,0,.13.27-.02.06-.08,0-.06-.07.03.13-.07,0,.09.19-.09-.08-.07-.01-.08-.11-.03,0-.06-.01,0,.05-.01.04-.06-.02-.02,0-.04-.01-.06-.02-.11-.05-.2-.12-.25-.22Z"/>
      <path class="cls-1" d="M19.43,29.3c-.06.1-.14.17-.25.22-.02,0-.04.01-.06.02-.03.02-.06.04-.06.02.06-.13-.16.22-.06.01.02-.06-.03-.02-.07.01-.04.04.01-.1-.07,0-.16.24.12-.29-.08,0-.06.06-.07.03-.08,0,.09-.2-.04-.02-.08,0,.11-.24.03-.15-.08,0,.16-.32.11-.29-.09-.01-.03,0,.02-.14-.09-.02-.04,0-.09.05-.09-.02-.15.19-.17.17-.09-.02-.16.21-.13.11-.09-.03.04-.14-.17.17-.09-.03-.02-.03-.09.02-.09-.03.02-.11.05-.23-.09-.04-.06.04-.13.1-.09-.04-.17.22-.14.1-.1-.04-.05.02.01-.17-.1-.05-.01-.06-.12.07-.09-.05,0-.09.02-.18-.1-.06-.12.14-.02-.1-.09-.06.1-.24-.1.04-.09-.06-.04,0,.02-.16-.08-.06-.05.02-.11.05-.08-.06-.23.33,0-.12-.08-.06.06-.16-.07-.01-.07-.06-.06.05.04-.19-.07-.07-.01-.04-.12.08-.07-.07-.12.16.03-.17-.06-.07-.02-.01-.06-.02-.06-.07.13-.28-.02-.07-.05-.07,0-.04-.13.13-.05-.07,0-.03.04-.16-.04-.07-.04.03.18-.41-.04-.07-.06.05.12-.3-.04-.07-.14.21-.02-.05-.03-.07,0-.02-.02-.04-.02-.06-.07-.19-.07-.37.02-.52.09-.16.27-.25.51-.29.02,0,.15-.18.07,0,.02.01.12-.12.08,0,.16-.24.07-.02.08,0,.03,0,0,.09.08,0,.11-.13,0,.1.08,0-.07.17-.02.14.08.01-.06.16.07,0,.09.02-.11.24.01.1.09.02.07-.07.03.06.09.02,0,.06.09-.03.09.03.09-.09.14-.12.09.03.07-.06.06.02.09.03.08-.07.05.05.09.04.06-.03-.08.28.1.04.05-.02.04.08.1.04.01.05.02.1.1.05-.11.27,0,.13.09.05.07-.05.08,0,.09.06.05,0,.07.02.09.06.07-.06,0,.14.09.06.09-.09,0,.15.08.06.07-.05.12-.08.08.06.03.02-.07.26.08.06.06-.03.25-.3.07.07.08-.07-.04.2.07.07-.12.27.05.04.07.07,0,.06-.03.17.06.07.09-.11.01.09.06.07.11-.13-.06.22.05.07,0,.05.06,0,.05.07.22-.33.04.03.05.07,0,.06.17-.2.04.07.17-.25.06-.01.04.07-.03.09.1-.09.03.07.12-.17-.03.12.03.06-.06.13.03.02.02.06.04-.03.04-.01.01.06,0,.02,0,.04.01.06.01.12,0,.23-.06.33Z"/>
      <path class="cls-1" d="M23.78,23.63c-.08.08-.18.13-.3.14-.02,0-.04,0-.06,0-.03,0-.06.02-.06,0,.09-.11-.21.17-.07,0,.03-.06-.02-.03-.07,0-.05.02.04-.09-.07-.01-.22.19.19-.25-.07-.02-.07.04-.07,0-.07-.02.14-.17-.03-.03-.08-.03.17-.2.07-.14-.08-.03.24-.27.18-.25-.08-.03-.03-.01.05-.13-.08-.04-.04,0-.1.02-.08-.04-.19.15-.2.12-.08-.05-.21.16-.15.07-.08-.05.08-.13-.2.11-.08-.06-.01-.03-.09,0-.08-.06.05-.1.11-.21-.08-.06-.07.02-.16.06-.08-.06-.22.17-.16.06-.08-.07-.06,0,.06-.16-.08-.07,0-.06-.14.03-.08-.08.03-.09.06-.17-.07-.08-.15.1,0-.1-.07-.08.16-.21-.11,0-.07-.08-.04,0,.06-.15-.07-.08-.06,0-.12.02-.06-.08-.3.26.03-.12-.06-.08.09-.14-.06-.03-.05-.08-.07.03.08-.17-.05-.08,0-.04-.13.05-.05-.08-.16.12.08-.16-.04-.08-.02-.02-.05-.03-.04-.08.2-.24,0-.08-.03-.08,0-.04-.16.09-.03-.08,0-.04.08-.15-.03-.08-.05.02.29-.35-.02-.07-.07.04.19-.25-.02-.07-.2.17,0-.05-.01-.07,0-.02,0-.05,0-.07-.02-.21.03-.38.15-.5.13-.13.33-.17.57-.14.02,0,.19-.14.07.01.01.01.15-.09.07.02.22-.19.07,0,.08.02.03,0-.02.09.08.03.14-.1-.02.09.08.03-.11.14-.06.13.08.04-.1.14.07.01.08.04-.17.21-.02.1.08.04.09-.05.01.07.08.05-.01.06.09,0,.08.05.11-.07.17-.08.08.05.08-.04.06.03.08.06.1-.05.04.06.08.06.06-.02-.15.25.08.07.05,0,.02.08.08.07,0,.05,0,.1.08.07-.18.23-.03.13.08.08.08-.03.08.02.08.08.05,0,.06.04.07.08.09-.04-.04.14.07.08.11-.06-.04.14.06.08.08-.04.14-.04.06.08.02.02-.14.23.06.08.06-.02.32-.23.06.08.09-.05-.09.18.05.08-.19.23.03.05.05.08-.02.06-.07.15.04.08.12-.08-.01.09.04.08.14-.1-.12.19.03.08,0,.04.05.02.03.08.3-.26.03.04.03.08-.02.06.22-.15.02.08.23-.2.06,0,.02.07-.05.08.12-.06.01.07.16-.14-.06.11,0,.07-.09.11.02.03,0,.07.04-.02.04,0,0,.07,0,.02,0,.04,0,.06-.02.12-.06.22-.14.3Z"/>
      <path class="cls-1" d="M29.47,19.29c-.1.05-.21.07-.33.06-.02,0-.04,0-.06,0-.03,0-.07,0-.06-.01.12-.09-.25.11-.06-.02.05-.05-.01-.03-.06-.03-.05,0,.06-.08-.07-.03-.26.12.25-.2-.07-.03-.08.02-.07-.01-.07-.04.18-.13-.02-.04-.07-.05.21-.15.1-.12-.07-.05.3-.2.24-.2-.07-.05-.02-.02.08-.11-.07-.06-.03-.01-.11,0-.07-.06-.22.09-.23.06-.07-.07-.24.1-.17.02-.07-.07.11-.1-.23.06-.06-.07,0-.04-.08-.03-.06-.08.08-.08.16-.17-.06-.08-.07,0-.16.02-.06-.08-.26.11-.17.02-.06-.09-.06,0,.09-.14-.06-.09.02-.05-.14,0-.06-.09.05-.07.1-.14-.05-.09-.17.06.03-.1-.05-.1.21-.16-.11-.02-.05-.1-.04-.02.1-.13-.04-.09-.06,0-.12-.01-.04-.1-.36.17.06-.11-.04-.09.13-.11-.05-.04-.03-.09-.08.01.13-.15-.03-.09.01-.04-.14.01-.02-.09-.19.07.11-.13-.02-.09-.01-.02-.04-.04-.02-.09.25-.18.02-.07-.01-.09.02-.04-.18.04,0-.08,0-.03.12-.12,0-.08-.05,0,.37-.27,0-.08-.07.02.25-.2,0-.08-.23.11,0-.05,0-.07,0-.02,0-.05.01-.07.04-.2.13-.36.27-.44.16-.09.36-.08.58,0,.02,0,.22-.08.07.03,0,.02.17-.05.07.03.26-.12.07.01.07.04.02.01-.04.08.07.04.16-.06-.05.08.07.05-.14.11-.09.11.07.05-.14.11.06.03.07.06-.22.16-.04.09.07.06.1-.02,0,.07.07.06-.03.05.09.02.07.07.12-.04.18-.03.06.07.09-.01.05.05.06.08.11-.02.02.06.06.08.06,0-.21.2.06.08.05.01,0,.08.06.09-.01.05-.03.1.06.09-.23.18-.06.12.05.09.09,0,.07.04.05.1.04.02.05.05.05.1.09-.01-.07.12.05.09.12-.03-.08.12.04.09.09-.01.15,0,.04.09.02.03-.19.19.04.09.06,0,.36-.14.03.09.1-.02-.14.15.03.09-.24.17.02.06.02.09-.04.05-.11.13.02.09.14-.05-.04.09.02.09.16-.06-.16.16.01.08-.02.04.05.03,0,.08.36-.18.02.04,0,.08-.04.05.25-.09,0,.08.27-.13.06.02,0,.08-.06.06.13-.03,0,.07.19-.09-.08.09-.01.07-.11.09.01.03-.01.07.05-.01.04.01-.02.06,0,.02-.01.04-.02.06-.05.11-.12.2-.22.26Z"/>
      <path class="cls-1" d="M36.08,16.55c-.11.03-.22.02-.33-.03-.02,0-.04-.02-.06-.02-.03,0-.07-.01-.06-.03.14-.05-.27.04-.06-.04.06-.03,0-.04-.06-.04-.05,0,.08-.06-.06-.04-.28.05.29-.12-.06-.05-.08,0-.06-.03-.05-.05.2-.08-.01-.05-.05-.06.25-.09.13-.09-.05-.06.34-.12.28-.13-.05-.07-.02-.02.11-.09-.05-.07-.03-.02-.1-.03-.05-.08-.24.03-.24,0-.05-.08-.26.04-.17-.02-.05-.08.13-.07-.24,0-.04-.09,0-.04-.07-.05-.04-.09.09-.06.2-.12-.04-.09-.07-.02-.16-.03-.04-.1-.28.04-.16-.03-.04-.1-.05-.02.13-.11-.03-.1.03-.04-.13-.04-.03-.1.07-.06.14-.11-.03-.11-.18.01.05-.09-.02-.1.24-.1-.1-.05-.02-.1-.03-.03.13-.11-.02-.1-.06-.02-.11-.04-.01-.1-.39.07.08-.09,0-.1.15-.08-.04-.06,0-.1-.08-.01.16-.11,0-.09.02-.04-.14-.03,0-.09-.2.02.15-.1,0-.09,0-.03-.03-.05,0-.09.29-.11.04-.07.01-.08.03-.03-.18,0,.01-.08.02-.03.14-.09.02-.08-.05-.01.42-.16.02-.08-.08,0,.29-.12.02-.07-.25.05.02-.05.03-.07,0-.02.02-.04.03-.06.09-.18.22-.31.38-.35.18-.05.37.01.56.16.02.01.23-.02.06.05,0,.02.17,0,.05.05.28-.05.06.03.06.06.02.02-.06.07.05.06.17-.02-.07.07.05.06-.16.07-.11.08.05.07-.16.07.05.04.05.07-.25.1-.06.08.05.08.1,0-.02.07.05.08-.04.04.08.04.05.08.13,0,.18.02.04.09.09,0,.03.06.04.09.11,0,0,.07.04.09.06.02-.25.14.04.1.04.02-.03.08.04.1-.03.04-.06.09.03.1-.27.11-.09.1.03.1.09.01.06.06.03.11.04.03.03.07.02.1.09.01-.1.1.02.1.13,0-.11.1.02.1.09.01.14.03.01.1,0,.03-.24.13,0,.1.06.02.39-.04,0,.1.1,0-.17.11,0,.1-.28.11,0,.06,0,.09-.05.04-.13.1,0,.09.14,0-.06.07,0,.09.17-.02-.2.11,0,.08-.03.04.04.04-.01.08.39-.08.01.05-.02.08-.05.04.27-.02-.02.08.3-.06.05.03-.02.07-.08.04.13,0-.03.07.21-.04-.1.07-.03.06-.13.05,0,.03-.03.06.05,0,.04.02-.03.06-.01.02-.02.03-.04.05-.08.1-.17.16-.28.19Z"/>
      <path class="cls-1" d="M43.16,12.03c0,.05-.38.12-1.09.18-.36.04-.8.1-1.32.15-.26.03-.54.08-.84.12-.15.02-.3.04-.46.06-.16.03-.32.06-.49.09-.22.04-.46.08-.7.12-.24.05-.49.1-.74.16-.51.11-1.04.28-1.61.39-.3,0-.58.15-.86.28-.28.13-.57.27-.91.26-.64.12-1.26.41-1.9.7-.32.16-.66.26-1.01.39-.34.14-.69.29-1,.5-.28.3-.66.4-1.05.51-.38.13-.77.26-1.04.62-.33.24-.68.46-1.04.68-.35.23-.72.45-1.08.69-.41.16-.79.41-1.12.71-.17.15-.33.3-.5.46-.17.15-.33.32-.5.47-.88.37-1.51,1.11-2.08,1.91-.93.43-1.6,1.21-1.97,2.21-.64.77-1.37,1.53-1.83,2.49-.57.89-1.06,1.84-1.62,2.77-.08.27-.15.54-.25.79-.1.26-.2.51-.31.76-.11.25-.24.5-.38.75-.13.25-.27.5-.42.74.03.1.07.13.08.15,0,.01.02.02.02.03,0,0,0,.01,0,.01,0,0,.01,0,.02,0,.02,0,.03.02.06.05l.03.02s0,.01.1.02c.15.01.3.03.45.05,1.2.14,2.41-.23,3.64-.02,1.23.02,2.48-.06,3.74-.02,1.26.11,2.54.22,3.84-.01,1.3-.06,2.6-.15,3.93-.01,1.32-.28,2.66-.15,4,0,1.35-.05,2.71.15,4.08,0,1.37.04,2.75-.12,4.14,0,1.39.08,2.77.16,4.14,0,1.37-.18,2.73.07,4.08,0,1.35.26,2.68-.08,4,0,1.32-.03,2.63.15,3.92.01,1.29-.05,2.57-.1,3.84.01,1.26-.4,2.51.1,3.74.02,1.23.17,2.45-.03,3.64.02.15,0,.3-.01.45-.01.1,0,.08,0,.1,0h.05s.25.05.25.05h.07s0-.02,0-.03c0-.03-.02-.07-.03-.11-.03-.08-.07-.17-.14-.22-.1-.26-.21-.52-.32-.78-.12-.25-.25-.5-.37-.75-.12-.25-.24-.5-.36-.74-.12-.25-.22-.5-.31-.76-.35-.43-.56-.93-.81-1.41-.22-.49-.47-.96-.82-1.37-.59-.87-1.21-1.69-1.83-2.49-.2-.49-.53-.87-.88-1.22-.17-.18-.37-.33-.55-.5-.19-.16-.37-.32-.54-.49-.17-.17-.35-.33-.53-.49l-.27-.23c-.09-.07-.19-.15-.28-.22-.18-.15-.36-.3-.53-.46-.17-.16-.33-.32-.47-.51-.17-.15-.34-.31-.51-.46-.17-.15-.34-.3-.51-.44-.34-.29-.71-.54-1.1-.74-.37-.23-.67-.54-.99-.84-.32-.28-.68-.51-1.13-.54-.38-.16-.69-.42-1.01-.66-.33-.22-.67-.42-1.07-.46-.4-.04-.74-.2-1.06-.38-.32-.18-.63-.38-.96-.51-.66-.26-1.29-.5-1.9-.7-.17-.06-.34-.11-.51-.17-.17-.05-.34-.1-.5-.15-.33-.09-.65-.2-.96-.27-.32-.08-.62-.16-.92-.23-.3-.06-.58-.12-.86-.18-.28-.07-.55-.11-.81-.15-.26-.05-.51-.09-.74-.13-.48-.06-.91-.13-1.3-.18-.39-.05-.74-.09-1.04-.12-.3-.03-.55-.06-.76-.08-.41-.05-.62-.09-.62-.13,0-.05.26-.09.77-.12.25-.02.57-.04.94-.03.37,0,.81,0,1.3.03.24.02.5.03.78.05.27.03.56.06.86.09.15.02.3.03.46.05.16.02.31.05.48.07.32.05.66.09,1.01.17,1.39.25,2.98.65,4.7,1.27.34.13.71.21,1.07.33.36.12.72.28,1.04.52.35.17.73.31,1.11.47.37.17.75.36,1.09.62.43.09.82.3,1.18.55.35.26.7.54,1.07.81.37.26.75.52,1.11.82.18.14.37.29.56.42.19.14.38.28.59.41.21.12.41.26.59.42.18.16.36.33.53.5l.26.26.26.27c.18.18.36.34.56.5.58.84,1.32,1.55,2.12,2.26.55.92,1.35,1.66,1.97,2.58.19.54.48,1.01.79,1.48.32.47.64.93.97,1.41.16.24.29.5.42.76.13.26.25.52.36.79.11.27.23.54.34.81.11.27.22.55.35.82.17.48.34.96.52,1.45.09.25.18.49.27.74l.07.19.04.09.02.05s.02.04,0,.03h-.39c-.52.02-1.05.03-1.58.04-.25,0-.5,0-.75,0-.15,0-.3,0-.45,0-1.2.12-2.41.17-3.64.02-1.23.09-2.48.02-3.74.02-1.26.11-2.54-.01-3.84.02-1.29.05-2.6-.28-3.92.01-1.32.04-2.66-.05-4,0-1.35-.04-2.71-.08-4.08,0-1.37-.29-2.75-.11-4.14,0-1.39.08-2.77.04-4.14,0-1.37.03-2.73.01-4.08,0-1.35.09-2.68-.12-4,0-1.32.12-2.63-.13-3.93-.01-1.29.08-2.57.13-3.84-.02-1.26,0-2.51-.26-3.74-.02-1.23.06-2.45.38-3.64-.02-.15.01-.3.02-.45.02h-.35s-.4,0-.4,0c-.54-.01-1.05-.04-1.55-.06h-.37s-.02-.01-.02-.02v-.02s.03-.05.03-.05l.04-.09.07-.19c.1-.25.19-.49.27-.72.17-.48.32-.94.47-1.43.18-.25.33-.51.45-.78.13-.26.25-.53.35-.8.1-.27.21-.55.32-.81.11-.27.22-.54.36-.79.3-.49.6-.97.91-1.44.29-.48.6-.94.85-1.44.51-.99,1.32-1.74,1.97-2.58.27-.47.67-.82,1.05-1.17.19-.18.39-.34.57-.52.18-.18.35-.37.5-.58.75-.67,1.43-1.39,2.21-1.95.12-.23.27-.42.45-.58.18-.16.37-.29.58-.41.4-.25.85-.41,1.23-.66.39-.24.73-.52,1.08-.79.35-.26.73-.48,1.17-.57.3-.33.66-.54,1.04-.71.39-.15.79-.25,1.16-.39.38-.12.72-.31,1.06-.48.34-.17.69-.31,1.06-.37.61-.45,1.38-.38,1.99-.64.34-.03.65-.13.95-.21.3-.09.59-.2.89-.25.58-.18,1.13-.29,1.67-.31.26-.04.52-.08.77-.11.25-.03.49-.05.72-.08.17-.02.34-.04.5-.05.16-.01.32-.02.48-.03.31-.01.59-.04.86-.04.53,0,.98-.02,1.34,0,.73.04,1.1.08,1.1.14Z"/>
      <path class="cls-1" d="M51.04,33.14s-.15-.02-.29-.15c-.07-.06-.15-.14-.25-.24-.1-.09-.21-.2-.33-.32-.08-.08-.17-.16-.27-.25-.11-.08-.21-.17-.31-.28,0-.21-.4-.03-.35-.3-.07-.16-.24-.23-.4-.31-.16-.07-.22-.3-.44-.31-.16.06-.19-.06-.23-.17-.04-.11-.09-.22-.27-.13-.21-.04-.37-.17-.54-.29-.08-.29-.38-.22-.59-.26-.05-.16-.14-.25-.25-.28-.11-.03-.25,0-.39.05-.09-.43-.36-.45-.69-.19-.12-.03-.23-.08-.35-.13-.12-.04-.24-.07-.38-.01-.13,0-.25,0-.38-.02-.13,0-.26-.01-.38-.06-.28.21-.53.2-.8-.02-.27.27-.53.16-.82.07-.15-.06-.28,0-.41.08-.13.07-.26.14-.42.06-.28.05-.55.18-.83.23-.08,0-.16,0-.24,0-.08,0-.15.01-.22.04-.14.04-.28.12-.37.29-.12.09-.24.19-.37.26-.13.08-.26.14-.43.15-.12.39-.43.44-.77.51-.12.1-.26.18-.39.26-.07.04-.14.08-.19.14-.06.06-.1.12-.13.21-.07.05-.12.1-.18.16,0,.01-.03.04-.03.04v.02s-.01.03-.01.03c0,.04-.02.06-.09.06-.06.01-.15.04-.18.07-.04.03-.04.07.09.05.14-.03.11-.02.04.03-.05.03-.09.08-.01.04-.17.13-.07.11,0,.07.08-.04.15-.11.14-.06.03-.01.04.03.07.05h.01s0,.01,0,.01h.03s.08,0,.12,0c.08,0,.17-.02.25-.05.33-.05.66-.1.98.01.32-.4.64.1.95.02.31.17.62-.03.93.02.3-.07.6.18.9.02.3.03.59-.13.87.02.29-.2.56.16.84.03.28,0,.54-.01.81.03.26.31.52.05.77.03.25.03.5-.17.74.03.24.03.47.16.7.04.23-.05.45.45.66.04.21-.07.42.32.61.04.2-.25.39.03.57.04.18.01.36.03.52.04,1.5.13,2.37.29,2.37.46,0,.19-1.06.36-2.89.5-.18.01-.37.23-.57.04-.2,0-.4.17-.61.04-.21.29-.43.05-.66.04-.22.01-.46-.08-.7.04-.24.17-.48-.08-.74.04-.25-.18-.51-.13-.77.03-.26-.17-.53.04-.81.03-.27-.27-.55-.08-.84.03-.29.1-.58-.04-.87.03-.29-.05-.6.07-.9.02-.31.12-.61.17-.93.02-.31.09-.63.02-.95.02-.32.11-.65-.01-.98.02-.08.01-.17,0-.25-.02-.04,0-.08-.02-.12-.03h-.03s-.05-.02-.05-.02l-.1-.02c-.28-.05-.52-.07-.88.06-.3,0-.6-.01-.88-.03-.29-.02-.57-.04-.9-.02l-.41-.04-.21-.02h-.11s-.05-.01-.05-.01h-.03s-.01,0-.01,0c0,0,0,0,0-.01.17-.25.31-.49.42-.73.38-.32.55-.53.68-.76.06-.11.11-.23.17-.35.06-.12.11-.25.17-.38.13-.27.36-.5.57-.74l.17-.17.08-.09s.04-.03.06-.05l.23-.17c.07-.07.13-.14.2-.2.07-.06.15-.12.22-.18.15-.12.3-.23.46-.33.26-.3.69-.32.94-.6.13-.14.31-.2.49-.26.18-.05.36-.09.5-.22.15-.12.31-.2.47-.27.08-.03.17-.06.26-.08.09-.01.18-.02.28,0,.34-.11.73.07,1.01-.25.16-.06.32-.18.48-.25.16-.07.34-.06.53.12.33-.14.67.16.98-.03.31.31.63.02.94.07.15.05.3.09.45.13.15.04.29.06.45.02.16-.05.3.01.44.07.13.07.26.13.41.15.32-.08.47.37.78.29.12.07.25.11.37.15.12.05.24.1.34.18.2-.13.32-.07.41.04.09.11.14.26.24.33.18.17.55.03.58.4.35-.12.39.23.51.41.11.2.4.16.44.41.29-.03.2.34.38.41.03.22.23.25.32.39.15.08.23.21.26.37.08.12.15.22.21.33.09.16.16.31.23.43.06.13.1.24.12.33.06.19.06.3.01.32Z"/>
      <path class="cls-1" d="M43.15,19.79c.11.03.14.32.1.82,0,.08-.02.17-.02.27,0,.1,0,.2-.04.3-.17.06.2.28-.05.34-.09.1-.07.23-.06.37.01.14-.16.23-.07.4.24.21-.38.19-.08.43.04.16-.03.31-.09.46-.25.09-.09.31-.1.48-.3.09-.23.29-.11.51-.39.07-.39.26-.11.53-.04.18-.23.33-.12.56-.03.19-.02.4-.13.58.18.26.11.45-.14.6.19.27.04.45-.15.62-.1.08-.07.2-.06.32,0,.06.02.12,0,.17,0,.03-.02.05-.03.08-.02.02-.04.06-.07.05-.01.02,0,.04,0,.06,0,.02.01.03-.02.06-.07.04-.14.1-.17.15-.02.04,0,.06.15-.04.04-.01.08-.04.11-.06.03-.02.01,0-.04.08.16-.17.17-.21.17-.19-.01.02-.05.09-.05.16.02-.03.03.01.05.03,0,0,.01.01.02.01.02,0,.06,0,.09,0,.07-.01.13-.04.19-.08.27.02.54-.14.82-.04.28.09.54.18.82.04.07-.04.14-.05.21-.04.03,0,.07,0,.09.02v.02s.05.08.06.05c.06.14.1.12.1.08,0-.04-.04-.11.02-.05,0,0,.06.04.12.08.03.03.03.01.03,0,0-.02-.03-.05-.08-.09-.08-.09-.13-.12-.02-.11-.23-.09-.2-.06-.13-.07.07,0,.16-.04.11-.06.02,0,.03-.05.03-.07,0-.03,0-.06,0-.08,0-.05-.03-.11-.05-.16-.05-.1-.12-.19-.12-.3-.13-.19.06-.46-.15-.62-.02-.21-.23-.36-.14-.6-.24-.14.05-.43-.13-.58-.05-.19-.11-.37-.12-.56.25-.26-.05-.37-.11-.53-.02-.18-.26-.29-.11-.51-.02-.17.07-.36-.1-.48-.09-.14.35-.42-.09-.46-.11-.12.23-.37-.08-.43-.28-.07-.04-.27-.07-.4-.02-.13-.04-.25-.06-.37-.15-1.06-.17-1.69,0-1.73.18-.05.54.63,1.03,1.83.05.12.29.19.15.38.04.13.24.23.16.41.32.07.13.28.16.44.06.15.01.33.17.46.21.12.01.35.17.49-.12.22-.03.38.18.52-.12.22.14.35.18.54-.2.26.03.4.19.56.15.17.07.4.19.59,0,.21.18.39.19.61.09.09.16.18.2.28.02.05.03.11.03.16,0,.03,0,.06,0,.09,0,.03-.01.05-.02.11.1.19.16.39.21.59.05.2.09.4.14.6.12.22.17.44.21.63.04.2.07.38.15.6.05.12.06.21.07.29,0,.08,0,.16-.03.2-.28-.11-.48-.17-.54-.04-.21-.03-.45-.11-.69-.17-.24-.07-.47-.13-.7-.15-.12-.04-.24-.08-.36-.11-.11-.02-.23-.05-.34-.07l-.17-.02s-.06,0-.09,0c-.06,0-.11,0-.17.02-.2-.31-.45-.13-.67-.03-.22.09-.44.05-.67.03-.05.01-.11.02-.16.03l-.26.04-.35.04c-.11.02-.24.04-.35.06-.25.1-.49.13-.69.15-.22.02-.4.04-.69.18-.3.14-.5.15-.67.16.04-.11.09-.24.13-.34.04-.11.06-.2.04-.27,0-.32.08-.78.36-1.24.06-.2.19-.42.28-.61.09-.19.14-.36.08-.58.01-.06,0-.07,0-.11,0-.03-.01-.06-.02-.09-.02-.06-.03-.12-.04-.18,0-.11.04-.21.26-.26-.04-.23.3-.36.19-.6.34-.12.13-.39.19-.59.11-.18.26-.34.19-.56-.08-.22.18-.35.18-.54-.11-.23.31-.3.18-.52.08-.16.07-.35.17-.49-.34-.27.09-.32.17-.46.1-.14-.17-.37.16-.44-.25-.22.04-.29.16-.41.12-.11-.05-.3.15-.38-.17-.18.18-.21.14-.34.16-.08.07-.22.13-.31-.02-.12.02-.21.13-.28.04-.09.08-.17.12-.24.23-.45.4-.68.51-.65Z"/>
    </g>
  </g>
</svg>