<?xml version="1.0" encoding="UTF-8"?>
<svg id="Camada_2" data-name="Camada 2" xmlns="http://www.w3.org/2000/svg" viewBox="0 0 56.03 73.6">
  <defs>
    <style>
      .cls-1 {
        fill: #1b203a;
        stroke-width: 0px;
      }
    </style>
  </defs>
  <g id="_">
    <path class="cls-1" d="M33.25,49.43c-.87.45-2.71.93-5.23.93s-4.36-.48-5.23-.93c-.63-.32-1.39-.08-1.71.54-.32.62-.08,1.39.54,1.71.15.08.31.15.47.22.16,2.06.62,9.75-.67,20.28-.09.7.41,1.33,1.1,1.41.05,0,.11,0,.16,0,.63,0,1.18-.47,1.26-1.11,1.18-9.64.95-16.84.75-19.86,1.02.18,2.15.27,3.33.27s2.31-.09,3.33-.27c-.19,3.02-.43,10.22.75,19.86.08.64.63,1.11,1.26,1.11.05,0,.1,0,.16,0,.69-.08,1.19-.72,1.1-1.41-1.29-10.52-.84-18.22-.67-20.28.17-.07.32-.14.47-.22.62-.32.86-1.09.54-1.71s-1.08-.87-1.71-.54Z"/>
    <path class="cls-1" d="M51.04,26.22c-1.6-3.14-5.36-10.48-5.06-15.06.19-2.86,1.64-6.04,2.99-8.79.31-.63.05-1.39-.58-1.7-.63-.31-1.39-.05-1.7.58-1.46,2.97-3.03,6.42-3.25,9.74-.34,5.27,3.49,12.78,5.33,16.38,5.08,9.94,5.96,18.08,3.03,28.11-1.37,4.7-5.72,15.47-5.76,15.58-.26.65.05,1.39.7,1.65.16.06.32.09.48.09.5,0,.98-.3,1.17-.79.18-.45,4.44-10.99,5.85-15.82,3.13-10.72,2.2-19.4-3.21-29.98Z"/>
    <path class="cls-1" d="M12.59,11c-.22-3.32-1.79-6.77-3.25-9.74-.31-.63-1.07-.89-1.7-.58-.63.31-.89,1.07-.58,1.7,1.35,2.75,2.81,5.93,2.99,8.79.3,4.58-3.46,11.93-5.06,15.06C-.41,36.8-1.34,45.48,1.78,56.2c1.41,4.82,5.67,15.37,5.85,15.82.2.49.67.79,1.18.79.16,0,.32-.03.47-.09.65-.26.96-1,.7-1.65-.04-.11-4.39-10.87-5.76-15.58-2.93-10.03-2.05-18.17,3.03-28.11,1.84-3.6,5.68-11.1,5.33-16.38Z"/>
    <path class="cls-1" d="M23.13.94c-.18-.68-.88-1.08-1.55-.9-4.63,1.23-8.22,1.24-8.25,1.24-.7,0-1.27.57-1.27,1.27,0,.7.57,1.27,1.27,1.27h0c.22,0,3.97-.02,8.9-1.33.68-.18,1.08-.87.9-1.55Z"/>
    <path class="cls-1" d="M23.31,6.51c-.18-.68-.88-1.08-1.55-.9-3.74.99-6.63,1.01-6.66,1.01-.7,0-1.27.57-1.27,1.27,0,.7.56,1.27,1.27,1.27h0c.17,0,3.26-.02,7.31-1.09.68-.18,1.08-.87.9-1.55Z"/>
    <path class="cls-1" d="M43.98,2.55c0-.7-.57-1.27-1.27-1.27-.03,0-3.62-.02-8.25-1.24-.67-.18-1.37.22-1.55.9-.18.68.22,1.37.9,1.55,4.93,1.31,8.69,1.33,8.9,1.33h0c.7,0,1.27-.57,1.27-1.27Z"/>
    <path class="cls-1" d="M40.94,6.62s-2.93-.01-6.66-1.01c-.67-.18-1.37.22-1.55.9-.18.68.22,1.37.9,1.55,4.05,1.08,7.14,1.09,7.31,1.09h0c.7,0,1.27-.57,1.27-1.27,0-.7-.57-1.27-1.27-1.27Z"/>
    <path class="cls-1" d="M28.01,34.59c-2.58,0-4.53,1.9-4.53,4.42s1.95,4.47,4.53,4.47,4.54-1.92,4.54-4.47-1.95-4.42-4.54-4.42ZM28.01,40.95c-1.16,0-2-.81-2-1.94s.8-1.88,2-1.88,2,.76,2,1.88-.84,1.94-2,1.94Z"/>
  </g>
</svg>