<?xml version="1.0" encoding="UTF-8"?>
<svg id="Camada_2" data-name="Camada 2" xmlns="http://www.w3.org/2000/svg" viewBox="0 0 58.45 85">
  <defs>
    <style>
      .cls-1 {
        fill: #1b203a;
        stroke-width: 0px;
      }
    </style>
  </defs>
  <g id="_">
    <path id="Obese_classification_Icon_1" data-name="Obese classification Icon 1" class="cls-1" d="M47.74,38.99l-.86-.18c-4.76-.97-9.67-1.98-9.88-8.88,3.16-3.53,5.21-8.71,5.21-12.93,0-5.11-1.27-17-13-17s-13,11.89-13,17c0,4.23,2.06,9.43,5.24,12.96,0,.03-.02.05-.02.08-.25,6.81-5.16,7.81-9.91,8.78l-.82.17c-6.71,1.41-10.71,7.12-10.71,15.28,0,1.73.04,5.43.08,9.45.03,2.96.06,6.09.08,8.72.02,2.63,1.47,4.99,3.78,6.16,2.47,1.25,4.97,2.33,7.44,3.22,0,0,0,0,0,0,5.91,2.11,11.91,3.18,17.83,3.18s11.93-1.07,17.84-3.18c2.47-.88,4.97-1.96,7.44-3.22,2.31-1.17,3.76-3.53,3.78-6.16.02-2.62.05-5.75.08-8.72.04-4.01.08-7.72.08-9.45,0-8.16-4-13.87-10.71-15.28ZM29.23,2c9.57,0,11,9.4,11,15,0,6.55-5.33,15-11,15s-11-8.45-11-15c0-5.6,1.43-15,11-15ZM56.37,63.7c-.03,2.96-.06,6.1-.08,8.72-.01,1.88-1.04,3.56-2.69,4.39-1.95.99-3.92,1.86-5.87,2.61v-26.93c0-.55-.45-1-1-1s-1,.45-1,1v27.66c-10.95,3.76-22.04,3.76-33,0v-27.66c0-.55-.45-1-1-1s-1,.45-1,1v26.93c-1.95-.75-3.92-1.63-5.87-2.61-1.64-.83-2.67-2.52-2.69-4.39-.02-2.62-.05-5.76-.08-8.72-.04-4-.08-7.7-.08-9.43,0-7.14,3.41-12.12,9.12-13.33l.81-.17c4.41-.9,10.34-2.12,11.36-9.09,1.78,1.42,3.8,2.31,5.93,2.31s4.15-.89,5.94-2.31c1.02,6.97,6.91,8.19,11.33,9.09l.84.17c5.71,1.2,9.12,6.18,9.12,13.33,0,1.72-.04,5.42-.08,9.43Z"/>
  </g>
</svg>