<?xml version="1.0" encoding="UTF-8"?>
<svg id="Camada_2" data-name="Camada 2" xmlns="http://www.w3.org/2000/svg" viewBox="0 0 34.28 74.12">
  <defs>
    <style>
      .cls-1 {
        fill: #1b203a;
        stroke-width: 0px;
      }
    </style>
  </defs>
  <g id="_">
    <path class="cls-1" d="M30.48,20.07c-.49-2.49-2.15-5.46-7.25-5.46-2.49,0-2.83-1.64-2.88-2,1.43-1.45,2.13-3.76,2.13-5.61,0-2.1-.52-7-5.35-7s-5.35,4.9-5.35,7c0,1.87.71,4.19,2.15,5.63-.03.21-.32,1.98-2.88,1.98-5.1,0-6.76,2.97-7.25,5.46L.07,38.84c-.17.77-.03,1.57.4,2.24.44.68,1.12,1.15,1.94,1.31,1.62.32,3.21-.75,3.53-2.35l2.56-11.35c.2,3.52.34,7.38.41,10.42l-.24,31.18c0,2.11,1.72,3.83,3.85,3.83s3.77-1.63,3.83-3.71l.78-19.82.77,19.81c.06,2.09,1.74,3.72,3.85,3.72s3.83-1.72,3.83-3.84l-.24-31.14c.07-3.05.2-6.92.41-10.45l2.56,11.33c.33,1.62,1.92,2.67,3.55,2.36.8-.17,1.48-.63,1.92-1.31.43-.67.58-1.46.41-2.21l-3.73-18.78ZM13.77,7c0-3.32,1.13-5,3.35-5s3.35,1.68,3.35,5c0,1.74-.98,5-3.35,5s-3.35-3.26-3.35-5ZM32.12,39.99c-.15.23-.38.38-.64.44-.53.1-1.09-.26-1.2-.82l-4-17.73c-.11-.47-.55-.8-1.03-.78-.49.02-.88.4-.94.88-.52,4.27-.84,11.89-.95,17.15l.24,31.16c0,1.01-.82,1.83-1.85,1.83s-1.8-.78-1.83-1.79l-1.03-26.5c-.03-1.22-.92-1.88-1.74-1.88s-1.71.66-1.74,1.87l-1.03,26.52c-.03,1-.83,1.78-1.85,1.78s-1.83-.82-1.83-1.82l.23-31.2c-.12-5.23-.43-12.85-.95-17.12-.06-.48-.46-.85-.94-.88-.47-.02-.92.3-1.03.78l-4.01,17.75c-.11.54-.66.91-1.19.81-.27-.06-.5-.21-.65-.44-.14-.21-.18-.47-.12-.74l3.73-18.78c.52-2.62,2.2-3.85,5.29-3.85,2.82,0,4.14-1.56,4.64-2.86.44.15.92.25,1.44.25s1.01-.1,1.46-.25c.49,1.31,1.82,2.87,4.64,2.87,3.09,0,4.77,1.22,5.29,3.85l3.73,18.81c.06.25,0,.5-.13.71Z"/>
  </g>
</svg>