<?xml version="1.0" encoding="UTF-8"?>
<svg id="Camada_2" data-name="Camada 2" xmlns="http://www.w3.org/2000/svg" viewBox="0 0 85 85">
  <defs>
    <style>
      .cls-1 {
        fill: #1b203a;
        stroke-width: 0px;
      }
    </style>
  </defs>
  <g id="_">
    <path id="Obese_classification_Icon_4" data-name="Obese classification Icon 4" class="cls-1" d="M56.06,24.8c.68-2.36.94-5.02.94-7.8,0-5.11-2.77-17-14.5-17s-14.5,11.89-14.5,17c0,2.78.26,5.44.94,7.8C9.2,30.12,0,43.7,0,67.48c0,11.55,4.46,14.11,6.37,14.68.53.16,1.06.23,1.6.23,2.15,0,4.35-1.21,6.03-3.34,4.65,3.36,13.19,5.95,28.5,5.95s23.84-2.6,28.5-5.95c1.69,2.14,3.88,3.34,6.03,3.34.54,0,1.08-.08,1.6-.23,1.91-.57,6.37-3.14,6.37-14.68,0-23.78-9.2-37.36-28.94-42.67ZM42.5,2c12.36,0,12.5,14.85,12.5,15,0,10.51-3.74,15-12.5,15s-12.5-4.49-12.5-15c0-.15.14-15,12.5-15ZM11.04,71.68c-1.09-4.65,1.94-9.5,4.37-11.31,3.18,4.52,12.26,6.82,27.09,6.82s23.9-2.29,27.09-6.82c2.43,1.81,5.46,6.66,4.37,11.31-1.71,7.3-12.88,11.32-31.46,11.32s-29.75-4.02-31.46-11.32ZM78.06,80.24c-1.82.54-3.92-.42-5.51-2.46,1.94-1.82,2.92-3.79,3.36-5.64,1.27-5.46-2.19-11.36-5.39-13.56,0-.01.01-.02.01-.03,1.34-4.08-1.62-8.25-4.14-10.29.89-2.08,1.06-4.38.38-6.6-.16-.53-.72-.83-1.25-.66-.53.16-.83.72-.66,1.25.99,3.23-.3,6.72-3.29,8.89-3.01,2.19-8.24,3.13-13.89-.82-.45-.32-1.08-.21-1.39.25-.32.45-.21,1.08.25,1.39,3.17,2.22,6.26,3.08,9,3.08,2.88,0,5.38-.95,7.21-2.28,1.07-.78,1.95-1.7,2.65-2.71,2.04,1.78,4.16,5.07,3.23,7.88-.89,2.72-5.48,7.27-26.13,7.27s-25.23-4.56-26.13-7.27c-.93-2.81,1.19-6.1,3.23-7.88.7,1.01,1.58,1.93,2.65,2.71,1.83,1.33,4.33,2.28,7.21,2.28s5.83-.86,9-3.08c.45-.32.56-.94.25-1.39-.32-.45-.94-.56-1.39-.25-5.65,3.95-10.88,3.01-13.89.82-2.99-2.17-4.28-5.66-3.29-8.89.16-.53-.13-1.09-.66-1.25-.53-.16-1.09.13-1.25.66-.68,2.22-.51,4.53.38,6.6-2.52,2.04-5.48,6.21-4.14,10.29,0,.01.01.02.01.03-3.2,2.2-6.67,8.1-5.39,13.56.43,1.85,1.42,3.82,3.36,5.64-1.6,2.04-3.69,3.01-5.51,2.46-3.09-.92-4.94-5.69-4.94-12.76,0-22.8,8.78-35.76,27.61-40.79,1.87,4.36,5.67,7.31,12.89,7.31s11.01-2.94,12.89-7.31c18.83,5.02,27.61,17.99,27.61,40.79,0,7.08-1.85,11.85-4.94,12.76Z"/>
  </g>
</svg>