<?xml version="1.0" encoding="UTF-8"?>
<svg id="Camada_2" data-name="Camada 2" xmlns="http://www.w3.org/2000/svg" viewBox="0 0 66.38 85">
  <defs>
    <style>
      .cls-1 {
        fill: #1b203a;
        stroke-width: 0px;
      }
    </style>
  </defs>
  <g id="_">
    <path id="Obese_classification_Icon_2" data-name="Obese classification Icon 2" class="cls-1" d="M49.9,37.05c-.86-.37-1.65-.68-2.37-.97-4.1-1.63-5.36-2.13-5.55-6.69,2.58-3.14,4.21-7.59,4.21-12.4,0-5.11-1.27-17-13-17s-13,11.89-13,17c0,4.81,1.63,9.25,4.21,12.4-.18,4.56-1.44,5.06-5.55,6.69-.72.29-1.51.6-2.37.97C6.57,41.28,1.01,47.81.03,70.12c-.24,5.45.95,9.02,3.53,10.61,1.07.66,2.25.9,3.37.9,1.91,0,3.67-.67,4.57-1.08,1.45,1.08,3.51,1.83,6.28,2.6,4.54,1.26,9.44,1.85,15.41,1.85s10.93-.6,15.41-1.85c2.76-.77,4.83-1.52,6.28-2.6.9.41,2.66,1.08,4.57,1.08,1.13,0,2.3-.24,3.37-.9,2.58-1.6,3.77-5.17,3.53-10.61-.98-22.31-6.54-28.83-16.46-33.07ZM33.19,2c9.57,0,11,9.4,11,15,0,8.13-5.04,15-11,15s-11-6.87-11-15c0-5.6,1.43-15,11-15ZM61.78,79.03c-1.73,1.07-4.04.49-5.4-.02.86-1.28,1.25-2.95,1.2-5.26-.08-3.52-1.03-5.85-2.12-8.56-1.24-3.04-2.64-6.49-3.26-12.79-.05-.55-.54-.94-1.09-.9-.55.05-.95.54-.9,1.09.65,6.59,2.17,10.34,3.4,13.35,1.07,2.62,1.91,4.69,1.98,7.84.09,4.12-.88,5.6-7.5,7.43-4.36,1.21-9.09,1.78-14.88,1.78s-10.51-.56-14.88-1.78c-6.62-1.84-7.59-3.31-7.5-7.43.07-3.15.91-5.22,1.98-7.85,1.22-3.01,2.75-6.76,3.4-13.35.05-.55-.35-1.04-.9-1.09-.56-.05-1.04.35-1.09.9-.62,6.3-2.02,9.75-3.26,12.79-1.1,2.7-2.05,5.04-2.12,8.56-.05,2.31.33,3.98,1.2,5.26-1.36.51-3.67,1.1-5.4.02-1.89-1.17-2.78-4.22-2.58-8.82.94-21.37,5.87-27.32,15.25-31.32.84-.36,1.62-.67,2.32-.95,3.75-1.49,6.01-2.39,6.64-6.67,2.02,1.71,4.4,2.73,6.95,2.73s4.94-1.02,6.95-2.73c.63,4.28,2.89,5.18,6.64,6.67.71.28,1.48.59,2.32.95,9.37,4,14.3,9.94,15.25,31.32.2,4.6-.69,7.65-2.58,8.82Z"/>
  </g>
</svg>